<svg xmlns="http://www.w3.org/2000/svg" xmlns:xlink="http://www.w3.org/1999/xlink" width="1320" height="507.682" viewBox="0 0 1320 507.682"><defs><clipPath id="a"><rect width="1320" height="507.682" rx="37" transform="translate(143.413 136.843)" fill="#fff" opacity="0.38"/></clipPath><clipPath id="b"><rect width="1345.873" height="521.168" fill="none"/></clipPath><linearGradient id="c" x1="0.032" y1="0.745" x2="0.033" y2="0.745" gradientUnits="objectBoundingBox"><stop offset="0" stop-color="#010834"/><stop offset="0.04" stop-color="#010938"/><stop offset="0.452" stop-color="#011365"/><stop offset="0.773" stop-color="#011980"/><stop offset="0.959" stop-color="#021c8b"/><stop offset="1" stop-color="#021c8b"/></linearGradient><clipPath id="d"><rect width="138.744" height="166.736" fill="none"/></clipPath><clipPath id="e"><path d="M1860.815,938.92V772.184c-14.332,2.069-25.828,5.922-33.869,18.161-8.555,13.02-9.636,28-16.078,41.793-6.747,14.443-19.74,25.487-33.154,35.076s-27.766,18.319-38.943,30.138c-10.8,11.418-18.448,26.562-16.35,41.57Z" transform="translate(-1722.074 -772.184)" fill="none"/></clipPath><linearGradient id="f" x1="-5.11" y1="0.955" x2="-5.107" y2="0.955" gradientUnits="objectBoundingBox"><stop offset="0" stop-color="#fbfbfb"/><stop offset="0.175" stop-color="#fbfbfb"/><stop offset="0.33" stop-color="#f7fbfb"/><stop offset="1" stop-color="#eefbff"/></linearGradient><clipPath id="g"><rect width="93.31" height="112.138" fill="none"/></clipPath><clipPath id="h"><rect width="351.151" height="409.842" fill="none"/></clipPath></defs><g transform="translate(-143.413 -136.843)" clip-path="url(#a)"><g transform="translate(130.333 126.15)"><g clip-path="url(#b)"><path d="M0,0,1411.419,44.107l36.31,1125.823L36.31,1125.823Z" transform="translate(-250.483 144.564) rotate(-31.781)" fill="url(#c)"/></g></g><g transform="translate(1324.669 491.761)" opacity="0.1"><g clip-path="url(#d)"><g transform="translate(0.003)"><g clip-path="url(#e)"><path d="M0,0,217.142,7.392l7.111,213.581L7.111,213.581Z" transform="matrix(0.586, -0.81, 0.81, 0.586, -86.735, 109.506)" fill="url(#f)"/></g></g></g></g><g transform="translate(109.833 136.618)" style="mix-blend-mode:screen;isolation:isolate"><g clip-path="url(#g)"><path d="M0,228.3V340.439c9.639-1.391,17.371-3.983,22.779-12.214,5.754-8.756,6.481-18.833,10.813-28.107,4.538-9.714,13.276-17.141,22.3-23.591s18.674-12.32,26.191-20.268c7.263-7.679,12.407-17.865,11-27.958Z" transform="translate(0 -228.301)" fill="#020e40"/></g></g><g transform="translate(109.833 248.655)" style="mix-blend-mode:screen;isolation:isolate"><g clip-path="url(#h)"><path d="M0,399.88c42.215.037,75.309,33.941,95.51,68.471A307.815,307.815,0,0,1,130.613,558c7.64,35.012,9.374,72.227,28.289,103.308,18.6,30.569,52.484,51.589,88.944,60.6,22.744,5.623,47.568,7.345,66.674,20.139,21.99,14.726,31.361,40.936,35.129,65.919-.626,0,2.032,1.755,1.406,1.755H1.115" transform="translate(0 -399.88)" fill="#020e40"/></g></g><path d="M665.927,974.176a6.181,6.181,0,1,1-6.165-5.743A5.966,5.966,0,0,1,665.927,974.176Z" transform="translate(-85.608 -348.526)" fill="none" stroke="#fff" stroke-linecap="round" stroke-linejoin="round" stroke-width="1.092"/><path d="M6.161.041a6.066,6.066,0,0,1,6.2,5.788,5.866,5.866,0,0,1-6.12,5.706,6.066,6.066,0,0,1-6.2-5.788A5.866,5.866,0,0,1,6.161.041Z" transform="translate(830.233 486.612) rotate(-5.655)" fill="none" stroke="#32f7ff" stroke-linecap="round" stroke-width="1.092"/><path d="M1714.911,678.531a3.948,3.948,0,1,1-3.937-3.668,3.81,3.81,0,0,1,3.938,3.668" transform="translate(-400.612 -246.65)" fill="#32f7ff"/><path d="M48.789,597.734a3.9,3.9,0,0,1-4.427,3.146,3.725,3.725,0,0,1-3.377-4.125,3.9,3.9,0,0,1,4.427-3.145,3.724,3.724,0,0,1,3.377,4.124" transform="translate(97.588 -218.442)" fill="#32f7ff"/><path d="M1277.544,744.775a3.947,3.947,0,1,1-3.937-3.668,3.81,3.81,0,0,1,3.937,3.668" transform="translate(-269.829 -269.638)" fill="#32f7ff"/><path d="M541.532,851.024a2.148,2.148,0,1,1-2.142-2,2.073,2.073,0,0,1,2.142,2" transform="translate(-50.817 -307.09)" fill="#fff"/><path d="M757.458,260.862a2.148,2.148,0,1,1-2.142-2,2.073,2.073,0,0,1,2.142,2" transform="translate(-115.384 -102.29)" fill="#32f7ff"/><path d="M389.781,289.036a2.148,2.148,0,1,1-2.142-2,2.073,2.073,0,0,1,2.142,2" transform="translate(-5.44 -112.068)" fill="#32f7ff"/><path d="M795.739,800.789a2.148,2.148,0,1,1-2.142-2,2.074,2.074,0,0,1,2.142,2" transform="translate(-126.831 -289.657)" fill="#fff"/><path d="M168.062,950.637a1.9,1.9,0,0,1-.224,2.814,2.253,2.253,0,0,1-3.021-.209,1.9,1.9,0,0,1,.224-2.814,2.253,2.253,0,0,1,3.021.209" transform="translate(60.704 -342.11)" fill="#fff"/><g transform="translate(849.376 167.294)"><path d="M1075.943,275.279c0,5.382-4.684,9.746-10.462,9.746s-10.461-4.363-10.461-9.746" transform="translate(-1055.02 -275.279)" fill="none" stroke="#3cbbeb" stroke-linecap="round" stroke-miterlimit="10" stroke-width="3"/><path d="M1105.792,275.279c0,5.382-4.684,9.746-10.461,9.746s-10.462-4.363-10.462-9.746" transform="translate(-1063.946 -275.279)" fill="none" stroke="#3cbbeb" stroke-linecap="round" stroke-miterlimit="10" stroke-width="3"/><path d="M1135.642,275.279c0,5.382-4.685,9.746-10.463,9.746s-10.461-4.363-10.461-9.746" transform="translate(-1072.872 -275.279)" fill="none" stroke="#3cbbeb" stroke-linecap="round" stroke-miterlimit="10" stroke-width="3"/><path d="M1165.491,275.279c0,5.382-4.684,9.746-10.462,9.746s-10.461-4.363-10.461-9.746" transform="translate(-1081.797 -275.279)" fill="none" stroke="#3cbbeb" stroke-linecap="round" stroke-miterlimit="10" stroke-width="3"/><path d="M1195.34,275.279c0,5.382-4.684,9.746-10.461,9.746s-10.462-4.363-10.462-9.746" transform="translate(-1090.723 -275.279)" fill="none" stroke="#3cbbeb" stroke-linecap="round" stroke-miterlimit="10" stroke-width="3"/><path d="M1075.943,299.243c0,5.382-4.684,9.746-10.462,9.746s-10.461-4.363-10.461-9.746" transform="translate(-1055.02 -283.595)" fill="none" stroke="#3cbbeb" stroke-linecap="round" stroke-miterlimit="10" stroke-width="3"/><path d="M1105.792,299.243c0,5.382-4.684,9.746-10.461,9.746s-10.462-4.363-10.462-9.746" transform="translate(-1063.946 -283.595)" fill="none" stroke="#3cbbeb" stroke-linecap="round" stroke-miterlimit="10" stroke-width="3"/><path d="M1135.642,299.243c0,5.382-4.685,9.746-10.463,9.746s-10.461-4.363-10.461-9.746" transform="translate(-1072.872 -283.595)" fill="none" stroke="#3cbbeb" stroke-linecap="round" stroke-miterlimit="10" stroke-width="3"/><path d="M1075.943,323.208c0,5.383-4.684,9.746-10.462,9.746s-10.461-4.363-10.461-9.746" transform="translate(-1055.02 -291.912)" fill="none" stroke="#3cbbeb" stroke-linecap="round" stroke-miterlimit="10" stroke-width="3"/><path d="M1105.792,323.208c0,5.383-4.684,9.746-10.461,9.746s-10.462-4.363-10.462-9.746" transform="translate(-1063.946 -291.912)" fill="none" stroke="#3cbbeb" stroke-linecap="round" stroke-miterlimit="10" stroke-width="3"/><path d="M1135.642,323.208c0,5.383-4.685,9.746-10.463,9.746s-10.461-4.363-10.461-9.746" transform="translate(-1072.872 -291.912)" fill="none" stroke="#3cbbeb" stroke-linecap="round" stroke-miterlimit="10" stroke-width="3"/></g><path d="M495.753,948.806c0,6.823-5.938,12.354-13.263,12.354s-13.262-5.531-13.262-12.354" transform="translate(-30.478 -341.715)" fill="none" stroke="#3cbbeb" stroke-linecap="round" stroke-miterlimit="10" stroke-width="3"/><path d="M533.594,948.806c0,6.823-5.938,12.354-13.263,12.354s-13.262-5.531-13.262-12.354" transform="translate(-41.793 -341.715)" fill="none" stroke="#3cbbeb" stroke-linecap="round" stroke-miterlimit="10" stroke-width="3"/><path d="M571.434,948.806c0,6.823-5.938,12.354-13.263,12.354s-13.263-5.531-13.263-12.354" transform="translate(-53.107 -341.715)" fill="none" stroke="#3cbbeb" stroke-linecap="round" stroke-miterlimit="10" stroke-width="3"/><path d="M1593.273,532.088c0,6.141-5.345,11.118-11.937,11.118s-11.936-4.978-11.936-11.118,5.345-11.118,11.936-11.118S1593.273,525.948,1593.273,532.088Z" transform="translate(-359.456 -196.781)" fill="none" stroke="#32f7ff" stroke-miterlimit="10" stroke-width="1"/><path d="M1192.444,591.837a3.523,3.523,0,1,1-3.515-3.275,3.4,3.4,0,0,1,3.515,3.275" transform="translate(-244.635 -220.237)" fill="#fff"/><path d="M1192.444,591.837a3.523,3.523,0,1,1-3.515-3.275A3.4,3.4,0,0,1,1192.444,591.837Z" transform="translate(-244.635 -220.237)" fill="none" stroke="#32f7ff" stroke-miterlimit="10" stroke-width="1"/></g></svg>