<svg xmlns="http://www.w3.org/2000/svg" xmlns:xlink="http://www.w3.org/1999/xlink" width="400" height="214.091" viewBox="0 0 400 214.091"><defs><clipPath id="a"><path d="M2365.084,1171.635h-26.691a1.733,1.733,0,0,1-1.733-1.733v-26.169a1.733,1.733,0,0,1,1.733-1.733h16.826a1.733,1.733,0,0,1,1.622,1.122l9.865,26.169A1.733,1.733,0,0,1,2365.084,1171.635Z" transform="translate(-2336.66 -1142)" fill="none"/></clipPath><clipPath id="b"><path d="M2502.826,1136.728h-11.514a.981.981,0,0,0-.9,1.373l12.237,28.022a2.316,2.316,0,0,0,1.758,1.361l8.472,1.352Z" transform="translate(-2490.329 -1136.728)" fill="none"/></clipPath></defs><g transform="translate(-221.047 -457.141)"><g transform="translate(258.229 457.141)"><path d="M748.24,528.581c-52.422,10.939-21.686-110.031-93.1-58.683-28.4,20.42-69.294-4.291-108.455,9.216-35.965,12.4-27.106,53.1-23.626,66.422,7.029,26.9-27.98,16.171-48.273,27.729-31.831,18.129-3.909,91.219,26.162,91.523s269.007-.607,269.007-.607,13.124-10.267,20.092-31.427C804.331,589.374,794.4,518.949,748.24,528.581Z" transform="translate(-460.692 -457.141)" fill="#ebf1f8"/><g transform="translate(36.523 43.674)"><rect width="13.582" height="27.988" transform="translate(239.298 135.471)" fill="#dee8f7"/><path d="M949.861,795.61V783.378h3.713V762.345h19.909v21.033H992.1V754.549l20.54-7.774v24.579h4.684V738.621l20.54,6.807v49.165h25.977v29.04h9.706v7.316h22.294v-12.6h12.8V784.119h15.812V847.31h15.812V902.3H934V795.61Z" transform="translate(-897.084 -738.621)" fill="#d8e5f5"/><rect width="13.856" height="5.074" transform="translate(137.707 14.37) rotate(180)" fill="#c8d7eb"/><rect width="13.856" height="5.074" transform="translate(137.707 23.903) rotate(180)" fill="#c8d7eb"/><rect width="13.856" height="5.074" transform="translate(137.707 32.479) rotate(180)" fill="#c8d7eb"/><g transform="translate(211.261 68.561)"><rect width="16.105" height="7.832" fill="#c8d7eb"/><rect width="15.951" height="7.832" transform="translate(0.154 24.041)" fill="#c8d7eb"/><rect width="15.951" height="7.832" transform="translate(0.154 35.873)" fill="#c8d7eb"/></g><rect width="15.951" height="7.832" transform="translate(227.626 124.644) rotate(180)" fill="#c8d7eb"/><rect width="15.951" height="7.832" transform="translate(211.675 128.934)" fill="#c8d7eb"/><rect width="15.951" height="7.832" transform="translate(227.626 149.145) rotate(180)" fill="#c8d7eb"/><g transform="translate(98.275 18.906)"><rect width="14.573" height="5.074" transform="translate(0 8.498)" fill="#c8d7eb"/><rect width="14.573" height="5.074" fill="#c8d7eb"/><rect width="39.785" height="5.074" transform="translate(0 18.365)" fill="#c8d7eb"/><rect width="39.785" height="5.074" transform="translate(0 25.995)" fill="#c8d7eb"/><rect width="39.785" height="4.88" transform="translate(0 33.573)" fill="#c8d7eb"/></g><rect width="15.951" height="7.832" transform="translate(211.415 80.77)" fill="#c8d7eb"/><g transform="translate(40.184 60.731)"><rect width="3.482" height="4.908" transform="translate(119.11)" fill="#c8d7eb"/><rect width="3.482" height="4.908" transform="translate(112.599)" fill="#c8d7eb"/><rect width="3.482" height="4.908" transform="translate(106.233)" fill="#c8d7eb"/><rect width="3.482" height="4.908" transform="translate(100.197)" fill="#c8d7eb"/><rect width="3.482" height="4.908" transform="translate(94.046)" fill="#c8d7eb"/><rect width="3.482" height="4.908" transform="translate(87.824)" fill="#c8d7eb"/><rect width="3.482" height="4.908" transform="translate(81.313)" fill="#c8d7eb"/><rect width="3.482" height="4.908" transform="translate(74.947)" fill="#c8d7eb"/><rect width="3.482" height="4.908" transform="translate(68.912)" fill="#c8d7eb"/><rect width="3.482" height="4.908" transform="translate(62.76)" fill="#c8d7eb"/><rect width="3.482" height="4.908" transform="translate(56.35)" fill="#c8d7eb"/><rect width="3.482" height="4.908" transform="translate(49.838)" fill="#c8d7eb"/><rect width="3.482" height="4.908" transform="translate(43.473)" fill="#c8d7eb"/><rect width="3.482" height="4.908" transform="translate(37.437)" fill="#c8d7eb"/><rect width="3.482" height="4.908" transform="translate(31.286)" fill="#c8d7eb"/><rect width="3.482" height="4.908" transform="translate(18.553)" fill="#c8d7eb"/><rect width="3.482" height="4.908" transform="translate(12.187)" fill="#c8d7eb"/><rect width="3.482" height="4.908" transform="translate(6.151)" fill="#c8d7eb"/><rect width="3.482" height="4.908" fill="#c8d7eb"/><rect width="3.482" height="4.908" transform="translate(119.11 8.661)" fill="#c8d7eb"/><rect width="3.482" height="4.908" transform="translate(112.599 8.661)" fill="#c8d7eb"/><rect width="3.482" height="4.908" transform="translate(106.233 8.661)" fill="#c8d7eb"/><rect width="3.482" height="4.908" transform="translate(100.197 8.661)" fill="#c8d7eb"/><rect width="3.482" height="4.908" transform="translate(94.046 8.661)" fill="#c8d7eb"/><rect width="3.482" height="4.908" transform="translate(87.824 8.661)" fill="#c8d7eb"/><rect width="3.482" height="4.908" transform="translate(81.313 8.661)" fill="#c8d7eb"/><rect width="3.482" height="4.908" transform="translate(74.947 8.661)" fill="#c8d7eb"/><rect width="3.482" height="4.908" transform="translate(68.912 8.661)" fill="#c8d7eb"/><rect width="3.482" height="4.908" transform="translate(62.76 8.661)" fill="#c8d7eb"/><rect width="3.482" height="4.908" transform="translate(56.35 8.661)" fill="#c8d7eb"/><rect width="3.482" height="4.908" transform="translate(49.838 8.661)" fill="#c8d7eb"/><rect width="3.482" height="4.908" transform="translate(43.473 8.661)" fill="#c8d7eb"/><rect width="3.482" height="4.908" transform="translate(37.437 8.661)" fill="#c8d7eb"/><rect width="3.482" height="4.908" transform="translate(31.286 8.661)" fill="#c8d7eb"/><rect width="3.482" height="4.908" transform="translate(25.064 8.661)" fill="#c8d7eb"/><rect width="3.482" height="4.908" transform="translate(18.553 8.661)" fill="#c8d7eb"/><rect width="3.482" height="4.908" transform="translate(12.187 8.661)" fill="#c8d7eb"/><rect width="3.482" height="4.908" transform="translate(6.151 8.661)" fill="#c8d7eb"/><rect width="3.482" height="4.908" transform="translate(0 8.661)" fill="#c8d7eb"/><rect width="3.482" height="4.908" transform="translate(119.11 17.189)" fill="#c8d7eb"/><rect width="3.482" height="4.908" transform="translate(112.599 17.189)" fill="#c8d7eb"/><rect width="3.482" height="4.908" transform="translate(106.233 17.189)" fill="#c8d7eb"/><rect width="3.482" height="4.908" transform="translate(100.197 17.189)" fill="#c8d7eb"/><rect width="3.482" height="4.908" transform="translate(94.046 17.189)" fill="#c8d7eb"/><rect width="3.482" height="4.908" transform="translate(87.824 17.189)" fill="#c8d7eb"/><rect width="3.482" height="4.908" transform="translate(81.313 17.189)" fill="#c8d7eb"/><rect width="3.482" height="4.908" transform="translate(74.947 17.189)" fill="#c8d7eb"/><rect width="3.482" height="4.908" transform="translate(68.912 17.189)" fill="#c8d7eb"/><rect width="3.482" height="4.908" transform="translate(62.76 17.189)" fill="#c8d7eb"/><rect width="3.482" height="4.908" transform="translate(56.35 17.189)" fill="#c8d7eb"/><rect width="3.482" height="4.908" transform="translate(49.838 17.189)" fill="#c8d7eb"/><rect width="3.482" height="4.908" transform="translate(43.473 17.189)" fill="#c8d7eb"/><rect width="3.482" height="4.908" transform="translate(37.437 17.189)" fill="#c8d7eb"/><rect width="3.482" height="4.908" transform="translate(31.286 17.189)" fill="#c8d7eb"/><rect width="3.482" height="4.908" transform="translate(25.064 17.189)" fill="#c8d7eb"/><rect width="3.482" height="4.908" transform="translate(18.553 17.189)" fill="#c8d7eb"/><rect width="3.482" height="4.908" transform="translate(12.187 17.189)" fill="#c8d7eb"/><rect width="3.482" height="4.908" transform="translate(6.151 17.189)" fill="#c8d7eb"/><rect width="3.482" height="4.908" transform="translate(0 17.189)" fill="#c8d7eb"/><rect width="3.482" height="4.908" transform="translate(119.11 26.249)" fill="#c8d7eb"/><rect width="3.482" height="4.908" transform="translate(112.599 26.249)" fill="#c8d7eb"/><rect width="3.482" height="4.908" transform="translate(106.233 26.249)" fill="#c8d7eb"/><rect width="3.482" height="4.908" transform="translate(100.197 26.249)" fill="#c8d7eb"/><rect width="3.482" height="4.908" transform="translate(94.046 26.249)" fill="#c8d7eb"/><rect width="3.482" height="4.908" transform="translate(87.824 26.249)" fill="#c8d7eb"/><rect width="3.482" height="4.908" transform="translate(81.313 26.249)" fill="#c8d7eb"/><rect width="3.482" height="4.908" transform="translate(74.947 26.249)" fill="#c8d7eb"/><rect width="3.482" height="4.908" transform="translate(68.912 26.249)" fill="#c8d7eb"/><rect width="3.482" height="4.908" transform="translate(62.76 26.249)" fill="#c8d7eb"/><rect width="3.482" height="4.908" transform="translate(56.35 26.249)" fill="#c8d7eb"/><rect width="3.482" height="4.908" transform="translate(49.838 26.249)" fill="#c8d7eb"/><rect width="3.482" height="4.908" transform="translate(43.473 26.249)" fill="#c8d7eb"/><rect width="3.482" height="4.908" transform="translate(37.437 26.249)" fill="#c8d7eb"/><rect width="3.482" height="4.908" transform="translate(31.286 26.249)" fill="#c8d7eb"/><rect width="3.482" height="4.908" transform="translate(25.064 26.249)" fill="#c8d7eb"/><rect width="3.482" height="4.908" transform="translate(18.553 26.249)" fill="#c8d7eb"/><rect width="3.482" height="4.908" transform="translate(12.187 26.249)" fill="#c8d7eb"/><rect width="3.482" height="4.908" transform="translate(6.151 26.249)" fill="#c8d7eb"/><rect width="3.482" height="4.908" transform="translate(0 26.249)" fill="#c8d7eb"/><rect width="3.482" height="4.908" transform="translate(119.11 34.91)" fill="#c8d7eb"/><rect width="3.482" height="4.908" transform="translate(112.599 34.91)" fill="#c8d7eb"/><rect width="3.482" height="4.908" transform="translate(106.233 34.91)" fill="#c8d7eb"/><rect width="3.482" height="4.908" transform="translate(100.197 34.91)" fill="#c8d7eb"/><rect width="3.482" height="4.908" transform="translate(94.046 34.91)" fill="#c8d7eb"/><rect width="3.482" height="4.908" transform="translate(87.824 34.91)" fill="#c8d7eb"/><rect width="3.482" height="4.908" transform="translate(81.313 34.91)" fill="#c8d7eb"/><rect width="3.482" height="4.908" transform="translate(74.947 34.91)" fill="#c8d7eb"/><rect width="3.482" height="4.908" transform="translate(68.912 34.91)" fill="#c8d7eb"/><rect width="3.482" height="4.908" transform="translate(62.76 34.91)" fill="#c8d7eb"/><rect width="3.482" height="4.908" transform="translate(56.35 34.91)" fill="#c8d7eb"/><rect width="3.482" height="4.908" transform="translate(49.838 34.91)" fill="#c8d7eb"/><rect width="3.482" height="4.908" transform="translate(43.473 34.91)" fill="#c8d7eb"/><rect width="3.482" height="4.908" transform="translate(37.437 34.91)" fill="#c8d7eb"/><rect width="3.482" height="4.908" transform="translate(31.286 34.91)" fill="#c8d7eb"/><rect width="3.482" height="4.908" transform="translate(25.064 34.91)" fill="#c8d7eb"/><rect width="3.482" height="4.908" transform="translate(18.553 34.91)" fill="#c8d7eb"/><rect width="3.482" height="4.908" transform="translate(6.151 34.91)" fill="#c8d7eb"/><rect width="3.482" height="4.908" transform="translate(12.187 34.91)" fill="#c8d7eb"/><rect width="3.482" height="4.908" transform="translate(0 34.91)" fill="#c8d7eb"/><rect width="3.482" height="4.908" transform="translate(119.11 43.438)" fill="#c8d7eb"/><rect width="3.482" height="4.908" transform="translate(112.599 43.438)" fill="#c8d7eb"/><rect width="3.482" height="4.908" transform="translate(106.233 43.438)" fill="#c8d7eb"/><rect width="3.482" height="4.908" transform="translate(100.197 43.438)" fill="#c8d7eb"/><rect width="3.482" height="4.908" transform="translate(94.046 43.438)" fill="#c8d7eb"/><rect width="3.482" height="4.908" transform="translate(87.824 43.438)" fill="#c8d7eb"/><rect width="3.482" height="4.908" transform="translate(81.313 43.438)" fill="#c8d7eb"/><rect width="3.482" height="4.908" transform="translate(74.947 43.438)" fill="#c8d7eb"/><rect width="3.482" height="4.908" transform="translate(68.912 43.438)" fill="#c8d7eb"/><rect width="3.482" height="4.908" transform="translate(62.76 43.438)" fill="#c8d7eb"/><rect width="3.482" height="4.908" transform="translate(56.35 43.438)" fill="#c8d7eb"/><rect width="3.482" height="4.908" transform="translate(49.838 43.438)" fill="#c8d7eb"/><rect width="3.482" height="4.908" transform="translate(43.473 43.438)" fill="#c8d7eb"/><rect width="3.482" height="4.908" transform="translate(37.437 43.438)" fill="#c8d7eb"/><rect width="3.482" height="4.908" transform="translate(31.286 43.438)" fill="#c8d7eb"/><rect width="3.482" height="4.908" transform="translate(25.064 43.438)" fill="#c8d7eb"/><rect width="3.482" height="4.908" transform="translate(18.553 43.438)" fill="#c8d7eb"/><rect width="3.482" height="4.908" transform="translate(6.151 43.438)" fill="#c8d7eb"/><rect width="3.482" height="4.908" transform="translate(0 43.438)" fill="#c8d7eb"/></g><rect width="7.746" height="52.407" transform="translate(3.249 94.467)" fill="#c8d7eb"/><rect width="8.316" height="36.401" transform="translate(19.311 162.731) rotate(180)" fill="#b3c7dd"/><path d="M1907,1196.757v-10.208h-.419v10.208h-5.745v12.6h11.83v-12.6Z" transform="translate(-1713.912 -1117.05)" fill="#c8d7eb"/><path d="M2042.97,1021.226v-7.832h-3.328v-3.409h-.42v3.409h-14.652v-3.409h-.42v3.409h-2.944v34.228h5.881v-14.748h15.883v-7.832h-15.883v-3.816Z" transform="translate(-1815.604 -967.881)" fill="#c8d7eb"/><path d="M811.367,1355.1v44.178H766.948v-51.806Z" transform="translate(-755.953 -1253.004)" fill="#d8e5f5"/><rect width="55.413" height="37.266" transform="translate(55.413 163.459) rotate(180)" fill="#d8e5f5"/><rect width="55.413" height="12.112" transform="translate(55.413 116.25) rotate(180)" fill="#c8d7eb"/><g transform="translate(2.738 122.034)"><rect width="2.846" height="4.012" transform="translate(46.056 14.264)" fill="#c8d7eb"/><rect width="2.846" height="4.012" transform="translate(40.734 14.264)" fill="#c8d7eb"/><rect width="2.846" height="4.012" transform="translate(35.531 14.264)" fill="#c8d7eb"/><rect width="2.846" height="4.012" transform="translate(30.598 14.264)" fill="#c8d7eb"/><rect width="2.846" height="4.012" transform="translate(25.571 14.264)" fill="#c8d7eb"/><rect width="2.846" height="4.012" transform="translate(20.485 14.264)" fill="#c8d7eb"/><rect width="2.846" height="4.012" transform="translate(15.163 14.264)" fill="#c8d7eb"/><rect width="2.846" height="4.012" transform="translate(9.961 14.264)" fill="#c8d7eb"/><rect width="2.846" height="4.012" transform="translate(5.028 14.264)" fill="#c8d7eb"/><rect width="2.846" height="4.012" transform="translate(0 14.264)" fill="#c8d7eb"/><rect width="2.846" height="4.011" transform="translate(46.056 21.342)" fill="#c8d7eb"/><rect width="2.846" height="4.011" transform="translate(40.734 21.342)" fill="#c8d7eb"/><rect width="2.846" height="4.011" transform="translate(35.531 21.342)" fill="#c8d7eb"/><rect width="2.846" height="4.011" transform="translate(30.598 21.342)" fill="#c8d7eb"/><rect width="2.846" height="4.011" transform="translate(25.571 21.342)" fill="#c8d7eb"/><rect width="2.846" height="4.011" transform="translate(20.485 21.342)" fill="#c8d7eb"/><rect width="2.846" height="4.011" transform="translate(15.163 21.342)" fill="#c8d7eb"/><rect width="2.846" height="4.011" transform="translate(9.961 21.342)" fill="#c8d7eb"/><rect width="2.846" height="4.011" transform="translate(5.028 21.342)" fill="#c8d7eb"/><rect width="2.846" height="4.011" transform="translate(0 21.342)" fill="#c8d7eb"/><rect width="2.846" height="4.011" transform="translate(46.056)" fill="#c8d7eb"/><rect width="2.846" height="4.011" transform="translate(40.734)" fill="#c8d7eb"/><rect width="2.846" height="4.011" transform="translate(35.531)" fill="#c8d7eb"/><rect width="2.846" height="4.011" transform="translate(30.598)" fill="#c8d7eb"/><rect width="2.846" height="4.011" transform="translate(25.571)" fill="#c8d7eb"/><rect width="2.846" height="4.011" transform="translate(20.485)" fill="#c8d7eb"/><rect width="2.846" height="4.011" transform="translate(15.163)" fill="#c8d7eb"/><rect width="2.846" height="4.011" transform="translate(9.961)" fill="#c8d7eb"/><rect width="2.846" height="4.011" transform="translate(46.056 7.079)" fill="#c8d7eb"/><rect width="2.846" height="4.011" transform="translate(40.734 7.079)" fill="#c8d7eb"/><rect width="2.846" height="4.011" transform="translate(35.531 7.079)" fill="#c8d7eb"/><rect width="2.846" height="4.011" transform="translate(30.598 7.079)" fill="#c8d7eb"/><rect width="2.846" height="4.011" transform="translate(25.571 7.079)" fill="#c8d7eb"/><rect width="2.846" height="4.011" transform="translate(20.485 7.079)" fill="#c8d7eb"/><rect width="2.846" height="4.011" transform="translate(15.163 7.079)" fill="#c8d7eb"/><rect width="2.846" height="4.011" transform="translate(9.961 7.079)" fill="#c8d7eb"/><rect width="2.846" height="4.011" transform="translate(5.028 7.079)" fill="#c8d7eb"/><rect width="2.846" height="4.011" transform="translate(0 7.079)" fill="#c8d7eb"/><rect width="2.846" height="4.012" transform="translate(46.056 28.312)" fill="#c8d7eb"/><rect width="2.846" height="4.012" transform="translate(40.734 28.312)" fill="#c8d7eb"/><rect width="2.846" height="4.012" transform="translate(35.531 28.312)" fill="#c8d7eb"/><rect width="2.846" height="4.012" transform="translate(30.598 28.312)" fill="#c8d7eb"/><rect width="2.846" height="4.012" transform="translate(25.571 28.312)" fill="#c8d7eb"/><rect width="2.846" height="4.012" transform="translate(20.485 28.312)" fill="#c8d7eb"/><rect width="2.846" height="4.012" transform="translate(15.163 28.312)" fill="#c8d7eb"/><rect width="2.846" height="4.012" transform="translate(9.961 28.312)" fill="#c8d7eb"/><rect width="2.846" height="4.012" transform="translate(5.028 28.312)" fill="#c8d7eb"/><rect width="2.846" height="4.012" transform="translate(0 28.312)" fill="#c8d7eb"/><rect width="2.846" height="4.012" transform="translate(46.056 34.518)" fill="#c8d7eb"/><rect width="2.846" height="4.012" transform="translate(40.734 34.518)" fill="#c8d7eb"/><rect width="2.846" height="4.012" transform="translate(35.531 34.518)" fill="#c8d7eb"/><rect width="2.846" height="4.012" transform="translate(30.598 34.518)" fill="#c8d7eb"/><rect width="2.846" height="4.012" transform="translate(25.571 34.518)" fill="#c8d7eb"/><rect width="2.846" height="4.012" transform="translate(20.485 34.518)" fill="#c8d7eb"/><rect width="2.846" height="4.012" transform="translate(15.163 34.518)" fill="#c8d7eb"/><rect width="2.846" height="4.012" transform="translate(9.961 34.518)" fill="#c8d7eb"/><rect width="2.846" height="4.012" transform="translate(5.028 34.518)" fill="#c8d7eb"/><rect width="2.846" height="4.012" transform="translate(0 34.518)" fill="#c8d7eb"/></g><rect width="0.821" height="10.504" transform="translate(13.974 86.148)" fill="#d8e5f5"/><g transform="translate(6.165 107.54)"><rect width="2.391" height="4.137" transform="translate(42.629)" fill="#d8e5f5"/><rect width="2.391" height="4.137" transform="translate(18.887)" fill="#d8e5f5"/><rect width="2.391" height="4.137" fill="#d8e5f5"/></g><rect width="79.746" height="46.647" transform="translate(121.531 116.812)" fill="#c8d7eb"/><path d="M1816.271,1426.213h16.641V1411.7l-16.641,6.371Z" transform="translate(-1642.466 -1307.271)" fill="#c8d7eb"/><path d="M1080.311,1566.566h-38.082v-41.425l38.082,13.183Z" transform="translate(-988.523 -1403.107)" fill="#c8d7eb"/><rect width="36.07" height="1.28" transform="translate(54.712 136.589)" fill="#d8e5f5"/><rect width="36.07" height="1.28" transform="translate(54.712 140.703)" fill="#d8e5f5"/><rect width="36.07" height="1.28" transform="translate(54.712 144.818)" fill="#d8e5f5"/><rect width="36.07" height="1.28" transform="translate(54.712 148.932)" fill="#d8e5f5"/><rect width="36.07" height="1.28" transform="translate(54.712 153.047)" fill="#d8e5f5"/><rect width="36.07" height="1.28" transform="translate(54.712 157.161)" fill="#d8e5f5"/><rect width="3.2" height="12.378" transform="translate(190.445 104.433)" fill="#c8d7eb"/><g transform="translate(57.112 25.451)"><rect width="2.207" height="18.721" fill="#c8d7eb"/><rect width="2.207" height="18.721" transform="translate(4.389)" fill="#c8d7eb"/><rect width="2.207" height="18.721" transform="translate(8.718)" fill="#c8d7eb"/><rect width="2.207" height="18.721" transform="translate(13.199)" fill="#c8d7eb"/></g></g></g><g transform="translate(269.58 631.261)"><path d="M557.764,1592.215l-5.911-.563-3.772,2.984-1.438,5.551,1.776,3.795-3.885-1.633-9.038,10.125-1.647,8.613,3.04,2.153h26.22l3.8-12.413-.127-10.133Z" transform="translate(-533.85 -1589.746)" fill="#dca155"/><g transform="translate(1.647 12.604)"><path d="M602.712,1660.6s3.434,4.5,4.166,4.673,2.984-.169,2.928-.507a24.226,24.226,0,0,0-3.209-2.533Z" transform="translate(-593.674 -1660.595)" fill="#d18d4c" opacity="0.5"/><path d="M544.463,1725.851l4.781,3.574a1.305,1.305,0,0,1,.5,1.3c-.213,1.055-.6,2.768-.915,2.845C548.377,1733.685,544.463,1725.851,544.463,1725.851Z" transform="translate(-544.463 -1715.726)" fill="#d18d4c" opacity="0.5"/><path d="M702.412,1721.191s-6.84,3.547-7.094,4.138,2.111,5.4,3.04,4.729S702.412,1721.191,702.412,1721.191Z" transform="translate(-671.896 -1711.789)" fill="#d18d4c" opacity="0.5"/></g><g transform="translate(7.91)"><path d="M592.672,1593.3s-4.9-1.3-5.349-1.07-2.7,3.322-2.477,3.885S592.672,1593.3,592.672,1593.3Z" transform="translate(-584.83 -1590.215)" fill="#dca155"/><path d="M635.707,1579.412l-.338,3.04,2.083-1.858S636.664,1579.074,635.707,1579.412Z" transform="translate(-627.528 -1579.363)" fill="#d0934c"/><path d="M633.7,1597.193c0-.042-.07-.676-.183-.648a3.359,3.359,0,0,0-.873.577c0,.084-.141.718.155.69S633.7,1597.193,633.7,1597.193Z" transform="translate(-625.199 -1593.879)" fill="#d0934c"/><path d="M634.472,1602.877a18.241,18.241,0,0,0-.619,2.871c.113.225,1.633,1.942,1.83,1.858S634.472,1602.877,634.472,1602.877Z" transform="translate(-626.237 -1599.229)" fill="#d18d4c" opacity="0.5"/><path d="M639.36,1601.994s.844,2.646,1.07,2.618a5.5,5.5,0,0,0,1.239-2.28A12.691,12.691,0,0,0,639.36,1601.994Z" transform="translate(-630.899 -1598.483)" fill="#d18d4c" opacity="0.5"/><path d="M640.147,1598.986l.72-.369a.128.128,0,0,1,.107,0l.3.124a.068.068,0,0,1-.019.131Z" transform="translate(-631.564 -1595.618)" fill="#d18d4c" opacity="0.5"/><path d="M633.942,1603.533l-.411.412a.141.141,0,0,0,.014.212l.139.106a.079.079,0,0,0,.125-.047Z" transform="translate(-625.94 -1599.783)" fill="#d18d4c" opacity="0.5"/><path d="M611.435,1597.96a24.643,24.643,0,0,0-3.42-.211c-.253.127-1.415,1.2-.95,1.267A39.309,39.309,0,0,0,611.435,1597.96Z" transform="translate(-603.523 -1594.871)" fill="#d0934c"/></g><path d="M553.443,1788.14s10.91-1.637,12.036-1.243,5.011,1.182,5.011,1.182,4.842-1.239,5.348-.957a6.469,6.469,0,0,1,1.182,1.014Z" transform="translate(-550.403 -1754.644)" fill="#d18d4c" opacity="0.5"/></g><g transform="translate(311.289 546.334)"><path d="M2487.858,1694.936h-8.223a2.3,2.3,0,0,1-2.3-2.3v-8.3h12.826v8.3A2.3,2.3,0,0,1,2487.858,1694.936Zm-8.973-9.051v6.749a.75.75,0,0,0,.75.75h8.223a.751.751,0,0,0,.75-.75v-6.749Z" transform="translate(-2217.498 -1583.12)" fill="#252d49"/><path d="M933.735,1098.152l142.705-.722a3.59,3.59,0,0,1,3.608,3.589v67.313l-186.345,10.5v-10.5l17.734-47.812Z" transform="translate(-879.578 -1087.279)" fill="#b3d09f"/><rect width="240.442" height="19.86" transform="translate(23.791 81.055)" fill="#252d49"/><g transform="translate(212.817 76.931)"><circle cx="16.959" cy="16.959" r="16.959" transform="translate(0 23.984) rotate(-45)" fill="#343d61"/><path d="M2271.656,1614.684a10.507,10.507,0,1,0,10.507,10.507A10.507,10.507,0,0,0,2271.656,1614.684Zm1.439,1.151a9.446,9.446,0,0,1,5.745,3.2l-3.642,2.249a5.268,5.268,0,0,0-2.1-1.167Zm-2.878,0v4.281a5.264,5.264,0,0,0-2.1,1.167l-3.642-2.249A9.446,9.446,0,0,1,2270.217,1615.835Zm-7.288,13.025a9.489,9.489,0,0,1,.019-7.384l3.64,2.248a5.259,5.259,0,0,0-.014,2.884Zm7.288,5.686a9.451,9.451,0,0,1-5.778-3.235l3.637-2.246a5.263,5.263,0,0,0,2.14,1.2Zm-.946-9.356a2.385,2.385,0,1,1,2.385,2.385A2.385,2.385,0,0,1,2269.271,1625.191Zm3.825,9.356v-4.281a5.271,5.271,0,0,0,2.14-1.2l3.637,2.246A9.451,9.451,0,0,1,2273.1,1634.547Zm3.642-7.938a5.263,5.263,0,0,0-.014-2.884l3.64-2.248a9.491,9.491,0,0,1,.019,7.384Z" transform="translate(-2247.673 -1601.208)" fill="#a1bbf1"/></g><g transform="translate(68.521 76.931)"><g transform="translate(0 0)"><circle cx="16.959" cy="16.959" r="16.959" transform="translate(0 23.984) rotate(-45)" fill="#343d61"/></g><path d="M1341.656,1614.684a10.507,10.507,0,1,0,10.507,10.507A10.507,10.507,0,0,0,1341.656,1614.684Zm1.439,1.151a9.448,9.448,0,0,1,5.745,3.2l-3.641,2.249a5.27,5.27,0,0,0-2.1-1.167Zm-2.879,0v4.281a5.268,5.268,0,0,0-2.1,1.167l-3.641-2.249A9.448,9.448,0,0,1,1340.217,1615.835Zm-7.287,13.026a9.488,9.488,0,0,1,.019-7.384l3.64,2.248a5.27,5.27,0,0,0-.014,2.884Zm7.287,5.686a9.45,9.45,0,0,1-5.777-3.235l3.637-2.246a5.266,5.266,0,0,0,2.14,1.2Zm-.946-9.356a2.385,2.385,0,1,1,2.385,2.385A2.386,2.386,0,0,1,1339.271,1625.191Zm3.825,9.356v-4.281a5.267,5.267,0,0,0,2.14-1.2l3.637,2.246A9.449,9.449,0,0,1,1343.1,1634.547Zm3.642-7.937a5.272,5.272,0,0,0-.014-2.884l3.64-2.248a9.492,9.492,0,0,1,.019,7.384Z" transform="translate(-1317.673 -1601.207)" fill="#a1bbf1"/></g><g transform="translate(109.456 80.752)"><g transform="translate(0 0)"><g transform="translate(0)"><circle cx="16.959" cy="16.959" r="16.959" transform="translate(0 33.163) rotate(-77.886)" fill="#343d61"/></g></g><path d="M1580.715,1614.54a10.507,10.507,0,1,0,10.507,10.507A10.507,10.507,0,0,0,1580.715,1614.54Zm1.439,1.151a9.448,9.448,0,0,1,5.745,3.2l-3.641,2.249a5.265,5.265,0,0,0-2.1-1.167Zm-2.879,0v4.281a5.266,5.266,0,0,0-2.1,1.167l-3.642-2.249A9.449,9.449,0,0,1,1579.276,1615.692Zm-7.287,13.026a9.488,9.488,0,0,1,.019-7.384l3.64,2.248a5.267,5.267,0,0,0-.014,2.884Zm7.287,5.686a9.449,9.449,0,0,1-5.777-3.235l3.637-2.246a5.265,5.265,0,0,0,2.14,1.2Zm-.946-9.356a2.385,2.385,0,1,1,2.385,2.386A2.386,2.386,0,0,1,1578.33,1625.047Zm3.825,9.356v-4.281a5.268,5.268,0,0,0,2.14-1.2l3.637,2.246A9.45,9.45,0,0,1,1582.155,1634.4Zm3.642-7.938a5.273,5.273,0,0,0-.014-2.884l3.64-2.248a9.487,9.487,0,0,1,.019,7.384Z" transform="translate(-1560.575 -1604.907)" fill="#a1bbf1"/></g><path d="M2199.93,1102h-43.345a5.2,5.2,0,0,0-5.192,4.96l-2.876,62.844H2148a9,9,0,0,0-9,9v21.46a2.3,2.3,0,0,0,2.3,2.3h6.245a2.3,2.3,0,0,0,2.3-2.3v-8.209a18.619,18.619,0,0,1,37.209-1.042,18.838,18.838,0,0,1-.123,3.427h29.083v-55.1l-10.377-33.151A5.976,5.976,0,0,0,2199.93,1102Z" transform="translate(-1931.659 -1091.139)" fill="#b3d09f"/><path d="M2416.344,1573.1a21.679,21.679,0,0,1,8.149,16.959c0,.213,0,.425-.01.636h15.43V1573.1Z" transform="translate(-2165.971 -1489.147)" fill="#90b07a"/><path d="M2502.826,1136.728h-11.514a.981.981,0,0,0-.9,1.373l12.237,28.022a2.316,2.316,0,0,0,1.758,1.361l8.472,1.352Z" transform="translate(-2228.477 -1120.479)" fill="#a1bbf1"/><path d="M2365.084,1171.635h-26.691a1.733,1.733,0,0,1-1.733-1.733v-26.169a1.733,1.733,0,0,1,1.733-1.733h16.826a1.733,1.733,0,0,1,1.622,1.122l9.865,26.169A1.733,1.733,0,0,1,2365.084,1171.635Z" transform="translate(-2098.65 -1124.933)" fill="#a1bbf1"/><path d="M2225.039,1171.732h12.586a.794.794,0,0,0,.793-.793v-28.145a.793.793,0,0,0-.793-.793h-11.264a.793.793,0,0,0-.792.756l-1.322,28.145A.794.794,0,0,0,2225.039,1171.732Z" transform="translate(-2003.678 -1124.933)" fill="#90b07a"/><g transform="translate(238.01 17.067)"><g clip-path="url(#a)"><g transform="translate(-27.89 -22.112)"><path d="M2167.252,1089.186h-10.343l45.546-80.253H2212.8Z" transform="translate(-2156.909 -1007.468)" fill="#d8e5f5"/><path d="M2250.084,1098.631h-2.727l45.546-80.252h2.727Z" transform="translate(-2233.324 -1015.448)" fill="#d8e5f5"/><path d="M2354.839,1079.742h-5.171l45.546-80.252h5.172Z" transform="translate(-2319.76 -999.489)" fill="#d8e5f5"/></g></g></g><path d="M2360.859,1168.187h-26.691a2.512,2.512,0,0,1-2.509-2.509v-26.169a2.512,2.512,0,0,1,2.509-2.509h16.826a2.521,2.521,0,0,1,2.348,1.624l9.865,26.169a2.509,2.509,0,0,1-2.347,3.394Zm-26.691-29.635a.959.959,0,0,0-.958.957v26.169a.959.959,0,0,0,.958.957h26.691a.957.957,0,0,0,.9-1.3l-9.864-26.169a.963.963,0,0,0-.9-.62Z" transform="translate(-2094.426 -1120.708)" fill="#27385f"/><g transform="translate(261.853 16.249)"><g clip-path="url(#b)"><g transform="translate(-27.437 -27.121)"><path d="M2323.837,1051.629h-10.343l45.546-80.252h10.343Z" transform="translate(-2313.494 -969.911)" fill="#d8e5f5"/><path d="M2406.669,1061.074h-2.727l45.546-80.252h2.727Z" transform="translate(-2389.908 -977.89)" fill="#d8e5f5"/><path d="M2511.423,1042.184h-5.171l45.546-80.253h5.172Z" transform="translate(-2476.344 -961.931)" fill="#d8e5f5"/></g></g></g><path d="M2508.657,1165.387a.751.751,0,0,1-.122-.01l-8.472-1.352a3.079,3.079,0,0,1-2.347-1.816l-12.237-28.022a1.757,1.757,0,0,1,1.61-2.459H2498.6a.776.776,0,0,1,.74.544l10.054,32.108a.776.776,0,0,1-.74,1.008Zm-21.568-32.108a.205.205,0,0,0-.188.287l12.237,28.022a1.534,1.534,0,0,0,1.169.9l7.235,1.155-9.509-30.369Z" transform="translate(-2224.255 -1116.255)" fill="#27385f"/><rect width="3" height="22.343" transform="translate(281.351 54.305)" fill="#9e4d43"/><rect width="11.016" height="23.946" rx="5.508" transform="translate(275.662 83.474)" fill="#b3d09f"/><path d="M2579.333,1714.333a1.551,1.551,0,0,0,1.551,1.552h7.913a1.552,1.552,0,0,0,1.552-1.552Z" transform="translate(-2303.671 -1608.464)" fill="#90b07a"/><path d="M2537.288,1372.3h0a.62.62,0,0,1-.621-.621v-33.721a.62.62,0,0,1,.621-.621h0a.621.621,0,0,1,.621.621v33.721A.621.621,0,0,1,2537.288,1372.3Z" transform="translate(-2267.625 -1289.958)" fill="#90b07a"/><path d="M2333.281,1363.113h0a.621.621,0,0,1-.621-.62v-18.205a.62.62,0,0,1,.621-.62h0a.62.62,0,0,1,.621.62v18.205A.621.621,0,0,1,2333.281,1363.113Z" transform="translate(-2095.271 -1295.31)" fill="#90b07a"/><rect width="8.256" height="3.207" transform="translate(238.01 70.441)" fill="#343d61"/><path d="M2294.979,1086.229H2258v-1.345a1.551,1.551,0,0,1,1.551-1.552h28.63a8.276,8.276,0,0,1,4.668,1.442Z" transform="translate(-2032.195 -1075.368)" fill="#b3d09f"/><path d="M2292.849,1092.627l-34.849.109v1.345h36.979Z" transform="translate(-2032.195 -1083.22)" fill="#90b07a"/><path d="M887.6,1171.413H835.92a2.055,2.055,0,0,1-2.055-2.055v-2.449a2.055,2.055,0,0,1,.492-1.334l69.8-81.763a1.365,1.365,0,0,1,1.039-.479h5.114a1.365,1.365,0,0,1,1.324,1.7l-21.115,84.1A3.01,3.01,0,0,1,887.6,1171.413Z" transform="translate(-829.024 -1075.368)" fill="#b3d09f"/><rect width="56.839" height="13.779" rx="6.889" transform="translate(0 99.02)" fill="#b3d09f"/><path d="M802.666,1744a2.328,2.328,0,0,0,2.327,2.327h52.185a2.328,2.328,0,0,0,2.327-2.327Z" transform="translate(-802.666 -1633.528)" fill="#90b07a"/><g transform="translate(33.793 88.954)"><path d="M1035.385,1608.181a2.935,2.935,0,0,0-4.1,4.03l-5,7.457a2.934,2.934,0,1,0,1.93,1.293l5-7.457a2.935,2.935,0,0,0,2.169-5.323Z" transform="translate(-1022.455 -1607.316)" fill="#b3d09f"/><path d="M1031.194,1605.738a2.934,2.934,0,1,1,.034,5.764l-5,7.457a2.933,2.933,0,1,1-1.93-1.293l5-7.457a2.935,2.935,0,0,1,1.9-4.471Zm-.071-.36a3.3,3.3,0,0,0-2.259,4.819l-4.739,7.073a3.3,3.3,0,1,0,2.54,1.7l4.739-7.073a3.3,3.3,0,1,0-.281-6.521Z" transform="translate(-1020.465 -1605.315)" fill="#90b07a"/><path d="M1086.928,1619.873a1.376,1.376,0,1,1-.377-1.908A1.376,1.376,0,0,1,1086.928,1619.873Z" transform="translate(-1074.488 -1615.805)" fill="#90b07a"/><path d="M1035.387,1696.8a1.375,1.375,0,1,1-.377-1.909A1.376,1.376,0,0,1,1035.387,1696.8Z" transform="translate(-1030.944 -1680.794)" fill="#90b07a"/><path d="M1053.095,1650.215l5-7.457a2.924,2.924,0,0,1-1.1-.448l-4.73,7.06A2.918,2.918,0,0,1,1053.095,1650.215Z" transform="translate(-1047.329 -1636.57)" fill="#90b07a"/></g><g transform="translate(16 88.954)"><path d="M920.707,1608.181a2.935,2.935,0,0,0-4.1,4.03l-5,7.457a2.934,2.934,0,1,0,1.93,1.293l5-7.457a2.935,2.935,0,0,0,2.169-5.323Z" transform="translate(-907.777 -1607.316)" fill="#b3d09f"/><path d="M916.515,1605.738a2.934,2.934,0,1,1,.034,5.764l-5,7.457a2.933,2.933,0,1,1-1.93-1.293l5-7.457a2.935,2.935,0,0,1,1.9-4.471Zm-.071-.36a3.3,3.3,0,0,0-2.259,4.819l-4.739,7.073a3.3,3.3,0,1,0,2.539,1.7l4.739-7.073a3.3,3.3,0,1,0-.281-6.521Z" transform="translate(-905.787 -1605.315)" fill="#90b07a"/><path d="M972.249,1619.873a1.376,1.376,0,1,1-.377-1.908A1.375,1.375,0,0,1,972.249,1619.873Z" transform="translate(-959.81 -1615.805)" fill="#90b07a"/><path d="M920.709,1696.8a1.376,1.376,0,1,1-.377-1.909A1.376,1.376,0,0,1,920.709,1696.8Z" transform="translate(-916.266 -1680.794)" fill="#90b07a"/><path d="M938.416,1650.215l5-7.457a2.926,2.926,0,0,1-1.1-.448l-4.73,7.06A2.922,2.922,0,0,1,938.416,1650.215Z" transform="translate(-932.651 -1636.57)" fill="#90b07a"/></g><path d="M1000.855,1112.406h4.135a.559.559,0,0,1,.54.7l-16.723,61.9a3.344,3.344,0,0,1-3.221,2.472l-37.062.079a1.266,1.266,0,0,1-.972-2.081l52.871-62.875A.559.559,0,0,1,1000.855,1112.406Z" transform="translate(-924.819 -1099.93)" fill="#90b07a"/><path d="M1219.6,1171.487l17.655-70.323h1.335l-17.377,70.323Z" transform="translate(-1154.912 -1090.433)" fill="#90b07a"/><path d="M1872.534,1093.333h-1.344a1.189,1.189,0,0,0-1.19,1.189v70.349h3.724v-70.349A1.189,1.189,0,0,0,1872.534,1093.333Z" transform="translate(-1704.396 -1083.817)" fill="#90b07a"/><path d="M1672.534,1093.333h-1.345a1.189,1.189,0,0,0-1.19,1.189v70.349h3.724v-70.349A1.19,1.19,0,0,0,1672.534,1093.333Z" transform="translate(-1535.427 -1083.817)" fill="#90b07a"/><path d="M1462.534,1093.333h-1.345a1.189,1.189,0,0,0-1.189,1.189v70.349h3.724v-70.349A1.189,1.189,0,0,0,1462.534,1093.333Z" transform="translate(-1358.01 -1083.817)" fill="#90b07a"/><path d="M1862.534,1093.333h-1.344a1.189,1.189,0,0,0-1.19,1.189v70.349h3.724v-70.349A1.19,1.19,0,0,0,1862.534,1093.333Z" transform="translate(-1695.947 -1083.817)" fill="#b3d09f"/><path d="M1662.534,1093.333h-1.345a1.19,1.19,0,0,0-1.19,1.189v70.349h3.724v-70.349A1.19,1.19,0,0,0,1662.534,1093.333Z" transform="translate(-1526.979 -1083.817)" fill="#b3d09f"/><path d="M1452.534,1093.333h-1.345a1.189,1.189,0,0,0-1.189,1.189v70.349h3.724v-70.349A1.189,1.189,0,0,0,1452.534,1093.333Z" transform="translate(-1349.562 -1083.817)" fill="#b3d09f"/><path d="M1331.894,1518h-74.062a4.5,4.5,0,0,0-4.5,4.5v27.016a4.5,4.5,0,0,0,3.964,4.467l0-10.475a18.619,18.619,0,0,1,34.369-9.93h5.578a18.619,18.619,0,0,1,34.383,9.908l0,10.53h.272a4.5,4.5,0,0,0,4.5-4.5V1522.5A4.5,4.5,0,0,0,1331.894,1518Z" transform="translate(-1183.409 -1442.594)" fill="#b3d09f"/><g transform="translate(69.924 105.869)"><path d="M1757.912,1714.333v5.553h.273a4.5,4.5,0,0,0,4.5-4.5v-1.053Z" transform="translate(-1679.622 -1714.333)" fill="#90b07a"/><path d="M1253.333,1714.333v1.053a4.5,4.5,0,0,0,3.964,4.467v-5.52Z" transform="translate(-1253.333 -1714.333)" fill="#90b07a"/></g><path d="M1764.166,1522.5v1.149h3.1V1522.5a4.5,4.5,0,0,0-4.5-4.5h-3.1A4.5,4.5,0,0,1,1764.166,1522.5Z" transform="translate(-1611.182 -1442.594)" fill="#90b07a"/><path d="M1153.724,1112.785v-18.262a1.19,1.19,0,0,0-1.19-1.189h-1.345a1.189,1.189,0,0,0-1.189,1.189v22.624Z" transform="translate(-1096.109 -1083.817)" fill="#90b07a"/><path d="M1143.724,1114.6v-20.079a1.19,1.19,0,0,0-1.19-1.189h-1.345a1.189,1.189,0,0,0-1.19,1.189v24.441Z" transform="translate(-1087.66 -1083.817)" fill="#b3d09f"/><path d="M4.577,0h0A4.577,4.577,0,0,1,9.154,4.577V7.965a0,0,0,0,1,0,0H0a0,0,0,0,1,0,0V4.577A4.577,4.577,0,0,1,4.577,0Z" transform="translate(235.58)" fill="#9e4d43"/><path d="M2323.43,1037.1a2.909,2.909,0,0,1,2.909-2.909h3.336a2.94,2.94,0,0,1,.393.03,2.908,2.908,0,0,0-2.823-2.217h-3.336a2.909,2.909,0,0,0-2.909,2.909v5.055h2.43Z" transform="translate(-2085.42 -1032)" fill="#be706b"/><g transform="translate(10.671 50.442)"><path d="M874.193,1561.027h-2.754l1.923-2.214,2.746,0Z" transform="translate(-871.439 -1527.513)" fill="#dca155"/><path d="M886.579,1546.829l-2.746,0,1.908-2.2,2.738-.006Z" transform="translate(-881.91 -1515.533)" fill="#9e4d43"/><path d="M898.87,1532.741l-2.738.006,1.893-2.18,2.73-.009Z" transform="translate(-892.301 -1503.645)" fill="#dca155"/><path d="M911.065,1518.762l-2.73.009,1.879-2.163,2.722-.012Z" transform="translate(-902.61 -1491.849)" fill="#9e4d43"/><path d="M923.166,1504.891l-2.722.012,1.864-2.147,2.714-.015Z" transform="translate(-912.84 -1480.145)" fill="#dca155"/><path d="M935.173,1491.126l-2.714.015,1.85-2.13,2.706-.018Z" transform="translate(-922.992 -1468.529)" fill="#9e4d43"/><path d="M947.089,1477.467l-2.706.018,1.836-2.114,2.7-.021Z" transform="translate(-933.065 -1457.004)" fill="#dca155"/><path d="M958.914,1463.912l-2.7.021,1.822-2.1,2.69-.023Z" transform="translate(-943.062 -1445.565)" fill="#9e4d43"/><path d="M970.648,1450.46l-2.69.024,1.808-2.082,2.683-.026Z" transform="translate(-952.982 -1434.214)" fill="#dca155"/><path d="M982.294,1437.109l-2.683.026,1.794-2.066,2.675-.029Z" transform="translate(-962.828 -1422.948)" fill="#9e4d43"/><path d="M993.852,1423.859l-2.675.029,1.781-2.051,2.667-.032Z" transform="translate(-972.599 -1411.766)" fill="#dca155"/><path d="M1005.323,1410.709l-2.667.032,1.768-2.035,2.66-.034Z" transform="translate(-982.296 -1400.67)" fill="#9e4d43"/><path d="M1016.707,1397.657l-2.66.034,1.755-2.02,2.652-.037Z" transform="translate(-991.921 -1389.656)" fill="#dca155"/><path d="M1028.007,1384.7l-2.652.037,1.741-2.005,2.645-.04Z" transform="translate(-1001.474 -1378.724)" fill="#9e4d43"/><path d="M1039.223,1371.844l-2.645.04,1.728-1.99,2.637-.042Z" transform="translate(-1010.956 -1367.873)" fill="#dca155"/><path d="M1050.355,1359.081l-2.637.042,1.716-1.975,2.63-.044Z" transform="translate(-1020.367 -1357.103)" fill="#9e4d43"/></g><path d="M1912.342,1444.266H1884V1442.4h28.342a.931.931,0,0,1,.931.931h0A.931.931,0,0,1,1912.342,1444.266Z" transform="translate(-1716.224 -1378.727)" fill="#90b07a"/><path d="M1712.342,1444.266H1684V1442.4h28.342a.931.931,0,0,1,.931.931h0A.931.931,0,0,1,1712.342,1444.266Z" transform="translate(-1547.255 -1378.727)" fill="#90b07a"/><path d="M1502.342,1444.266H1474V1442.4h28.342a.931.931,0,0,1,.931.931h0A.931.931,0,0,1,1502.342,1444.266Z" transform="translate(-1369.838 -1378.727)" fill="#90b07a"/><path d="M1281.221,1444.266H1249l.465-1.862h31.755a.931.931,0,0,1,.931.931h0A.931.931,0,0,1,1281.221,1444.266Z" transform="translate(-1179.748 -1378.727)" fill="#90b07a"/><path d="M1912.342,1344.266H1884V1342.4h28.342a.931.931,0,0,1,.931.931h0A.931.931,0,0,1,1912.342,1344.266Z" transform="translate(-1716.224 -1294.243)" fill="#90b07a"/><path d="M1712.342,1344.266H1684V1342.4h28.342a.931.931,0,0,1,.931.931h0A.931.931,0,0,1,1712.342,1344.266Z" transform="translate(-1547.255 -1294.243)" fill="#90b07a"/><path d="M1502.342,1344.266H1474V1342.4h28.342a.931.931,0,0,1,.931.931h0A.931.931,0,0,1,1502.342,1344.266Z" transform="translate(-1369.838 -1294.243)" fill="#90b07a"/><path d="M1300.652,1344.266H1272l.465-1.862h28.187a.931.931,0,0,1,.931.931h0A.931.931,0,0,1,1300.652,1344.266Z" transform="translate(-1199.18 -1294.243)" fill="#90b07a"/><path d="M1912.342,1244.266H1884V1242.4h28.342a.931.931,0,0,1,.931.931h0A.931.931,0,0,1,1912.342,1244.266Z" transform="translate(-1716.224 -1209.759)" fill="#90b07a"/><path d="M1712.342,1244.266H1684V1242.4h28.342a.931.931,0,0,1,.931.931h0A.931.931,0,0,1,1712.342,1244.266Z" transform="translate(-1547.255 -1209.759)" fill="#90b07a"/><path d="M1502.342,1244.266H1474V1242.4h28.342a.931.931,0,0,1,.931.931h0A.931.931,0,0,1,1502.342,1244.266Z" transform="translate(-1369.838 -1209.759)" fill="#90b07a"/><path d="M1320.929,1244.266H1296l.466-1.862h24.463a.931.931,0,0,1,.931.931h0A.931.931,0,0,1,1320.929,1244.266Z" transform="translate(-1219.456 -1209.759)" fill="#90b07a"/><path d="M1912.342,1144.266H1884V1142.4h28.342a.931.931,0,0,1,.931.931h0A.931.931,0,0,1,1912.342,1144.266Z" transform="translate(-1716.224 -1125.274)" fill="#90b07a"/><path d="M1712.342,1144.266H1684V1142.4h28.342a.931.931,0,0,1,.931.931h0A.931.931,0,0,1,1712.342,1144.266Z" transform="translate(-1547.255 -1125.274)" fill="#90b07a"/><path d="M1502.342,1144.266H1474V1142.4h28.342a.931.931,0,0,1,.931.931h0A.931.931,0,0,1,1502.342,1144.266Z" transform="translate(-1369.838 -1125.274)" fill="#90b07a"/><path d="M1343.317,1144.266H1322.5l.465-1.862h20.351a.931.931,0,0,1,.931.931h0A.931.931,0,0,1,1343.317,1144.266Z" transform="translate(-1241.844 -1125.274)" fill="#90b07a"/><rect width="3.465" height="5.069" rx="1.733" transform="translate(272.507 54.305)" fill="#dca155"/><rect width="44.53" height="17.662" rx="8.831" transform="translate(159.088 88.207)" fill="#b3d09f"/><path d="M1828,1693.75v.013a3.181,3.181,0,0,0,3.181,3.181h38.168a3.181,3.181,0,0,0,3.181-3.181v-.013Z" transform="translate(-1668.912 -1591.075)" fill="#90b07a"/><path d="M.983,0h0a.983.983,0,0,1,.983.983V14.96a0,0,0,0,1,0,0H0a0,0,0,0,1,0,0V.983A.983.983,0,0,1,.983,0Z" transform="translate(168.578 87.715)" fill="#90b07a"/><path d="M.983,0h0a.983.983,0,0,1,.983.983V14.96a0,0,0,0,1,0,0H0a0,0,0,0,1,0,0V.983A.983.983,0,0,1,.983,0Z" transform="translate(193.403 87.715)" fill="#90b07a"/><path d="M.983,0h0a.983.983,0,0,1,.983.983V14.96a0,0,0,0,1,0,0H0a0,0,0,0,1,0,0V.983A.983.983,0,0,1,.983,0Z" transform="translate(167.957 87.715)" fill="#b3d09f"/><path d="M.983,0h0a.983.983,0,0,1,.983.983V14.96a0,0,0,0,1,0,0H0a0,0,0,0,1,0,0V.983A.983.983,0,0,1,.983,0Z" transform="translate(192.783 87.715)" fill="#b3d09f"/><g transform="translate(161.473 94.407)"><path d="M1846.465,1640.461h-1.021a2.23,2.23,0,0,0,0,4.448h1.021a2.23,2.23,0,0,0,0-4.448Z" transform="translate(-1843.375 -1640.461)" fill="#90b07a"/><path d="M1848.426,1644.03a1.579,1.579,0,1,1-1.526-1.985A1.8,1.8,0,0,1,1848.426,1644.03Z" transform="translate(-1845.064 -1641.799)" fill="#b3d09f"/></g><path d="M2147.563,1737.611H2141.3a2.3,2.3,0,0,1-2.3-2.3h10.861A2.3,2.3,0,0,1,2147.563,1737.611Z" transform="translate(-1931.659 -1626.189)" fill="#90b07a"/></g><g transform="translate(250.722 572.039)"><path d="M591.779,1302.185s4.086,11.943,5.962,14.209,8.463,5.615,8.52,5.914c.136.711-.408,1.822-1.025,1.825a16,16,0,0,1-8.682-3.621c-2.175-2.084-5.617-13.995-5.617-13.995Z" transform="translate(-563.222 -1285.969)" fill="#c28b60"/><g transform="translate(38.587 33.837)"><g transform="translate(23.093 48.602)"><path d="M814,1729h-1.215c-1.628,0-2.948,2.178-2.948,4.865s1.32,4.864,2.948,4.864H814c1.628,0,2.948-2.178,2.948-4.864S815.629,1729,814,1729Z" transform="translate(-809.838 -1729)" fill="#2e3b61"/></g><path d="M692.285,1490.943h-16.32a3.2,3.2,0,0,1-3.19-3.019l-2.937-48.621h28.574l-2.937,48.621A3.2,3.2,0,0,1,692.285,1490.943Z" transform="translate(-668.467 -1435.649)" fill="#93403c"/><path d="M722.285,1490.943h-16.32c-1.7,0-3.19-.255-3.19-3.019l-2.937-48.621h28.574l-2.937,48.621C725.475,1490.943,723.981,1490.943,722.285,1490.943Z" transform="translate(-693.812 -1435.649)" fill="#a04d44"/><path d="M3.645,0H27a3.645,3.645,0,0,1,3.645,3.645v0a0,0,0,0,1,0,0H0a0,0,0,0,1,0,0v0A3.645,3.645,0,0,1,3.645,0Z" fill="#2e3b61"/><path d="M3.645,0H27a3.645,3.645,0,0,1,3.645,3.645v0a0,0,0,0,1,0,0H0a0,0,0,0,1,0,0v0A3.645,3.645,0,0,1,3.645,0Z" transform="translate(5.586)" fill="#384987"/><g transform="translate(1.371 48.602)"><path d="M674,1729h-1.215c-1.628,0-2.948,2.178-2.948,4.865s1.32,4.864,2.948,4.864H674c1.628,0,2.948-2.178,2.948-4.864S675.629,1729,674,1729Z" transform="translate(-669.838 -1729)" fill="#384987"/><path d="M679.224,1740.922c0,1.971-.968,3.569-2.163,3.569s-2.163-1.6-2.163-3.569.968-3.569,2.163-3.569S679.224,1738.951,679.224,1740.922Z" transform="translate(-674.114 -1736.057)" fill="#2e3b61"/></g></g><path d="M559.183,1760.3s-.481,3.907.286,4.086c.3.07,9.128-.019,9.128-.019s0-1.056-1.447-1.29-3.988-1.095-4.418-3.011S559.183,1760.3,559.183,1760.3Z" transform="translate(-536.268 -1672.134)" fill="#2e3b61"/><path d="M541.724,1504.634c0,3.333-3.85,20.925-3.85,20.925s-3.883.7-5.561-.97c0,0,.365-16.319.948-19.789a7.6,7.6,0,0,0-.434-3c-1.438-4.967-5.623-13.392-4.663-18.387,1.2-6.261,9.71.484,9.71.484s.372,1.681.884,4.1C539.895,1493.354,541.724,1502.338,541.724,1504.634Z" transform="translate(-510.068 -1436.827)" fill="#384987"/><path d="M538.758,1487.993l-5.931,13.805c-1.438-4.967-5.623-13.392-4.663-18.387,1.2-6.261,9.71.484,9.71.484S538.246,1485.575,538.758,1487.993Z" transform="translate(-510.068 -1436.827)" fill="#2e3b61"/><path d="M413.637,1739.514s-1.6,1.486-1.29,2.541,1.759,1.759,1.955,3.05.977,1.994,1.681,1.994h3.355s.518-.908-.733-1.182-1.723-1.79-1.645-3.2a25.2,25.2,0,0,0-.117-3.285l-2.659-.625Z" transform="translate(-412.306 -1654.849)" fill="#2e3b61"/><path d="M447.511,1452.382s-10.089,19.456-15.72,29.544-7.39,12.9-7.39,12.9-3.226-1.29-3.519-2.17c0,0,2.895-16.689,7.574-22.583,2.13-2.683,2.033-10.252,2.665-14.484a50.189,50.189,0,0,1,2.312-7.708Z" transform="translate(-419.552 -1409.061)" fill="#384987"/><path d="M583.269,1247.819a8,8,0,0,1,1.43,2.541c-3.5-.242-7.847-5.01-7.847-5.01a8.333,8.333,0,0,0,4.33-3.508q.136-.212.264-.44a10.193,10.193,0,0,0,.734-1.619l1.038,1.82,1.726,3.027a22.259,22.259,0,0,1-1.194,2.368Q583.531,1247.383,583.269,1247.819Z" transform="translate(-551.321 -1233.25)" fill="#d09766"/><path d="M516.9,1280.85a46.885,46.885,0,0,1-1.318,7.137c-.271,1.107-.568,2.257-.88,3.415-.507,1.878-1.035,3.768-1.58,5.547l-.02.063c-.039.181-.1.373-.156.549-.473,1.571-.926,3.024-1.32,4.259-.756,2.361-.761,3.676-1.364,3.942-1.212.536-5.985-.039-8.844-1.279-2.416-1.029-6.1-4.131-6.079-5.692.022-1.81,2.451-7.259,4.061-13.622,1.986-7.772,6.393-13.979,10.067-15.258.274-.089.568.487,1.633,1.51a5.966,5.966,0,0,0,3.4,1.659l.7,1.167A11.543,11.543,0,0,1,516.9,1280.85Z" transform="translate(-482.451 -1258.694)" fill="#92bbc9"/><path d="M573.479,1337.917c-.271,1.107-.568,2.257-.881,3.415-.507,1.878-1.035,3.768-1.58,5.547l-.02.063c-.039.181-.1.373-.156.549-.473,1.571-.926,3.024-1.32,4.259C561.879,1342.041,564.2,1329,564.2,1329Z" transform="translate(-540.352 -1308.624)" fill="#7398a5"/><path d="M608.462,1253.278a22.276,22.276,0,0,1-1.194,2.368,6.883,6.883,0,0,1-2.568-5.156c-.017-.295-.008-.47-.008-.47l.272.031,1.772.2Z" transform="translate(-574.84 -1241.897)" fill="#c28b60"/><path d="M609.316,1219.047s-5.48-1.166-4.7-4.568.6-5.843,4.128-5.242,3.912,2.054,3.928,3.252S610.761,1219.263,609.316,1219.047Z" transform="translate(-574.712 -1207.366)" fill="#d09766"/><path d="M602.058,1205.022a5.72,5.72,0,0,1,6.752-3.111c3.4.788,2.506-2.658,2.306-3.227,0,0-2.638-.5-5.367-.931C600.023,1196.839,601.752,1204.164,602.058,1205.022Z" transform="translate(-572.209 -1197.674)" fill="#384987"/><path d="M515.191,1274.246l-.7-1.167a5.966,5.966,0,0,1-3.4-1.659c-1.065-1.023-1.358-1.6-1.633-1.51-3.675,1.28-8.081,7.486-10.067,15.258-1.61,6.363-4.039,11.812-4.061,13.622-.019,1.562,3.663,4.664,6.079,5.692,2.86,1.24,7.632,1.814,8.844,1.279.6-.267.608-1.581,1.364-3.942.395-1.234.848-2.688,1.32-4.259.055-.176.117-.368.156-.549l.02-.063c.545-1.779,1.073-3.668,1.58-5.547.312-1.158.61-2.307.88-3.415a46.885,46.885,0,0,0,1.318-7.137A11.543,11.543,0,0,0,515.191,1274.246Zm.211,8.307c-1.352,4.36-5.27,7.02-8.75,5.94s-5.205-5.489-3.853-9.85,5.27-7.02,8.75-5.94S516.755,1278.193,515.4,1282.553Z" transform="translate(-482.451 -1258.694)" fill="#dca155"/><path d="M572.073,1396.327l.02-.063c.389-1.269.769-2.594,1.139-3.932l-3.448-4.876a5.73,5.73,0,0,1-4.157.353c-.167-.052-.329-.113-.487-.18.519,4.349,1.95,9.681,5.677,12.812.339-1.073.713-2.279,1.1-3.565C571.973,1396.7,572.034,1396.507,572.073,1396.327Z" transform="translate(-541.427 -1358.009)" fill="#cd8440"/><path d="M674.781,1444.465a8.665,8.665,0,0,0,3.692.3c1.455-.375,3.9.435,4.277.975s.223.742-.5.895-3.279,1.125-4.909.437a13.2,13.2,0,0,0-3.787-.8Z" transform="translate(-633.022 -1406.173)" fill="#d09766"/><path d="M528.783,1388.608q.091-.3.183-.6c.055-.176.117-.368.156-.549l.02-.063c.159-.519.317-1.049.473-1.584a120.217,120.217,0,0,1-14.552-8.854c-.245.892-.5,1.761-.763,2.6C517.114,1381.5,522.92,1385.4,528.783,1388.608Z" transform="translate(-498.475 -1349.138)" fill="#a04d44"/><path d="M570.767,1413.712c1.525.92,3.113,1.843,4.705,2.713l.183-.6c.055-.176.117-.368.156-.549l.02-.063c.159-.519.317-1.049.473-1.584-2.369-1.2-4.648-2.484-6.74-3.745A33.532,33.532,0,0,0,570.767,1413.712Z" transform="translate(-545.165 -1376.956)" fill="#93403c"/><path d="M560.6,1299.947s1.815,18.152,5.955,19.938c2.043.881,11.294,2.36,14,2.65,0,0,.538.378.464-1.822,0,0-9.471-4.106-10.759-6.079-1.917-2.937,1.73-11.613-.712-14.4S562.86,1296.13,560.6,1299.947Z" transform="translate(-537.591 -1282.08)" fill="#d09766"/><path d="M566.586,1301.717s-6.936.037-8.647,1.884l-1.865-10.972,4.858-2.974,4.936,3.192S567.735,1295.04,566.586,1301.717Z" transform="translate(-533.767 -1275.383)" fill="#92bbc9"/></g><g transform="translate(314.574 627.015)"><path d="M842.223,1573.074l-3.928-1.014-6.209,3.294-4.688,8.363,1.9,5.449-3.8,5.448-.127,9.25-1.533,2.275,24.974.005,4.308-7.476.507-11.784-2.914-12.164-5.2-2.408Z" transform="translate(-823.838 -1568.947)" fill="#7b9dec"/><g transform="translate(2.04)"><path d="M918.1,1555.355l-.934-2.99a.528.528,0,0,0-.531-.37,10.535,10.535,0,0,0-2.674.319C913.963,1552.525,918.1,1555.355,918.1,1555.355Z" transform="translate(-902.02 -1551.994)" fill="#5974c6"/><path d="M943.91,1561.105l.135-2.058a.424.424,0,0,1,.536-.381l.844.231a.716.716,0,0,1,.147,1.323Z" transform="translate(-927.32 -1557.618)" fill="#5974c6"/><path d="M935.41,1571.543c.067-.122.134-.242.189-.341a.462.462,0,0,1,.4-.237l1.188-.015a.462.462,0,0,1,.375.185l.185.246a.463.463,0,0,1,.087.351l-.029.18a.462.462,0,0,1-.478.388l-1.531-.073A.462.462,0,0,1,935.41,1571.543Z" transform="translate(-920.09 -1568.009)" fill="#5974c6"/><path d="M877,1593.293l2.48,6.521a.45.45,0,0,0,.829.027l1.01-2.215a.9.9,0,0,0-.255-1.072Z" transform="translate(-870.792 -1586.885)" fill="#5974c6"/><path d="M840.612,1684s3.041,3.7,2.45,4.294-6.072.892-6.072.892Z" transform="translate(-836.989 -1663.517)" fill="#5974c6"/><path d="M954.275,1743.559s-11.3,3.754-10.681,5.106,6.373,2.37,6.373,2.37Z" transform="translate(-927.033 -1713.836)" fill="#5974c6"/><path d="M923.906,1662.36l12.063,1.386a.378.378,0,0,1,.088.73l-6.9,2.555a1.3,1.3,0,0,1-1.324-.257l-4.2-3.816A.346.346,0,0,1,923.906,1662.36Z" transform="translate(-910.094 -1645.234)" fill="#5974c6"/><path d="M915.978,1582.364l-2.837.725a.72.72,0,0,0-.429,1.085l.336.526a.546.546,0,0,0,.875.061Z" transform="translate(-900.867 -1577.652)" fill="#5974c6"/><path d="M943.91,1579.049l2.837-.5a.7.7,0,0,1,.526.121l1.131.817a.243.243,0,0,1-.191.435Z" transform="translate(-927.32 -1574.421)" fill="#5974c6"/></g></g><g transform="translate(424.105 573.291)"><g transform="translate(18.762 40.739)"><path d="M1794.527,1744.733s1.479,1.37,1.19,2.344-1.623,1.623-1.8,2.813-.9,1.84-1.551,1.84h-3.1s-.478-.838.676-1.09,1.589-1.651,1.518-2.95a23.239,23.239,0,0,1,.108-3.03l2.453-.577Z" transform="translate(-1767.684 -1701.295)" fill="#93403c"/><path d="M1659.4,1764.542s.265,3.119-.384,3.444H1650.7s.008-.991,1.342-1.208,3.679-1.01,4.075-2.777S1659.4,1764.542,1659.4,1764.542Z" transform="translate(-1650.697 -1717.56)" fill="#93403c"/><path d="M1661.559,1483.013s.438,5.467.953,12.04c.7,8.928,1.542,19.894,1.625,21.972.144,3.608.722,9.378.722,9.378a4.536,4.536,0,0,0,4.112.793,94.4,94.4,0,0,0,3.141-16.954c.011-.143.022-.287.032-.431.649-8.872,1.659-27.556,1.659-27.556Z" transform="translate(-1659.874 -1480.092)" fill="#d8964f"/><path d="M1661.559,1483.013s.438,5.467.953,12.04l9.6,15.19c.011-.143.022-.287.032-.431.649-8.872,1.659-27.556,1.659-27.556Z" transform="translate(-1659.874 -1480.092)" fill="#cd8440"/><path d="M1674.458,1471.88s7.9,19.8,13.093,29.107,6.817,11.9,6.817,11.9,2.976-1.19,3.246-2c0,0-1.986-17.965-5.464-22.344-1.965-2.475-4.274-9.9-4.382-12.5s-.7-7.736-.7-7.736Z" transform="translate(-1670.771 -1468.309)" fill="#d8964f"/></g><path d="M1695.561,1258.835s-5.344,2.619-8.426,1.647a7.3,7.3,0,0,1,2.086-1.694c-.106-.628-.19-1.173-.237-1.635a15.334,15.334,0,0,1-.13-1.671l2.062-1.647,1.955-1.576A8.047,8.047,0,0,0,1695.561,1258.835Z" transform="translate(-1662.719 -1245.041)" fill="#ebaf7f"/><path d="M1674.351,1315.635c.012.332-.687.711-1,.853a21.572,21.572,0,0,1-6.838,1.967c-2.856.3-6.233-.355-7.395-.332a.479.479,0,0,1-.32-.13c-.083-.059-.142-3.555-.083-7.951,0-.178,0-.356.012-.534v-.059c.023-1.719.083-3.52.166-5.321a60.011,60.011,0,0,1,1-9.883,10.733,10.733,0,0,1,3.342-5.333l1.067-.948a5.052,5.052,0,0,0,3.318-.4c1.232-.6,2.585-1.307,2.8-1.141,1.612,1.2,2.677,3.938,3.257,7.374a38.714,38.714,0,0,1,.486,6.518c0,.853-.024,1.73-.071,2.6a83.134,83.134,0,0,0,.166,11.127C1674.3,1314.723,1674.339,1315.256,1674.351,1315.635Z" transform="translate(-1638.693 -1273.882)" fill="#384987"/><path d="M1688.785,1354.322c-25.893-.035-4.776-19.3-4.776-19.3l4.2-.936a38.672,38.672,0,0,1,.486,6.518c0,.853-.024,1.73-.071,2.6A83.129,83.129,0,0,0,1688.785,1354.322Z" transform="translate(-1653.222 -1314.169)" fill="#2e3b61"/><path d="M1553.818,1314.156l-.083,1.967-.083,1.825-.261,6.233-3.674,6.364s-2.749,2.915-9.824,2.915c-8.817,0-10.12-4.859-10.12-4.859l.107-7.869,3.235-4.633-1.612-4.634,3.982-7.122,5.285-2.8,3.342.865,2.808-.652,4.42,2.05Z" transform="translate(-1529.773 -1286.682)" fill="#7b9dec"/><path d="M1601.586,1287.323l-.795-2.544a.449.449,0,0,0-.452-.315,8.97,8.97,0,0,0-2.275.271C1598.064,1284.914,1601.586,1287.323,1601.586,1287.323Z" transform="translate(-1587.468 -1272.249)" fill="#5974c6"/><path d="M1623.543,1292.215l.115-1.751a.361.361,0,0,1,.456-.325l.719.2a.609.609,0,0,1,.125,1.125Z" transform="translate(-1608.994 -1277.034)" fill="#5974c6"/><path d="M1616.31,1301.1l.161-.29a.394.394,0,0,1,.339-.2l1.011-.013a.392.392,0,0,1,.319.157l.157.209a.393.393,0,0,1,.073.3l-.025.153a.393.393,0,0,1-.407.33l-1.3-.062A.393.393,0,0,1,1616.31,1301.1Z" transform="translate(-1602.842 -1285.874)" fill="#5974c6"/><path d="M1566.613,1319.6l2.11,5.548a.382.382,0,0,0,.705.023l.859-1.885a.763.763,0,0,0-.217-.912Z" transform="translate(-1560.897 -1301.936)" fill="#5974c6"/><path d="M1533.665,1395.337s2.429,3.374,1.926,3.877-5.167.759-5.167.759Z" transform="translate(-1530.323 -1365.92)" fill="#5974c6"/><path d="M1632.362,1447.453s-9.615,3.194-9.087,4.344,5.422,2.016,5.422,2.016Z" transform="translate(-1608.749 -1409.949)" fill="#5974c6"/><path d="M1633.105,1386.72l-.083,1.825-8.935.865a.336.336,0,0,1-.213-.616l5.522-3.508a1.172,1.172,0,0,1,1.2-.024Z" transform="translate(-1609.144 -1357.279)" fill="#5974c6"/><path d="M1599.778,1310.3l-2.414.617a.612.612,0,0,0-.365.923l.286.448a.465.465,0,0,0,.744.052Z" transform="translate(-1586.486 -1294.079)" fill="#5974c6"/><path d="M1623.543,1307.483l2.414-.424a.589.589,0,0,1,.448.1l.963.695a.207.207,0,0,1-.162.37Z" transform="translate(-1608.994 -1291.331)" fill="#5974c6"/><path d="M1617.271,1403.63l-.958-.307a2.022,2.022,0,0,0-2.938-1.226s-.92.488-.515,1.066.332.273.886,1.105a1.806,1.806,0,0,0,2.13.912l.8.023Z" transform="translate(-1599.88 -1371.415)" fill="#9b6f46"/><path d="M1647.986,1294.61a20.176,20.176,0,0,1-.382,20.1c-1.95,3.364-16.677.167-16.677.167s-.574-1.037.963-2.129c0,0,9.805-1.66,10.974-1.938,1.037-.247.345-9.776,1.531-12.542A6.966,6.966,0,0,1,1647.986,1294.61Z" transform="translate(-1615.143 -1280.821)" fill="#384987"/><path d="M1702.263,1262.535a7.117,7.117,0,0,1-3.922,3.2,15.32,15.32,0,0,1-.13-1.671l2.062-1.647Z" transform="translate(-1672.076 -1253.622)" fill="#d79662"/><path d="M1686.734,1226.638s5.1.847,5.577-2.336,1.459-5.218-1.776-5.893-4.051.444-4.47,1.467S1685.42,1226.335,1686.734,1226.638Z" transform="translate(-1661.54 -1216.269)" fill="#ebaf7f"/><path d="M1685.192,1207.5c.047-.054.153-.1.391-.11a.951.951,0,0,0-.444-.127,1.213,1.213,0,0,0-.794-1.074.723.723,0,0,1,.346.522c-.659-.687-2.07-1.187-5.977-.874-5.149.413-3.452,3.761-2.786,4.161s2.345-.7,3.587-.6,1.478,1.923,1.9,2.173.256-.192.826-.454.625.7.46,1.322.619,1.447.619,1.447l.792-.866c.792-.866,1.538-4.533,1.177-5.315Z" transform="translate(-1652.568 -1205.74)" fill="#384987"/></g><path d="M.333,0H399.667A.333.333,0,0,1,400,.333v0a.333.333,0,0,1-.333.333H.333A.333.333,0,0,1,0,.333v0A.333.333,0,0,1,.333,0Z" transform="translate(221.047 664.207)" fill="#2f3550"/></g></svg>