<svg xmlns="http://www.w3.org/2000/svg" xmlns:xlink="http://www.w3.org/1999/xlink" width="404.505" height="415.538" viewBox="0 0 404.505 415.538"><defs><clipPath id="a"><rect width="404.505" height="415.538" fill="none"/></clipPath><clipPath id="c"><rect width="165.037" height="143.057" fill="none"/></clipPath></defs><g clip-path="url(#a)"><g clip-path="url(#a)"><path d="M355.072,323.385a184.245,184.245,0,0,0,44.67-120.536c0-102.157-82.816-184.973-184.973-184.973S29.8,100.692,29.8,202.849a184.245,184.245,0,0,0,44.67,120.536Z" transform="translate(0.632 0.379)" fill="#f5f5f5"/><path d="M142.3,370.894c0,4.752-16.97,8.6-37.9,8.6s-37.9-3.852-37.9-8.6,16.97-8.6,37.9-8.6,37.9,3.852,37.9,8.6" transform="translate(1.411 7.688)" fill="#cfb091"/><path d="M342.31,379.217c-7.9,0-15.421.234-22.279.656,4.785-1.333,7.506-2.863,7.506-4.487,0-5.19-27.721-9.4-61.917-9.4s-61.917,4.207-61.917,9.4,27.721,9.4,61.917,9.4c8.776,0,17.121-.279,24.685-.778-3.754,1.13-5.867,2.4-5.867,3.745,0,4.712,25.909,8.531,57.872,8.531s57.872-3.819,57.872-8.531-25.909-8.531-57.872-8.531" transform="translate(4.323 7.767)" fill="#cfb091"/><path d="M178.109,383.91q-1.717,0-3.41.019c2.2-1.01,3.41-2.1,3.41-3.249,0-5.054-23.447-9.151-52.37-9.151s-52.37,4.1-52.37,9.151c0,5.034,23.261,9.117,52.025,9.15-5.217,1.75-8.22,3.782-8.22,5.952,0,6.556,27.282,11.872,60.935,11.872s60.935-5.315,60.935-11.872-27.282-11.872-60.935-11.872" transform="translate(1.557 7.884)" fill="#cfb091"/><path d="M395.195,370.648c0,1.93-5.6,3.493-12.51,3.493s-12.51-1.563-12.51-3.493,5.6-3.494,12.51-3.494,12.51,1.565,12.51,3.494" transform="translate(7.856 7.792)" fill="#cfb091"/><path d="M362.242,364.627c0,.784-2.514,1.42-5.617,1.42s-5.617-.636-5.617-1.42,2.514-1.421,5.617-1.421,5.617.636,5.617,1.421" transform="translate(7.449 7.708)" fill="#cfb091"/><path d="M194.307,366.952c0,.988-2.768,1.787-6.182,1.787s-6.183-.8-6.183-1.787,2.768-1.787,6.183-1.787,6.182.8,6.182,1.787" transform="translate(3.861 7.749)" fill="#cfb091"/><path d="M215.837,361c0,.745-1.743,1.349-3.894,1.349s-3.893-.6-3.893-1.349,1.743-1.349,3.893-1.349,3.894.6,3.894,1.349" transform="translate(4.415 7.632)" fill="#cfb091"/><path d="M67.762,363.189c-5.985-17.156-12.042-34.459-21.5-49.97S23.531,283.918,6.7,277.063c5.74,21.811,11.388,44.807,26.166,61.845,9.48,10.927,21.978,17.76,34.891,24.281" transform="translate(0.142 5.88)" fill="#8dc63f"/><path d="M61.43,348.622c-3.8-7.1-7.711-14.152-11.875-21.051q-3.462-5.737-7.177-11.315c-5.332-7.965-11.4-15.868-19.857-20.379,3.352,8.855,6.705,17.713,10.426,26.419,2.919,6.829,6.092,13.613,10.483,19.6a75.466,75.466,0,0,0,12.648,13.119c2.351,1.965,4.782,3.833,7.249,5.65.033.025.069.055.1.08q1.99,1.031,4,2.043-1.474-4.22-2.968-8.442-1.506-2.868-3.029-5.725" transform="translate(0.478 6.279)" fill="#7cb332"/><path d="M61.5,357.738c-8.743-7.882-17.57-15.826-27.776-21.691S11.693,326.48,0,327.826c10.052,10.6,20.422,21.907,34.123,26.984,8.787,3.256,18.015,3.245,27.381,2.929" transform="translate(0 6.951)" fill="#8dc63f"/><path d="M53.372,351.43c-4.372-2.851-8.788-5.638-13.3-8.261q-3.753-2.181-7.6-4.193c-5.508-2.865-11.417-5.464-17.625-5.393,4.661,3.986,9.325,7.974,14.149,11.761a63.192,63.192,0,0,0,12.06,7.87,48.894,48.894,0,0,0,11.269,3.514c1.947.384,3.91.687,5.878.953.026,0,.056.009.083.013q1.452-.035,2.907-.084-2.151-1.939-4.315-3.872-1.749-1.16-3.5-2.309" transform="translate(0.315 7.079)" fill="#7cb332"/><path d="M55.626,320.711c-.428-11.763-.87-23.631-3.763-35.041s-8.469-22.479-17.574-29.938c-.616,14.6-1.512,29.913,4.38,43.282,3.779,8.575,10.21,15.194,16.957,21.7" transform="translate(0.718 5.427)" fill="#8dc63f"/><path d="M54.48,310.484c-1-5.123-2.069-10.234-3.328-15.3-.7-2.808-1.451-5.6-2.28-8.376-1.778-5.949-4.025-12-8.4-16.408.383,6.121.766,12.245,1.405,18.345a63.22,63.22,0,0,0,2.744,14.137,48.91,48.91,0,0,0,5.322,10.537c1.08,1.666,2.228,3.286,3.408,4.883.015.02.033.047.048.069q1.036,1.017,2.084,2.028-.106-2.893-.224-5.792c-.256-1.376-.514-2.75-.781-4.123" transform="translate(0.859 5.738)" fill="#7cb332"/><path d="M257.415,339.864c7.029-9.442,14.111-18.975,19-29.685s7.463-22.833,5.029-34.35c-9.616,11-19.9,22.384-23.671,36.5-2.419,9.053-1.545,18.24-.353,27.535" transform="translate(5.438 5.854)" fill="#8dc63f"/><path d="M262.819,331.176c2.43-4.62,4.791-9.277,6.98-14.016,1.213-2.627,2.374-5.279,3.463-7.96,2.336-5.752,4.371-11.878,3.719-18.052-3.532,5.014-7.067,10.029-10.385,15.188a63.189,63.189,0,0,0-6.708,12.743,48.924,48.924,0,0,0-2.443,11.549c-.2,1.975-.32,3.958-.4,5.942,0,.026,0,.057-.006.084q.172,1.441.356,2.887,1.728-2.324,3.451-4.659.991-1.849,1.971-3.7" transform="translate(5.455 6.179)" fill="#7cb332"/><path d="M262.554,316.395c3.565-9.484,7.154-19.057,8.642-29.079s.735-20.666-4.022-29.611c-5.334,11.39-11.129,23.255-10.887,35.83.155,8.065,3.067,15.456,6.266,22.861" transform="translate(5.439 5.469)" fill="#8dc63f"/><path d="M264.978,307.9c.909-4.4,1.753-8.815,2.436-13.256.378-2.462.707-4.933.968-7.409.563-5.315.786-10.868-1.223-15.82-1.727,4.989-3.456,9.98-4.972,15.037a54.393,54.393,0,0,0-2.513,12.138,42.091,42.091,0,0,0,.729,10.136c.305,1.681.679,3.35,1.086,5.009.005.021.01.048.015.07q.484,1.152.981,2.3.878-2.333,1.746-4.675c.252-1.178.5-2.354.747-3.533" transform="translate(5.509 5.76)" fill="#7cb332"/><path d="M262.474,119.671A79.182,79.182,0,0,0,233.862,96.2c-2.166,28.81-3.251,57.8-2.62,86.68,7.754-4.04,15.366-8.519,21.828-14.41s11.826-13.3,13.973-21.77c2.454-9.685.7-20.051-4.569-27.028" transform="translate(4.904 2.041)" fill="#1c75bc"/><path d="M235.3,96.919a8.99,8.99,0,0,0-1.736,3.263c-.007.022-.009.047-.016.069q-.351,4.894-.658,9.792-.13,17.132-.26,34.265c-.044,5.812-.058,11.793,2.085,17.2a30.221,30.221,0,0,0,4.314,7.279c.974,1.259,3.483,5.339,5.523,4.819,1.784-.455,2.39-6.126,2.885-7.757q1.435-4.727,3.176-9.353a15.323,15.323,0,0,0,1.283-4.964,14.665,14.665,0,0,0-1.031-4.882c-3.059-9.18-6.019-18.489-6.914-28.124a110.928,110.928,0,0,1-.028-16.5,78.582,78.582,0,0,0-8.622-5.1" transform="translate(4.936 2.057)" fill="#155f99"/><path d="M91.67,42.055s-9.633-.781-18.441,12.75c22.977-5.234,35.36-.894,35.36-.894S102.069,41.433,91.67,42.055" transform="translate(1.554 0.892)" fill="#808285"/><path d="M151.134,44.5a75.76,75.76,0,0,1-10.119-15.372c4.124-3.63,4.543-10.844,2.9-16.088A18.772,18.772,0,0,0,132.811,1.6a26.327,26.327,0,0,0-16.2-.631c-6.453,1.68-12.653,5.712-15.22,11.866s-.34,14.41,5.752,17.121c-2.99,8.166-7.017,16.231-12.632,22.87,16.073.136,32.151.272,48.218-.193,2.62-.076,5.4-.214,7.569-1.68a4.349,4.349,0,0,0,.832-6.457M132.282,22.355A10.928,10.928,0,0,1,122.093,23.4a8.4,8.4,0,0,1-4.627-4.079,8.359,8.359,0,0,1-.232-5.854,10.236,10.236,0,0,1,3.473-5.008c2.193-1.732,13.258-4.675,15.79,4.351,1,3.554-1.27,7.486-4.216,9.543" transform="translate(2.006 0)" fill="#bcbec0"/><path d="M107.886,52.87a132.187,132.187,0,0,1,8.468-22.855,15.935,15.935,0,0,1-10.986-14.553A15.982,15.982,0,0,1,111.916,2.6c-4.6,2.13-8.591,5.557-10.521,10.186-2.567,6.154-.341,14.411,5.751,17.122-2.989,8.166-7.016,16.23-12.632,22.87q6.686.057,13.372.1" transform="translate(2.006 0.055)" fill="#d1d3d4"/><path d="M33.373,47.064H240.7L267.2,349.282,62.385,373.976Z" transform="translate(0.708 0.999)" fill="#1c75bc"/><path d="M184.558,78.631S203.268,71.7,197.2,47.063H171.273Z" transform="translate(3.635 0.999)" fill="#155f99"/><path d="M33.535,47.064l-7.784,5.671L54.94,370.969l7.607,3.008Z" transform="translate(0.546 0.999)" fill="#519bd6"/><path d="M266.83,349.093,248.566,140.759l-14.6-81.148L50.615,55.993s-1.986,238.666,35.4,314.9Z" transform="translate(1.074 1.188)" fill="#155f99"/><path d="M54.151,61.783,239.06,58.466c6.166,91.068,16.853,181.822,34.527,271.371-61.534,1.883-123.375,10.481-183.842,22.043-16.88-61.31-35.594-235.719-35.594-290.1" transform="translate(1.149 1.241)" fill="#fff"/><path d="M176.515,59.527l7.932,18.848a23.063,23.063,0,0,0,13.719-19.236l-21.651.388" transform="translate(3.746 1.255)" fill="#e6e7e8"/><path d="M110.758,44.548l39.177-1.784a75.791,75.791,0,0,1-6.892-9.932,56.348,56.348,0,0,0-13.126,2.7,101.888,101.888,0,0,0-19.159,9.014" transform="translate(2.35 0.697)" fill="#808285"/><path d="M101.393,78.746l84.862.058c4.468-9.676,2.519-21.3-1.044-31.806a9.162,9.162,0,0,0-7.83-6.21,377.518,377.518,0,0,0-86.1,1.333c9.45,4.975,10.943,23,10.106,36.625" transform="translate(1.937 0.827)" fill="#bcbec0"/><path d="M187.324,54.673l-87.761.245A69.459,69.459,0,0,1,101.415,71.5l86.861-.46a44.261,44.261,0,0,0-.953-16.372" transform="translate(2.113 1.16)" fill="#d1d3d4"/><path d="M139.432,40.882c-5.192.109-10.508.456-15.266,2.538-.851.372-1.819,1.059-1.648,1.972.148.792,1.059,1.15,1.839,1.355,11.953,3.14,24.449,3,36.683,2.094,2.4-.178,14.735.174,14.215-3.1-.7-4.378-11.418-3.852-14.435-4.123a193.932,193.932,0,0,0-21.388-.732" transform="translate(2.6 0.867)" fill="#d1d3d4"/><path d="M119.227,45.4c0,1.269-2.657,2.3-5.935,2.3s-5.936-1.028-5.936-2.3,2.657-2.3,5.936-2.3,5.935,1.028,5.935,2.3" transform="translate(2.278 0.915)" fill="#d1d3d4"/><path d="M228.522,144.954l-33.584,1.7-6.418-40.722,33.582-1.7Zm-30.12-2.563,25.378-1.286L218.639,108.5l-25.377,1.287Z" transform="translate(4.001 2.212)" fill="#bcbec0"/><path d="M238.556,214.51l-33.591,1.547-6.234-40.751,33.591-1.548Zm-30.109-2.7,25.384-1.17-4.991-32.63-25.384,1.17Z" transform="translate(4.217 3.687)" fill="#bcbec0"/><path d="M217.9,285.938,210.952,245.3l33.558-2.14,6.952,40.635Zm-2.159-36.848,5.566,32.536,25.36-1.617L241.1,247.473Z" transform="translate(4.477 5.16)" fill="#bcbec0"/><path d="M73.307,128.547a2.553,2.553,0,0,1-.081-5.105l105.813-3.384a2.553,2.553,0,0,1,.163,5.1L73.391,128.546h-.084" transform="translate(1.502 2.548)" fill="#808285"/><path d="M75.311,139.035a2.553,2.553,0,0,1-.081-5.1l105.813-3.385a2.553,2.553,0,0,1,.163,5.1L75.395,139.034h-.084" transform="translate(1.544 2.77)" fill="#808285"/><path d="M77.313,149.488a2.553,2.553,0,0,1-.081-5.105l52.906-1.691a2.553,2.553,0,1,1,.163,5.1L77.4,149.487h-.084" transform="translate(1.587 3.028)" fill="#808285"/><path d="M71,118.081a2.553,2.553,0,0,1-.081-5.105l52.906-1.692a2.553,2.553,0,1,1,.163,5.1L71.088,118.08H71" transform="translate(1.453 2.362)" fill="#8dc63f"/><path d="M87.321,203.72a2.553,2.553,0,0,1-.237-5.095l105.4-9.951a2.553,2.553,0,1,1,.479,5.083l-105.4,9.952c-.082.008-.162.011-.243.011" transform="translate(1.799 4.004)" fill="#808285"/><path d="M89.971,214.064a2.553,2.553,0,0,1-.237-5.095l105.4-9.951a2.553,2.553,0,1,1,.48,5.083l-105.4,9.952c-.082.007-.162.011-.243.011" transform="translate(1.855 4.223)" fill="#808285"/><path d="M92.622,224.3a2.553,2.553,0,0,1-.237-5.095l52.7-4.976a2.553,2.553,0,0,1,.48,5.084l-52.7,4.976c-.082.007-.162.011-.243.011" transform="translate(1.911 4.546)" fill="#808285"/><path d="M84.374,193.349a2.553,2.553,0,0,1-.237-5.095l52.7-4.975a2.553,2.553,0,1,1,.479,5.083l-52.7,4.976c-.082.007-.163.011-.243.011" transform="translate(1.736 3.889)" fill="#8dc63f"/><path d="M99.567,276.9a2.553,2.553,0,0,1-.278-5.09L204.51,260.143a2.553,2.553,0,0,1,.563,5.074L99.851,276.888a2.419,2.419,0,0,1-.284.016" transform="translate(2.059 5.52)" fill="#808285"/><path d="M102.386,287.2a2.553,2.553,0,0,1-.278-5.09l105.221-11.672a2.553,2.553,0,0,1,.563,5.074L102.67,287.187a2.418,2.418,0,0,1-.284.016" transform="translate(2.119 5.739)" fill="#808285"/><path d="M105.206,297.381a2.553,2.553,0,0,1-.278-5.09l52.61-5.835a2.553,2.553,0,1,1,.562,5.074l-52.61,5.834a2.432,2.432,0,0,1-.284.016" transform="translate(2.178 6.079)" fill="#808285"/><path d="M96.453,266.566a2.553,2.553,0,0,1-.279-5.09l52.61-5.836a2.553,2.553,0,1,1,.564,5.074l-52.61,5.835a2.423,2.423,0,0,1-.285.016" transform="translate(1.993 5.425)" fill="#8dc63f"/><path d="M186.881,110.2c7.3,2.395,14.066,5.636,19.594,11.465,7.172-9.232,13.636-17.591,23.755-24.784a131.187,131.187,0,0,0-22.029,37.91,72.638,72.638,0,0,0-21.32-24.591" transform="translate(3.966 2.056)" fill="#39b54a"/><path d="M197.006,182.961c7.3,2.395,14.066,5.636,19.594,11.465,7.172-9.232,13.636-17.59,23.755-24.784a131.213,131.213,0,0,0-22.03,37.91,72.634,72.634,0,0,0-21.319-24.591" transform="translate(4.181 3.6)" fill="#39b54a"/><path d="M209.562,250.962c7.3,2.4,14.066,5.636,19.594,11.465,7.172-9.232,13.636-17.591,23.755-24.784a131.212,131.212,0,0,0-22.03,37.91,72.624,72.624,0,0,0-21.319-24.591" transform="translate(4.447 5.043)" fill="#39b54a"/><path d="M271.022,357.136,250.6,367.047c-.8.388-1.727.985-1.656,1.871.087,1.075,1.487,1.4,2.564,1.44l28.869,1.031V359.675a47.678,47.678,0,0,1-9.357-2.539" transform="translate(5.283 7.579)" fill="#fff"/><path d="M338.025,375.691c-1.958,3.83-10.95,7.53-16.824,10.38-.689.335-1.489.851-1.428,1.615.074.928,1.283,1.209,2.212,1.243,6,.215,15.563.429,23.542.642a4.956,4.956,0,0,0,4.577-7.144l-4.591-9.974c-2.569-.448-5.077,4.233-7.489,3.239" transform="translate(6.786 7.903)" fill="#fff"/><path d="M336.2,200.812c-10.835,3.722-21.3,3.552-31.26,4.913-1.752,2.448-8.479,12.357-10.232,14.8l28.095,3.527a13.2,13.2,0,0,0,4.567.04,10.147,10.147,0,0,0,5.433-3.907c4.166-5.283,5.282-12.92,3.4-19.377" transform="translate(6.254 4.262)" fill="#092942"/><path d="M286.485,186.691c3.642-5.574,8.666-9.437,13.75-8.676-.415-.062-4.341,9.084-4.947,10.126a67.629,67.629,0,0,1-6.189,8.978,53.4,53.4,0,0,1-6.959,7.084c-.721.6-2.68,2.885-3.3,1.057-.394-1.157,1.269-4.691,1.648-5.756a61.1,61.1,0,0,1,6-12.813" transform="translate(5.916 3.776)" fill="#092942"/><path d="M394.339,135.757,280.263,236.733l-18.1-20.443L376.24,115.313a13.652,13.652,0,1,1,18.1,20.444" transform="translate(5.564 2.374)" fill="#fbb040"/><path d="M262.752,214.121l-28.26,43.253,46.359-22.809Z" transform="translate(4.976 4.544)" fill="#f98c6e"/><rect width="139.402" height="10.978" transform="translate(273.139 224.777) rotate(-41.514)" fill="#9c681c"/><path d="M244.627,241.285,234.491,256.8l16.627-8.18Z" transform="translate(4.976 5.12)" fill="#39b54a"/><path d="M374.111,115.314l-11.6,10.273,18.1,20.443,11.6-10.272a13.652,13.652,0,0,0-18.1-20.444" transform="translate(7.693 2.374)" fill="#f98c6e"/><rect width="10.978" height="27.304" transform="translate(363.891 133.546) rotate(-41.519)" fill="#fff"/><g transform="translate(239.468 118.861)" opacity="0.25"><g clip-path="url(#c)"><path d="M394.926,135.661A13.639,13.639,0,0,0,396.1,116.39L234.491,259.447l46.359-22.809Z" transform="translate(-234.492 -116.391)" fill="#231f20"/></g></g><path d="M328.85,192.73c2.63,4.7,2.838,17.562,1.629,22.807,4.025.677,8.565-5.707,12.59-5.03a33.754,33.754,0,0,1-1.266-14.851c.229-1.639.531-3.483-.466-4.8-1.259-1.673-3.84-1.5-5.79-.738s-4.609,2.778-6.7,2.616" transform="translate(6.979 4.023)" fill="#e67a5c"/><path d="M312.824,264.727s-25.208,23.479-30.655,42.2-13.142,50.38-13.142,50.38l14.051,2.755,14.409-44.625L320.3,291.61s1.057-23.469-7.471-26.883" transform="translate(5.709 5.618)" fill="#092942"/><path d="M312.294,264.727a185.215,185.215,0,0,0-18.28,20.256c1.37,7.186,3.013,14.333,4.627,21.338q.68,2.952,1.4,5.893l19.723-20.605s1.057-23.469-7.471-26.883" transform="translate(6.239 5.618)" fill="#051d2e"/><path d="M338.286,271.225c-1.281,3.407-10.831,7.714-14.478,8.419a9.923,9.923,0,0,1-8.626-3.045c-2.213-2.229-4.4-5.021-4.446-8.124-.629-46.067,7.917-55.764,15.685-63.436,6.79-6.705,15.951-5.491,21.123,2.382,5.722,8.708,2.695,20.462.4,29.8-3.1,12.639-4.492,20.263-9.66,34.006" transform="translate(6.594 4.259)" fill="#0e4066"/><path d="M328.706,254a74.355,74.355,0,0,0,13.911-42.664c-2.978,8.072-7.782,14.658-13.71,20.894a14.738,14.738,0,0,1-2.993,2.576c-3.225,1.937-7.321,1.477-10.977.589-.806-.2-1.619-.408-2.43-.617-.656,4.259-1.155,9.175-1.462,14.873A109.588,109.588,0,0,0,328.706,254" transform="translate(6.601 4.485)" fill="#092942"/><path d="M333.415,295.768c3.381-10.383,5.835-16.068,5.458-27.353-17.47,5.318-28.114-3.688-28.114-3.688-2.737,24.948-3.379,38.328-.009,63.21,1.979,14.61,16.733,35.818,25.047,48.378,3.583-.9,5.225-1.627,8.808-2.525-3.087-11.6-8.742-32.533-14.883-43.043,1.446-13.039-.44-22.289,3.693-34.979" transform="translate(6.546 5.618)" fill="#092942"/><path d="M297.264,179.513c2.834-2.34,8.194-3.593,11.57-2.142.868.374,1.761,1.049,1.8,1.993.048,1.211-1.277,1.964-2.422,2.358a30.377,30.377,0,0,1-11.114,1.622c-1.193-.342-2.665-1.492.169-3.832" transform="translate(6.274 3.751)" fill="#f98c6e"/><path d="M322.036,235.468a7.792,7.792,0,0,0,3.3-.258c1.6-.611,2.6-2.179,3.412-3.688a51.368,51.368,0,0,0,5.44-16.033c.552-3.4-.274-7.274-2.87-9.533a32.289,32.289,0,0,0-11.842,21.288c-1.766-.05-3.628-.083-5.475-.118-.567,2.312-1.079,4.861-1.521,7.716l9.552.626" transform="translate(6.631 4.371)" fill="#092942"/><path d="M285.69,224.4a7.534,7.534,0,0,0-3.508-2.971c-1.489-.465-3.434.235-3.766,1.759-.474,2.178,2.434,4.236,1.559,6.287-.251.589-.778,1.018-1.072,1.586a3.063,3.063,0,0,0,.709,3.375,8.394,8.394,0,0,0,3.151,1.838,12.508,12.508,0,0,0,4.99,1.149,3.936,3.936,0,0,0,2.843-1.162c1.362-1.56-.192-3.9-.933-5.392a42.014,42.014,0,0,0-3.972-6.468" transform="translate(5.907 4.696)" fill="#f98c6e"/><path d="M321.341,231.652c3.118-12.6,2.73-15.66,7.187-23.946a13.84,13.84,0,0,1,7.149-5.822c2.879-1.166,6.434-1.054,8.822.931a8.944,8.944,0,0,1,2.909,6.442,21.56,21.56,0,0,1-1.129,7.149c-4.755,16.195-7.233,18.511-17.129,32.184-13.492-1.262-31.312-4.06-40.88-9.106-1.943-1.024-2.069-4.326-.9-6.19,1.259-2.016,4.16-2.056,6.5-1.619,7.507,1.4,16.007.193,27.478-.023" transform="translate(6.082 4.268)" fill="#0e4066"/><path d="M268.409,352.415l16.553,4.468-1.786,5.617-16.2-4.3Z" transform="translate(5.666 7.479)" fill="#0e4066"/><path d="M344.758,367.154,332.8,372.612l2.608,5.361,11.574-5.361Z" transform="translate(7.063 7.792)" fill="#0e4066"/><path d="M280.378,371.167v-3.161l-30.954-.406a1.373,1.373,0,0,0-.478,1.1c.086,1.075,1.486,1.4,2.563,1.44l28.869,1.031" transform="translate(5.283 7.801)" fill="#808285"/><path d="M320.733,386.052c-.535.326-1.007.767-.959,1.359.075.928,1.283,1.209,2.212,1.243,6,.215,15.563.428,23.542.642a4.949,4.949,0,0,0,5-3.987q-14.891.539-29.791.742" transform="translate(6.786 8.177)" fill="#808285"/><path d="M318.355,188.14c-.412,3.281.012,8.361,2.209,10.832a8.105,8.105,0,0,0,7.428,2.193,17.739,17.739,0,0,0,7.219-3.494A45.561,45.561,0,0,0,345,187.882c2.557-3.49,4.68-7.9,3.4-12.028-.94-3.027-3.563-5.265-6.4-6.678a16.342,16.342,0,0,0-11.237-1.473c-9.434,2.454-11.385,12.347-12.4,20.436" transform="translate(6.753 3.55)" fill="#f98c6e"/><path d="M342.743,186.984a10.8,10.8,0,0,0-8.831-13.037c-2.612-.418-5.268.134-7.888.5s-5.4.531-7.8-.586a9.609,9.609,0,0,1-4.611-5.043,16.659,16.659,0,0,1-1.123-6.846,13.658,13.658,0,0,1,.84-4.815,6.991,6.991,0,0,1,3.128-3.657,5.559,5.559,0,0,1,7.831,6.71,16.434,16.434,0,0,1,7.454-5.817c1.806-.737,4.118-1.051,5.5.321a3.943,3.943,0,0,1,.925,3.452,10.116,10.116,0,0,1-1.445,3.4,12.48,12.48,0,0,1,10.8-3.454,2.122,2.122,0,0,1,1.2.507,2.087,2.087,0,0,1,.132,2.154,8.991,8.991,0,0,1-4.166,4.783c2.905,1.134,5.98,2.4,7.771,4.949a10.635,10.635,0,0,1,1.616,6.967,14.771,14.771,0,0,1-6.715,11.234,4.4,4.4,0,0,1-2.919.837,2.371,2.371,0,0,1-1.7-2.561" transform="translate(6.631 3.245)" fill="#092942"/><path d="M344.056,184.32a2.829,2.829,0,0,1,2.026-.315,2.139,2.139,0,0,1,1.345,1.782,4.515,4.515,0,0,1-.415,2.292,10.642,10.642,0,0,1-5.362,5.562,1.677,1.677,0,0,1-1.55.116c-1.276-.8-.849-4.225-.327-5.448a9.042,9.042,0,0,1,4.283-3.988" transform="translate(7.2 3.903)" fill="#f98c6e"/><path d="M331.645,182.152c-.592,1.488-1.726,2.434-2.532,2.113s-.979-1.787-.387-3.275,1.726-2.434,2.532-2.113.979,1.787.387,3.275" transform="translate(6.969 3.795)" fill="#092942"/><path d="M323.364,182.152c-.593,1.488-1.727,2.434-2.533,2.113s-.979-1.787-.386-3.275,1.725-2.434,2.531-2.113.979,1.787.388,3.275" transform="translate(6.793 3.795)" fill="#092942"/><path d="M322.185,187.2a4.545,4.545,0,0,0-.994.388.94.94,0,0,0-.483.887,1.085,1.085,0,0,0,.734.735,3.067,3.067,0,0,0,3.24-.759,3.75,3.75,0,0,0,.911-3.271c-.063-.333-.315-1.022-.765-.766-.305.174-.405.881-.584,1.175a3.9,3.9,0,0,1-2.06,1.609" transform="translate(6.806 3.912)" fill="#d1684b"/><path d="M327.686,193.3a4.19,4.19,0,0,1-.938-.105.51.51,0,1,1,.228-.995,3.3,3.3,0,0,0,3.983-2.643.511.511,0,0,1,1.006.178,4.309,4.309,0,0,1-4.278,3.565" transform="translate(6.926 4.014)" fill="#d1684b"/><path d="M268.905,112.787a30.024,30.024,0,0,1-10.589,6.9c-8.2,12.874-1.813,14.493,4.851,10.831q3.966-2.18,7.93-4.365a2.031,2.031,0,0,0,1.022-3.11c-1.113-3.2-.688-8-3.214-10.252" transform="translate(5.4 2.394)" fill="#e67a5c"/><path d="M238.253,216.439a56.447,56.447,0,0,0-4.419,7.321,2.384,2.384,0,0,0-.36,1.724,1.63,1.63,0,0,0,1.261,1.013,4.811,4.811,0,0,0,1.687-.05c-.8,2.827-1.808,7.4-1.694,8.063a1.566,1.566,0,0,0,1.287,1.361c.813.058,3.015-3.053,4.8-6.156a19.456,19.456,0,0,0,3.754-1.878,6.409,6.409,0,0,0,2.564-3.179,6.959,6.959,0,0,0-1.261-5.914,8.5,8.5,0,0,0-2.759-2.652c-1.121-.633-3.6.069-4.861.347" transform="translate(4.953 4.58)" fill="#f98c6e"/><path d="M267.913,134.795c1.8,29.488-7.962,61.753-21.328,88.309a21.857,21.857,0,0,1-9.914-1.023c1.657-23.152,6.248-46.019,12.243-68.443,1.018-3.807,2.143-7.731,4.676-10.747s10.69-9.622,14.323-8.1" transform="translate(5.022 2.856)" fill="#1c75bc"/><path d="M281.864,133.8c-2.8,2.09-7.767,4.426-11.372,3.872a8.869,8.869,0,0,1-6.467-5.137,16.287,16.287,0,0,1-1.065-7.976,41.668,41.668,0,0,1,3.248-13.492c1.713-4.02,4.536-8.159,9.136-9.262,3.371-.809,7.014.229,10.017,1.886,3.658,2.02,6.745,5.066,8.072,8.75,3.353,9.3-4.666,16.206-11.568,21.359" transform="translate(5.579 2.154)" fill="#f98c6e"/><path d="M266.034,111.533c5.555,1.6,9.861.763,12.644-4.607,1.377,6.333,13.367,27.889,24.961,17.568-5.689-2.937-5.359-8.905-7.264-14.71a14.645,14.645,0,0,0-3.776-6.338,9.191,9.191,0,0,0-7.213-2.5,27.518,27.518,0,0,0,4.4-2.048c.469-.271.975-.625,1.007-1.131.047-.732-.9-1.175-1.7-1.292a7.672,7.672,0,0,0-5.74,1.469,8.757,8.757,0,0,0-4.02-5.172,3.859,3.859,0,0,0-1.62-.6,1.689,1.689,0,0,0-1.526.6,1.862,1.862,0,0,0-.17,1.355,8.851,8.851,0,0,0,2.4,4.726c-3.832-.6-7.671,1.4-10.025,4.174s-3.514,6.212-4.63,9.57c.541-.171,1.735-.9,2.276-1.068" transform="translate(5.597 1.956)" fill="#092942"/><path d="M269.5,109.658a2.758,2.758,0,0,0-.916-1.886,2.573,2.573,0,0,0-2.457-.2,4.749,4.749,0,0,0-1.879,1.568,9.8,9.8,0,0,0-1.963,7.5,1.67,1.67,0,0,0,.817,1.377c1.507.656,4.428-1.522,5.252-2.613a8.28,8.28,0,0,0,1.146-5.748" transform="translate(5.564 2.278)" fill="#f98c6e"/><path d="M278.817,118.96c-1.027,1.292-1.229,2.755-.45,3.269s2.243-.118,3.27-1.41,1.23-2.755.451-3.268-2.244.117-3.271,1.409" transform="translate(5.897 2.491)" fill="#092942"/><path d="M283.759,125.984c-1.027,1.292-1.229,2.755-.45,3.269s2.243-.118,3.27-1.41,1.23-2.754.451-3.268-2.244.117-3.271,1.409" transform="translate(6.002 2.64)" fill="#092942"/><path d="M279.786,129.686a4.182,4.182,0,0,1,.233,1.049.914.914,0,0,1-.536.88,1.294,1.294,0,0,1-1.12-.233,2.95,2.95,0,0,1-1.229-3.15,3.836,3.836,0,0,1,2.492-2.508c.346-.123,1.137-.276,1.167.243.021.351-.575.811-.742,1.119a3.547,3.547,0,0,0-.264,2.6" transform="translate(5.879 2.665)" fill="#d1684b"/><path d="M270.819,128.275a4.379,4.379,0,0,0,.657.74.6.6,0,0,0,.8,0,.474.474,0,0,0-.008-.722,3.248,3.248,0,0,1-1.093-2.417,3.185,3.185,0,0,1,1.169-2.363.475.475,0,0,0,.032-.721.607.607,0,0,0-.8-.038,4.008,4.008,0,0,0-.757,5.52" transform="translate(5.731 2.602)" fill="#d1684b"/><path d="M162.946,328.049a24.188,24.188,0,0,1,6.945-.271,8.157,8.157,0,0,1,5.8,3.47c1.481,2.422,1.081,5.53.324,8.265C174.56,344.76,172,349.621,169.4,354.4c-6.089,11.2-12.5,22.221-18.9,33.241-1.939.006-4.233.238-6.072-.379a6.049,6.049,0,0,1-4.058-3.84,8.961,8.961,0,0,1,.161-4.061q3.5-17.936,7.009-35.875c.754-3.857,1.576-7.872,3.991-10.973s7.966-6.341,11.42-4.467" transform="translate(2.975 6.95)" fill="#092942"/><path d="M170.853,351.375a11.72,11.72,0,0,1-.653-1.087,39.451,39.451,0,0,1-4.243-15.1,38.128,38.128,0,0,1,.2-7.523c-1.129.076-2.26.227-3.381.379a4.593,4.593,0,0,0-1.637-.5q-2.878.754-5.748,1.541a14.536,14.536,0,0,0-4.034,3.425,19.485,19.485,0,0,0-3.275,7.6c1.426,1.942,2.766,3.967,4.154,5.924a95.121,95.121,0,0,0,13.3,15.057c1.241-2.227,2.48-4.456,3.7-6.7q.82-1.506,1.621-3.027" transform="translate(3.143 6.951)" fill="#051d2e"/><path d="M163.252,357.892a71.664,71.664,0,0,0-6.79-9.691c-2.255-2.564-5.567-4.969-8.823-3.944-.152.048-.291.119-.436.181l-3.364,17.219a9.2,9.2,0,0,1,1.645.547,17.046,17.046,0,0,1,7.781,8.894,31.87,31.87,0,0,1,1.987,7.87q5.084-8.782,10.049-17.631c-.65-1.17-1.349-2.317-2.049-3.444" transform="translate(3.052 7.3)" fill="#051d2e"/><path d="M93.729,287.546a259.423,259.423,0,0,0,49.257,43.876c-1.713,2.193-3.669,4.576-6.429,4.923-2.263.285-4.428-.879-6.412-2-9.059-5.141-18.247-10.379-25.542-17.814a39.335,39.335,0,0,1-10.874-28.98" transform="translate(1.988 6.102)" fill="#8dc63f"/><path d="M93.729,287.546a39.336,39.336,0,0,0,10.874,28.98,66.413,66.413,0,0,0,7.5,6.493c.053-1.971.075-3.943.043-5.915-.059-3.671-.261-7.36-.611-11.03q-9.353-8.82-17.811-18.528" transform="translate(1.988 6.102)" fill="#7cb332"/><path d="M77.547,282.988q-7.549,2.84-14.86,6.074c-1.818.8-3.716,1.7-4.684,3.223-1.293,2.031-.579,4.57.174,6.849q9.407,28.486,21.077,56.47c.489,1.173,7.058,17.488,8.315,17.679,6.787,1.03,8.2-14.179,15-14.677a11.243,11.243,0,0,0,5.249-1.3c1.846-1.2,2.49-3.267,2.973-5.2,2.185-8.764-6.012-53-11.563-61.367s-11.583-11.545-21.678-7.747" transform="translate(1.216 5.972)" fill="#8dc63f"/><path d="M107.726,338.091a8.811,8.811,0,0,0,2.684.538c-.414-3.912-1.032-8.318-1.8-12.864a58.8,58.8,0,0,1-13.151-3.5,71.591,71.591,0,0,1-7.389-3.4c-8.148-4.316-15.485-10.009-22.475-16.021,2.7,4.995,5.439,10.042,9.242,14.257a63.386,63.386,0,0,0,11.785,9.632c6.632,4.5,13.531,8.741,21.1,11.362" transform="translate(1.392 6.427)" fill="#7cb332"/><path d="M81.734,274.242a31.078,31.078,0,0,0-.418,11.848,3.061,3.061,0,0,1-3.25,3.555,30.187,30.187,0,0,1-4.677-.7,3.66,3.66,0,0,1-1.676-.727,3.867,3.867,0,0,1-.942-2.313q-.956-5.714-1.911-11.427a4.81,4.81,0,0,1,.208-3.215c.748-1.284,2.454-1.576,3.941-1.625a10.588,10.588,0,0,1,4.75.7c1.471.67,4.338,2.326,3.974,3.9" transform="translate(1.458 5.722)" fill="#e67a5c"/><path d="M92.886,264.984c.952,3.362,1.357,8.837-.447,12.005a8.872,8.872,0,0,1-7.109,4.2,16.28,16.28,0,0,1-7.831-1.857,41.663,41.663,0,0,1-11.44-7.855c-3.142-3.036-6-7.153-5.384-11.843.448-3.437,2.719-6.468,5.341-8.681a17.148,17.148,0,0,1,11.056-4.412c9.887.194,13.468,10.151,15.814,18.438" transform="translate(1.286 5.232)" fill="#f98c6e"/><path d="M78.012,262.1c.839,1.422,2.133,2.133,2.891,1.589s.692-2.136-.147-3.558-2.133-2.133-2.891-1.589-.692,2.136.147,3.558" transform="translate(1.641 5.483)" fill="#092942"/><path d="M86.338,259.995c.839,1.422,2.133,2.133,2.891,1.589s.692-2.136-.147-3.558-2.133-2.133-2.891-1.589-.692,2.136.147,3.558" transform="translate(1.818 5.438)" fill="#092942"/><path d="M88.377,265.014a4.181,4.181,0,0,1,1.063.157.912.912,0,0,1,.63.815,1.294,1.294,0,0,1-.618.963,2.946,2.946,0,0,1-3.381.021,3.835,3.835,0,0,1-1.452-3.223c.009-.368.149-1.16.644-1,.335.106.551.828.779,1.094a3.551,3.551,0,0,0,2.334,1.176" transform="translate(1.796 5.575)" fill="#d1684b"/><path d="M83.864,272.86a4.4,4.4,0,0,0,.926-.349.6.6,0,0,0,.286-.743.474.474,0,0,0-.677-.25,3.247,3.247,0,0,1-2.649.157,3.19,3.19,0,0,1-1.789-1.937.474.474,0,0,0-.662-.287.605.605,0,0,0-.32.73,4.008,4.008,0,0,0,4.884,2.68" transform="translate(1.675 5.717)" fill="#d1684b"/><path d="M67.052,272.571a12.468,12.468,0,0,0,.625-14.922,81.49,81.49,0,0,0,17.112-4.376c2.408-.894,4.964-2.068,6.13-4.356a8.25,8.25,0,0,0,.37-5.577c-1.3-5.605-5.547-10.04-10.047-13.625l2.374,7.1a26.8,26.8,0,0,0-7.78-5.755,57.648,57.648,0,0,1,3.818,9.994c-5.512-.485-11.326.076-16.181,2.73s-8.629,7.7-8.709,13.229a15.3,15.3,0,0,0,3.456,9.542c2.138,2.707,5.743,4.481,8.832,6.018" transform="translate(1.162 4.875)" fill="#092942"/><path d="M65.982,267.524a2.757,2.757,0,0,0-2.089.182,2.572,2.572,0,0,0-1.06,2.224,4.753,4.753,0,0,0,.792,2.315,9.8,9.8,0,0,0,6.3,4.514,1.669,1.669,0,0,0,1.578-.272c1.151-1.172.161-4.678-.564-5.839a8.284,8.284,0,0,0-4.959-3.124" transform="translate(1.333 5.675)" fill="#f98c6e"/><path d="M66.405,322.421a125.721,125.721,0,0,0,23.322,15.442,78.953,78.953,0,0,0,21.289,7.123c-.119-2.789-.432-6.141-.895-9.806-3.281-1.171-6.53-2.433-9.725-3.819A164.474,164.474,0,0,1,61,307.181q2.621,7.638,5.407,15.24" transform="translate(1.294 6.519)" fill="#7cb332"/><path d="M73.006,301.139c2.167,9,9.872,16.5,19.044,21.311s19.751,7.254,30.27,9.2a7.079,7.079,0,0,1,1.239,2.759,2.664,2.664,0,0,1-1.05,2.838,5.516,5.516,0,0,1-2.9.6,71.624,71.624,0,0,1-37.739-9.885c-10.934-6.587-19.327-16.19-23.656-27a12.5,12.5,0,0,1-1.151-5.006,5.528,5.528,0,0,1,2.431-4.5c2.641-1.707,6.657-.817,8.987,1.193s3.855,5.73,4.522,8.5" transform="translate(1.211 6.166)" fill="#8dc63f"/><path d="M172.3,318.857c.439,1.913.379,7.351.756,9.791-18.622,6.743-37.972,9.376-57.873,14.947l-9.439,2.643a4.76,4.76,0,0,1-3.456.076c-1.047-.55-1.35-2.371-.255-2.818,20.212-8.245,39.62-18.6,60.364-25.4a16.7,16.7,0,0,1,4.8-1.051c1.645-.034,4.731.213,5.1,1.818" transform="translate(2.151 6.728)" fill="#92c6f0"/><path d="M124.826,297.682l48.218-7.1a3.559,3.559,0,0,1,4.026,4.155,308.131,308.131,0,0,0-4.4,34.471c-17.067,2.275-33.406,4.318-53.139,7.315,1.31-13.316,1.936-23.893,2.251-35.4a3.57,3.57,0,0,1,3.044-3.439" transform="translate(2.537 6.166)" fill="#92c6f0"/><path d="M155.49,314.136c-.577,3.311-3.3,5.6-6.075,5.117s-4.563-3.56-3.986-6.871,3.3-5.6,6.075-5.117,4.563,3.56,3.986,6.871" transform="translate(3.084 6.519)" fill="#a6d7ff"/><path d="M92.414,377.563c5.87,2.114,12.963,1.549,18.894-.386,13.7-4.47,24.607-14.723,35.027-24.676,7.209,10.415,15.979,20.418,23.189,30.834,1.543,2.23,3.237,4.582,5.77,5.554s9.088-6.88,8.773-8.961a18.638,18.638,0,0,0-2.29-5.851,331.859,331.859,0,0,0-20.138-32.463c-2.742-3.959-5.863-8.124-10.461-9.555-4.793-1.49-9.911.374-14.608,2.141-15.123,5.689-27.352,7.515-44.156,12.761-19.233,6.006-9.5,27.18,0,30.6" transform="translate(1.726 7.035)" fill="#092942"/><path d="M202.161,384.024c.663.13,1.452.375,1.606,1.033.185.79-.7,1.383-1.446,1.7-7.536,3.148-15.737,4.269-23.83,5.363a5.456,5.456,0,0,1-3.014-.164,4.928,4.928,0,0,1-2.168-2.731,6.513,6.513,0,0,1-.681-3.556,5.8,5.8,0,0,1,3.18-3.81c1.161-.644,3.069-1.87,4.408-1.919,1.464-.054,3.27.619,4.721.877q5.561.988,11.109,2.037,3.059.577,6.115,1.174" transform="translate(3.662 8.063)" fill="#fff"/><path d="M137.772,387.459a5.07,5.07,0,0,0-.122,3.386,3.7,3.7,0,0,0,2.27,1.91,10.586,10.586,0,0,0,3.017.412c5.452.2,10.911.183,16.366.166a28.4,28.4,0,0,0,4.574-.259c.846-.14,1.885-.631,1.78-1.482-.074-.6-.7-.953-1.256-1.2q-6.156-2.777-12.455-5.219-3.2-1.239-6.426-2.388c-1.213-.432-3.526-1.757-4.857-1.212-1.652.674-2.443,4.358-2.892,5.888" transform="translate(2.916 8.095)" fill="#fff"/></g></g></svg>