<svg xmlns="http://www.w3.org/2000/svg" xmlns:xlink="http://www.w3.org/1999/xlink" width="400" height="313.95" viewBox="0 0 400 313.95"><defs><linearGradient id="a" x1="0.443" y1="-0.08" x2="0.443" y2="0.935" gradientUnits="objectBoundingBox"><stop offset="0.366" stop-color="#9dcd95"/><stop offset="0.989" stop-color="#488067"/></linearGradient><linearGradient id="b" y1="0.5" x2="1" y2="0.5" gradientUnits="objectBoundingBox"><stop offset="0" stop-color="#df922f"/><stop offset="1" stop-color="#df922f" stop-opacity="0"/></linearGradient></defs><g transform="translate(-105.606 -37)"><g transform="translate(105.606 37)"><path d="M118.114,321.613s-27.532-37.323,13.139-71.34c16.344-13.67,79.917-23.3,26.467-99.553-31.427-44.837,14.224-110.144,87.086-68.676C306.816,117.336,349.943,42.187,404.846,37.2c41.762-3.795,66.878,47.7,41.684,87.746-28.269,44.928,25.629,37.382,37.347,52.255,20.632,26.186-46.319,57.264-15.608,90.526,31.276,33.874,9.827,53.889,9.827,53.889Z" transform="translate(-106.6 -37)" fill="#c8e5fd" opacity="0.6"/><path d="M428.312,439.715H106.755a1.149,1.149,0,0,1-1.149-1.15h0a1.15,1.15,0,0,1,1.149-1.149H428.312a1.15,1.15,0,0,1,1.149,1.149h0A1.149,1.149,0,0,1,428.312,439.715Z" transform="translate(-105.606 -154.04)" fill="#a4cfdf"/><path d="M614.955,439.715H566.543a1.149,1.149,0,0,1-1.149-1.15h0a1.15,1.15,0,0,1,1.149-1.149h48.412a1.15,1.15,0,0,1,1.149,1.149h0A1.15,1.15,0,0,1,614.955,439.715Z" transform="translate(-240.001 -154.04)" fill="#a4cfdf"/><path d="M319.5,448.37H181.638a1.149,1.149,0,0,1-1.149-1.149h0a1.149,1.149,0,0,1,1.149-1.149H319.5a1.149,1.149,0,0,1,1.149,1.149h0A1.149,1.149,0,0,1,319.5,448.37Z" transform="translate(-127.494 -156.57)" fill="#a4cfdf" opacity="0.5"/><path d="M476.424,448.37h-92.2a1.149,1.149,0,0,1-1.149-1.149h0a1.149,1.149,0,0,1,1.149-1.149h92.2a1.149,1.149,0,0,1,1.149,1.149h0A1.149,1.149,0,0,1,476.424,448.37Z" transform="translate(-186.708 -156.57)" fill="#a4cfdf" opacity="0.5"/><path d="M423.228,457.483H258a1.149,1.149,0,0,1-1.149-1.149h0A1.149,1.149,0,0,1,258,455.184H423.228a1.149,1.149,0,0,1,1.149,1.149h0A1.149,1.149,0,0,1,423.228,457.483Z" transform="translate(-149.814 -159.234)" fill="#a4cfdf" opacity="0.25"/><path d="M537.557,457.483H500.088a1.149,1.149,0,0,1-1.149-1.149h0a1.149,1.149,0,0,1,1.149-1.149h37.469a1.149,1.149,0,0,1,1.149,1.149h0A1.149,1.149,0,0,1,537.557,457.483Z" transform="translate(-220.576 -159.234)" fill="#a4cfdf" opacity="0.25"/></g><g transform="translate(124.827 45.728)"><g transform="translate(239.314 48.793)"><path d="M536.506,155.434v-8.728h-3.726a29.216,29.216,0,0,0-5.43-13.1l2.638-2.638-6.171-6.171-2.638,2.638a29.24,29.24,0,0,0-13.1-5.429v-3.727H499.35V122a29.225,29.225,0,0,0-13.1,5.429l-2.637-2.637-6.171,6.171,2.637,2.637a29.225,29.225,0,0,0-5.43,13.1h-3.726v8.728h3.727a29.242,29.242,0,0,0,5.429,13.1l-2.638,2.638,6.171,6.171,2.638-2.638a29.216,29.216,0,0,0,13.1,5.43v3.726h8.728v-3.727a29.249,29.249,0,0,0,13.1-5.43l2.638,2.638,6.171-6.171-2.638-2.638a29.239,29.239,0,0,0,5.429-13.1ZM525.7,148.88a22.092,22.092,0,1,1-19.124-19.717A22.1,22.1,0,0,1,525.7,148.88Z" transform="translate(-470.922 -118.278)" fill="#335a9d"/><circle cx="15.302" cy="15.302" r="15.302" transform="translate(11.151 32.792) rotate(-45)" fill="#335a9d"/></g><g transform="translate(297.854 42.151)"><path d="M580.449,124.08v-3.568h-1.524a11.934,11.934,0,0,0-2.219-5.354l1.078-1.079-2.523-2.522-1.078,1.078a11.962,11.962,0,0,0-5.355-2.219v-1.524h-3.567v1.523a11.936,11.936,0,0,0-5.354,2.219l-1.078-1.078-2.523,2.522,1.078,1.078a11.956,11.956,0,0,0-2.219,5.355h-1.523v3.568h1.524a11.95,11.95,0,0,0,2.219,5.354l-1.078,1.079,2.523,2.522,1.078-1.078a11.936,11.936,0,0,0,5.354,2.219V135.7h3.567v-1.523a11.95,11.95,0,0,0,5.354-2.22l1.078,1.079,2.523-2.522-1.078-1.079a11.954,11.954,0,0,0,2.219-5.354Zm-4.418-2.679a9.03,9.03,0,1,1-7.817-8.06A9.035,9.035,0,0,1,576.031,121.4Z" transform="translate(-553.641 -108.893)" fill="#fff"/><path d="M576.252,125.249A6.255,6.255,0,1,1,570,118.994,6.255,6.255,0,0,1,576.252,125.249Z" transform="translate(-556.594 -111.845)" fill="#fff"/></g><g transform="translate(27.22 215.924)" opacity="0.5"><path d="M202.773,361.414a17.512,17.512,0,0,0-14.015-6.977,17.557,17.557,0,0,0,.028,35.115A17.529,17.529,0,0,0,203.205,382l-14.419-10Z" transform="translate(-171.229 -354.438)" fill="#fff"/><g transform="translate(21.676 6.977)"><path d="M215.846,364.3l-13.988,10.581,14.419,10a17.488,17.488,0,0,0-.431-20.584Z" transform="translate(-201.858 -364.296)" fill="#fff"/></g></g><g transform="translate(28.944 46.493)" opacity="0.7"><path d="M197.9,163.5a24.235,24.235,0,1,1,24.235-24.235A24.262,24.262,0,0,1,197.9,163.5Zm0-44.729a20.494,20.494,0,1,0,20.5,20.494A20.518,20.518,0,0,0,197.9,118.769Z" transform="translate(-173.665 -115.029)" fill="#bbe0f7"/><path d="M228.841,148.766h0a1.231,1.231,0,0,1,1.227-1.227h2.1a1.23,1.23,0,0,1,1.227,1.227h0a1.231,1.231,0,0,1-1.227,1.227h-2.1A1.231,1.231,0,0,1,228.841,148.766Z" transform="translate(-189.793 -124.532)" fill="#bbe0f7"/><path d="M180.536,148.766h0a1.23,1.23,0,0,1,1.227-1.227h2.1a1.231,1.231,0,0,1,1.227,1.227h0a1.231,1.231,0,0,1-1.227,1.227h-2.1A1.23,1.23,0,0,1,180.536,148.766Z" transform="translate(-175.673 -124.532)" fill="#bbe0f7"/><path d="M207.4,170.205h0a1.231,1.231,0,0,1,1.227,1.227v2.1a1.231,1.231,0,0,1-1.227,1.227h0a1.231,1.231,0,0,1-1.227-1.227v-2.1A1.231,1.231,0,0,1,207.4,170.205Z" transform="translate(-183.168 -131.157)" fill="#bbe0f7"/><path d="M207.4,121.9h0a1.231,1.231,0,0,1,1.227,1.227v2.1a1.231,1.231,0,0,1-1.227,1.228h0a1.231,1.231,0,0,1-1.227-1.228v-2.1A1.23,1.23,0,0,1,207.4,121.9Z" transform="translate(-183.168 -117.037)" fill="#bbe0f7"/><path d="M191.629,163.926h0a1.231,1.231,0,0,1,0,1.735l-1.488,1.488a1.232,1.232,0,0,1-1.736,0h0a1.232,1.232,0,0,1,0-1.736l1.488-1.488A1.232,1.232,0,0,1,191.629,163.926Z" transform="translate(-177.869 -129.217)" fill="#bbe0f7"/><path d="M225.786,129.769h0a1.232,1.232,0,0,1,0,1.736l-1.488,1.487a1.231,1.231,0,0,1-1.736,0h0a1.231,1.231,0,0,1,0-1.735l1.488-1.488A1.232,1.232,0,0,1,225.786,129.769Z" transform="translate(-187.853 -119.233)" fill="#bbe0f7"/><path d="M191.629,132.992h0a1.231,1.231,0,0,1-1.736,0l-1.488-1.487a1.232,1.232,0,0,1,0-1.736h0a1.232,1.232,0,0,1,1.736,0l1.488,1.488A1.231,1.231,0,0,1,191.629,132.992Z" transform="translate(-177.869 -119.233)" fill="#bbe0f7"/><path d="M225.786,167.15h0a1.232,1.232,0,0,1-1.736,0l-1.488-1.488a1.231,1.231,0,0,1,0-1.735h0a1.232,1.232,0,0,1,1.736,0l1.488,1.488A1.232,1.232,0,0,1,225.786,167.15Z" transform="translate(-187.853 -129.217)" fill="#bbe0f7"/><path d="M209.086,148.445a2,2,0,1,1-2-2A2.005,2.005,0,0,1,209.086,148.445Z" transform="translate(-182.846 -124.21)" fill="#bbe0f7"/><path d="M207.748,141.171h0a.39.39,0,0,1-.39-.389V130.535a.39.39,0,0,1,.39-.389h0a.389.389,0,0,1,.389.389v10.246A.389.389,0,0,1,207.748,141.171Z" transform="translate(-183.513 -119.448)" fill="#bbe0f7"/><path d="M211.816,149.112h0a.39.39,0,0,1,.389-.39h6.768a.39.39,0,0,1,.39.39h0a.39.39,0,0,1-.39.389h-6.768A.389.389,0,0,1,211.816,149.112Z" transform="translate(-184.816 -124.877)" fill="#bbe0f7"/></g><path d="M573.791,245.109h-2.918v-2.918a.853.853,0,1,0-1.706,0v2.918H566.25a.853.853,0,0,0,0,1.706h2.918v2.917a.853.853,0,1,0,1.706,0v-2.917h2.918a.853.853,0,0,0,0-1.706Z" transform="translate(-259.223 -105.455)" fill="#63acd0" opacity="0.5"/><path d="M199.8,335.6h-2.917v-2.919a.853.853,0,0,0-1.706,0V335.6H192.26a.853.853,0,1,0,0,1.706h2.917v2.918a.853.853,0,0,0,1.706,0V337.3H199.8a.853.853,0,1,0,0-1.706Z" transform="translate(-149.907 -131.905)" fill="#fff"/><path d="M138.263,420.3h-1.911v-1.911a.559.559,0,0,0-1.117,0V420.3h-1.91a.559.559,0,1,0,0,1.117h1.91v1.911a.559.559,0,0,0,1.117,0v-1.911h1.911a.559.559,0,0,0,0-1.117Z" transform="translate(-132.766 -157.044)" fill="#fff"/><path d="M231.357,62.436h-2.918V59.518a.853.853,0,1,0-1.706,0v2.918h-2.917a.853.853,0,1,0,0,1.706h2.917V67.06a.853.853,0,0,0,1.706,0V64.142h2.918a.853.853,0,0,0,0-1.706Z" transform="translate(-159.13 -52.061)" fill="#63acd0" opacity="0.5"/><path d="M293.931,351.657h-2.917v-2.918a.853.853,0,0,0-1.706,0v2.918H286.39a.853.853,0,0,0,0,1.706h2.918v2.917a.853.853,0,1,0,1.706,0v-2.917h2.917a.853.853,0,0,0,0-1.706Z" transform="translate(-177.421 -136.599)" fill="#fff" opacity="0.8"/><path d="M437.854,61.122h-2.917V58.2a.853.853,0,1,0-1.706,0v2.918h-2.917a.853.853,0,1,0,0,1.706h2.917v2.917a.853.853,0,0,0,1.706,0V62.829h2.917a.853.853,0,1,0,0-1.706Z" transform="translate(-219.489 -51.677)" fill="#335a9d"/><path d="M320.422,79.57h-1.655V77.914a.484.484,0,0,0-.967,0V79.57h-1.655a.484.484,0,1,0,0,.967H317.8v1.655a.484.484,0,1,0,.967,0V80.537h1.655a.484.484,0,1,0,0-.967Z" transform="translate(-186.226 -57.546)" fill="#c8e5fd" opacity="0.6"/><path d="M307.781,409.569a5.8,5.8,0,0,0-2.962.831,9.718,9.718,0,0,0-18.553-2.742,6.938,6.938,0,1,0-1.829,13.626h23.345a5.857,5.857,0,1,0,0-11.715Z" transform="translate(-175.067 -152.368)" fill="#fff" opacity="0.8"/><path d="M420.8,389.127a5.8,5.8,0,0,0-2.962.83,9.719,9.719,0,0,0-18.554-2.742,6.938,6.938,0,1,0-1.829,13.627H420.8a5.857,5.857,0,1,0,0-11.715Z" transform="translate(-208.101 -146.393)" fill="#fff" opacity="0.8"/><path d="M171.841,254.914a4.3,4.3,0,0,0-2.2.616,7.212,7.212,0,0,0-13.768-2.035,5.093,5.093,0,0,0-1.358-.2,5.157,5.157,0,0,0,0,10.315h17.324a4.346,4.346,0,1,0,0-8.693Z" transform="translate(-137.616 -107.746)" fill="#bbe0f7" opacity="0.7"/><g transform="translate(241.057)"><path d="M507.426,74.727a17.324,17.324,0,0,1-2.277,4.279,17.553,17.553,0,1,1-8.185-26.792L490.936,68.7,508.2,65.582A17.433,17.433,0,0,1,507.426,74.727Z" transform="translate(-473.385 -49.862)" fill="#e9f6ff"/><path d="M519.055,62.7a17.528,17.528,0,0,0-11.229-13.369L501.8,65.818Z" transform="translate(-481.69 -49.333)" fill="#e9f6ff"/><g transform="translate(17.551 15.72)"><path d="M514.675,80.691A17.321,17.321,0,0,1,512.4,84.97L498.185,74.66l17.263-3.114A17.433,17.433,0,0,1,514.675,80.691Z" transform="translate(-498.185 -71.546)" fill="#fff"/></g><g transform="translate(0 1.281)"><path d="M496.964,52.215,490.936,68.7l-17,4.347a17.548,17.548,0,0,1,23.029-20.828Z" transform="translate(-473.385 -51.143)" fill="#fff"/></g></g><path d="M553.109,65.183a4.385,4.385,0,0,0-3.245,1.444l-3.5-2.459a2.966,2.966,0,1,0-.648.922l3.5,2.461a4.3,4.3,0,0,0,.471,4.807l-1.8,1.878a2.975,2.975,0,1,0,.815.779l1.791-1.874a4.409,4.409,0,1,0,2.608-7.96Z" transform="translate(-252.007 -52.452)" fill="#fff"/><g transform="translate(28.515 169.81)"><path d="M184.278,294.839a5.61,5.61,0,1,1-5.659-5.561A5.61,5.61,0,0,1,184.278,294.839Z" transform="translate(-173.059 -289.278)" fill="#335a9d"/><path d="M177.5,296.828l2.228,2.122,2.916-4.008" transform="translate(-174.357 -290.933)" fill="none" stroke="#fff" stroke-linecap="round" stroke-linejoin="round" stroke-width="1.684"/></g><g transform="translate(321.86 92.773)"><path d="M600.739,186.955a6.589,6.589,0,1,1-6.646-6.531A6.589,6.589,0,0,1,600.739,186.955Z" transform="translate(-587.562 -180.424)" fill="#c7515c"/><path d="M592.778,189.291l2.617,2.493,3.424-4.707" transform="translate(-589.086 -182.368)" fill="none" stroke="#fff" stroke-linecap="round" stroke-linejoin="round" stroke-width="1.978"/></g><g transform="translate(343.466 205.566)"><path d="M631.528,346.461a6.718,6.718,0,1,1-6.776-6.659A6.718,6.718,0,0,1,631.528,346.461Z" transform="translate(-618.092 -339.802)" fill="#c8e5fd" opacity="0.6"/><path d="M623.411,348.843l2.668,2.542,3.492-4.8" transform="translate(-619.646 -341.784)" fill="none" stroke="#fff" stroke-linecap="round" stroke-linejoin="round" stroke-width="2.017"/></g></g><g transform="translate(190.468 85.383)"><g transform="translate(3.685 3.685)" opacity="0.25" style="mix-blend-mode:multiply;isolation:isolate"><path d="M419.113,123.689V260.34a10.735,10.735,0,0,1-10.732,10.732H241.457a10.735,10.735,0,0,1-10.732-10.732V123.689a10.728,10.728,0,0,1,10.732-10.732H408.382A10.728,10.728,0,0,1,419.113,123.689Z" transform="translate(-230.725 -111.271)" fill="#3b5178"/><path d="M419.113,123.689v19.105H230.725V123.689a10.728,10.728,0,0,1,10.732-10.732H408.382A10.728,10.728,0,0,1,419.113,123.689Z" transform="translate(-230.725 -111.271)" fill="#3b5178"/><path d="M2.324,0H19.145A2.324,2.324,0,0,1,21.47,2.324V19.145a2.324,2.324,0,0,1-2.324,2.324H2.325A2.325,2.325,0,0,1,0,19.145V2.324A2.324,2.324,0,0,1,2.324,0Z" transform="translate(7.472 39.981)" fill="#3b5178"/><rect width="21.469" height="21.469" rx="2.324" transform="translate(38.059 39.981)" fill="#3b5178"/><rect width="21.469" height="21.469" rx="2.324" transform="translate(68.647 39.981)" fill="#3b5178"/><rect width="21.47" height="21.469" rx="2.324" transform="translate(99.234 39.981)" fill="#3b5178"/><rect width="21.469" height="21.469" rx="2.324" transform="translate(129.822 39.981)" fill="none" stroke="#3b5178" stroke-miterlimit="10" stroke-width="1.302"/><rect width="21.469" height="21.469" rx="2.324" transform="translate(160.409 39.981)" fill="#3b5178"/><path d="M2.325,0H19.145A2.324,2.324,0,0,1,21.47,2.324V19.145a2.325,2.325,0,0,1-2.325,2.325H2.325A2.325,2.325,0,0,1,0,19.145V2.325A2.325,2.325,0,0,1,2.325,0Z" transform="translate(7.472 68.788)" fill="#3b5178"/><path d="M2.325,0h16.82a2.324,2.324,0,0,1,2.324,2.324V19.145a2.324,2.324,0,0,1-2.324,2.324H2.324A2.324,2.324,0,0,1,0,19.145V2.325A2.325,2.325,0,0,1,2.325,0Z" transform="translate(38.059 68.788)" fill="#3b5178"/><path d="M2.325,0h16.82a2.324,2.324,0,0,1,2.324,2.324V19.145a2.324,2.324,0,0,1-2.324,2.324H2.324A2.324,2.324,0,0,1,0,19.145V2.325A2.325,2.325,0,0,1,2.325,0Z" transform="translate(68.647 68.788)" fill="none" stroke="#3b5178" stroke-miterlimit="10" stroke-width="1.302"/><path d="M2.324,0H19.145A2.325,2.325,0,0,1,21.47,2.325V19.145a2.324,2.324,0,0,1-2.324,2.324H2.325A2.325,2.325,0,0,1,0,19.145V2.324A2.324,2.324,0,0,1,2.324,0Z" transform="translate(99.234 68.788)" fill="#3b5178"/><rect width="21.469" height="21.47" rx="2.324" transform="translate(129.822 68.788)" fill="#3b5178"/><path d="M2.324,0H19.145a2.324,2.324,0,0,1,2.324,2.324V19.145a2.325,2.325,0,0,1-2.325,2.325H2.324A2.324,2.324,0,0,1,0,19.145V2.324A2.324,2.324,0,0,1,2.324,0Z" transform="translate(160.409 68.788)" fill="#3b5178"/><path d="M2.324,0H19.145A2.324,2.324,0,0,1,21.47,2.324V19.145a2.325,2.325,0,0,1-2.325,2.325H2.325A2.325,2.325,0,0,1,0,19.145V2.324A2.324,2.324,0,0,1,2.324,0Z" transform="translate(7.472 97.595)" fill="#3b5178"/><path d="M2.324,0H19.145a2.324,2.324,0,0,1,2.324,2.324V19.145a2.324,2.324,0,0,1-2.324,2.324H2.325A2.325,2.325,0,0,1,0,19.145V2.324A2.324,2.324,0,0,1,2.324,0Z" transform="translate(38.059 97.595)" fill="#3b5178"/><path d="M2.324,0H19.145a2.324,2.324,0,0,1,2.324,2.324V19.145a2.324,2.324,0,0,1-2.324,2.324H2.325A2.325,2.325,0,0,1,0,19.145V2.324A2.324,2.324,0,0,1,2.324,0Z" transform="translate(68.647 97.595)" fill="#3b5178"/><path d="M2.324,0H19.145A2.324,2.324,0,0,1,21.47,2.324V19.145a2.325,2.325,0,0,1-2.325,2.325H2.324A2.324,2.324,0,0,1,0,19.145V2.324A2.324,2.324,0,0,1,2.324,0Z" transform="translate(99.234 97.595)" fill="#3b5178"/><path d="M2.324,0H19.145a2.324,2.324,0,0,1,2.324,2.324V19.145a2.324,2.324,0,0,1-2.324,2.324H2.325A2.325,2.325,0,0,1,0,19.145V2.324A2.324,2.324,0,0,1,2.324,0Z" transform="translate(129.822 97.595)" fill="#3b5178"/><path d="M2.324,0H19.145a2.324,2.324,0,0,1,2.324,2.324V19.145a2.324,2.324,0,0,1-2.324,2.324H2.325A2.325,2.325,0,0,1,0,19.145V2.324A2.324,2.324,0,0,1,2.324,0Z" transform="translate(160.409 97.595)" fill="#3b5178"/><path d="M2.325,0H19.145A2.324,2.324,0,0,1,21.47,2.324V19.145a2.324,2.324,0,0,1-2.324,2.324H2.325A2.325,2.325,0,0,1,0,19.145V2.325A2.325,2.325,0,0,1,2.325,0Z" transform="translate(7.472 126.401)" fill="none" stroke="#3b5178" stroke-miterlimit="10" stroke-width="1.302"/><path d="M2.324,0h16.82a2.325,2.325,0,0,1,2.325,2.325V19.145a2.324,2.324,0,0,1-2.324,2.324H2.324A2.324,2.324,0,0,1,0,19.145V2.324A2.324,2.324,0,0,1,2.324,0Z" transform="translate(38.059 126.401)" fill="#3b5178"/><path d="M2.324,0h16.82a2.325,2.325,0,0,1,2.325,2.325V19.145a2.324,2.324,0,0,1-2.324,2.324H2.324A2.324,2.324,0,0,1,0,19.145V2.324A2.324,2.324,0,0,1,2.324,0Z" transform="translate(68.647 126.401)" fill="#3b5178"/><rect width="21.47" height="21.469" rx="2.324" transform="translate(99.234 126.401)" fill="#3b5178"/><path d="M2.324,0h16.82a2.325,2.325,0,0,1,2.325,2.325V19.145a2.324,2.324,0,0,1-2.324,2.324H2.324A2.324,2.324,0,0,1,0,19.145V2.324A2.324,2.324,0,0,1,2.324,0Z" transform="translate(129.822 126.401)" fill="#3b5178"/><path d="M2.324,0h16.82a2.325,2.325,0,0,1,2.325,2.325V19.145a2.324,2.324,0,0,1-2.324,2.324H2.324A2.324,2.324,0,0,1,0,19.145V2.324A2.324,2.324,0,0,1,2.324,0Z" transform="translate(160.409 126.401)" fill="#3b5178"/><path d="M249.045,134.861a3.9,3.9,0,1,1-3.9-3.9A3.9,3.9,0,0,1,249.045,134.861Z" transform="translate(-233.798 -116.532)" fill="#3b5178"/><circle cx="3.904" cy="3.904" r="3.904" transform="translate(40.686 14.425)" fill="#3b5178"/><circle cx="3.904" cy="3.904" r="3.904" transform="translate(73.933 14.425)" fill="#3b5178"/><path d="M389.981,134.861a3.9,3.9,0,1,1-3.9-3.9A3.9,3.9,0,0,1,389.981,134.861Z" transform="translate(-274.993 -116.532)" fill="#3b5178"/><path d="M436.959,134.861a3.9,3.9,0,1,1-3.9-3.9A3.9,3.9,0,0,1,436.959,134.861Z" transform="translate(-288.724 -116.532)" fill="#3b5178"/><path d="M483.938,134.861a3.9,3.9,0,1,1-3.9-3.9A3.9,3.9,0,0,1,483.938,134.861Z" transform="translate(-302.456 -116.532)" fill="#3b5178"/><line y1="18.329" transform="translate(11.343)" fill="none" stroke="#3b5178" stroke-linecap="round" stroke-miterlimit="10" stroke-width="5.414"/><line y1="18.329" transform="translate(44.59)" fill="none" stroke="#3b5178" stroke-linecap="round" stroke-miterlimit="10" stroke-width="5.414"/><line y1="18.329" transform="translate(77.837)" fill="none" stroke="#3b5178" stroke-linecap="round" stroke-miterlimit="10" stroke-width="5.414"/><line y1="18.329" transform="translate(144.331)" fill="none" stroke="#3b5178" stroke-linecap="round" stroke-miterlimit="10" stroke-width="5.414"/><line y1="18.329" transform="translate(177.578)" fill="none" stroke="#3b5178" stroke-linecap="round" stroke-miterlimit="10" stroke-width="5.414"/><path d="M342.891,278.738" transform="translate(-263.511 -159.728)" fill="#3b5178"/><path d="M345.567,254.4a17.313,17.313,0,0,1-1.9.556,18.313,18.313,0,0,1,.725,4.809h3.453A8.387,8.387,0,0,0,345.567,254.4Zm-2.856-2a17.307,17.307,0,0,1,.716,1.794c.505-.118,1-.253,1.49-.413A7.98,7.98,0,0,0,342.712,252.4Zm-1.061-.379a8.245,8.245,0,0,0-1.844-.287v2.9a17.057,17.057,0,0,0,2.838-.278A17.209,17.209,0,0,0,341.651,252.022Zm1.229,3.1a17.927,17.927,0,0,1-3.074.3v4.337h3.79A17.031,17.031,0,0,0,342.88,255.121Zm-3.469-3.394c-.135,0-.261,0-.4.008h.792C339.672,251.727,339.546,251.727,339.411,251.727Zm-2.241.3a17.562,17.562,0,0,0-.994,2.324,16.9,16.9,0,0,0,2.838.287v-2.9A8.244,8.244,0,0,0,337.171,252.022Zm-3.267,1.743a15.1,15.1,0,0,0,1.49.421c.211-.607.447-1.2.716-1.786A8.262,8.262,0,0,0,333.9,253.765Zm2.038,1.347a17.376,17.376,0,0,0-.716,4.649h3.79v-4.337A17.941,17.941,0,0,1,335.941,255.113Zm-2.678-.732a8.392,8.392,0,0,0-2.282,5.381h3.453a18.771,18.771,0,0,1,.724-4.826A15.821,15.821,0,0,1,333.263,254.38Zm6.543,6.173V264.9a17.914,17.914,0,0,1,3.066.311,17.189,17.189,0,0,0,.724-4.657Zm4.582,0a17.937,17.937,0,0,1-.733,4.817,19.4,19.4,0,0,1,1.9.556,8.353,8.353,0,0,0,2.282-5.374Zm-8.978,5.584c-.505.118-1.011.253-1.507.421a8.43,8.43,0,0,0,2.232,1.39C335.866,267.35,335.621,266.752,335.41,266.137Zm8-.009a16.413,16.413,0,0,1-.724,1.811,8.049,8.049,0,0,0,2.231-1.4C344.422,266.381,343.916,266.246,343.411,266.128Zm-3.6-.438V268.6a8.64,8.64,0,0,0,1.819-.287,16.492,16.492,0,0,0,1-2.333A16.77,16.77,0,0,0,339.807,265.69Zm-3.613.3a17.981,17.981,0,0,0,1.011,2.324,8.315,8.315,0,0,0,1.81.287V265.69A16.791,16.791,0,0,0,336.194,265.985Zm-1.76-5.432h-3.453a8.38,8.38,0,0,0,2.282,5.391,18.315,18.315,0,0,1,1.912-.565A18.032,18.032,0,0,1,334.434,260.553Zm.791,0a17.493,17.493,0,0,0,.725,4.657,18.732,18.732,0,0,1,3.065-.311v-4.346Z" transform="translate(-260.03 -151.833)" fill="#3b5178"/><path d="M342.329,275.558c.134.008.261.008.4.008s.261,0,.4-.008" transform="translate(-263.346 -158.799)" fill="#3b5178"/><path d="M342.891,248.554" transform="translate(-263.511 -150.905)" fill="#3b5178"/><path d="M247.554,181.848l5.177,4.328,7.459-10.367" transform="translate(-235.644 -129.643)" fill="none" stroke="#3b5178" stroke-linecap="round" stroke-linejoin="round" stroke-width="3.906"/><path d="M421.25,181.848l5.177,4.328,7.459-10.367" transform="translate(-286.415 -129.643)" fill="none" stroke="#3b5178" stroke-linecap="round" stroke-linejoin="round" stroke-width="3.906"/><path d="M290.744,302.142l5.177,4.328L303.38,296.1" transform="translate(-248.268 -164.804)" fill="none" stroke="#3b5178" stroke-linecap="round" stroke-linejoin="round" stroke-width="3.906"/></g><g transform="translate(0)"><g transform="translate(0 1.687)"><path d="M413.906,118.482v136.65a10.735,10.735,0,0,1-10.732,10.732H236.25a10.735,10.735,0,0,1-10.732-10.732V118.482A10.728,10.728,0,0,1,236.25,107.75H403.175A10.728,10.728,0,0,1,413.906,118.482Z" transform="translate(-225.518 -107.75)" fill="#fff"/><path d="M413.906,118.482v19.105H225.518V118.482A10.728,10.728,0,0,1,236.25,107.75H403.175A10.728,10.728,0,0,1,413.906,118.482Z" transform="translate(-225.518 -107.75)" fill="#c7515c"/></g><g transform="translate(7.471 39.981)"><path d="M2.324,0H19.145A2.324,2.324,0,0,1,21.47,2.324V19.145a2.324,2.324,0,0,1-2.324,2.324H2.325A2.325,2.325,0,0,1,0,19.145V2.324A2.324,2.324,0,0,1,2.324,0Z" fill="#bbe0f7"/><rect width="21.469" height="21.469" rx="2.324" transform="translate(30.587)" fill="#bbe0f7"/><rect width="21.469" height="21.469" rx="2.324" transform="translate(61.175)" fill="#bbe0f7"/><rect width="21.47" height="21.469" rx="2.324" transform="translate(91.762)" fill="#bbe0f7"/><rect width="21.469" height="21.469" rx="2.324" transform="translate(122.35)" fill="none" stroke="#bbe0f7" stroke-miterlimit="10" stroke-width="1.302"/><rect width="21.469" height="21.469" rx="2.324" transform="translate(152.937)" fill="#bbe0f7"/><g transform="translate(0 28.806)"><path d="M2.325,0H19.145A2.324,2.324,0,0,1,21.47,2.324V19.145a2.325,2.325,0,0,1-2.325,2.325H2.325A2.325,2.325,0,0,1,0,19.145V2.325A2.325,2.325,0,0,1,2.325,0Z" fill="#bbe0f7"/><path d="M2.325,0h16.82a2.324,2.324,0,0,1,2.324,2.324V19.145a2.324,2.324,0,0,1-2.324,2.324H2.324A2.324,2.324,0,0,1,0,19.145V2.325A2.325,2.325,0,0,1,2.325,0Z" transform="translate(30.587)" fill="#bbe0f7"/><path d="M2.325,0h16.82a2.324,2.324,0,0,1,2.324,2.324V19.145a2.324,2.324,0,0,1-2.324,2.324H2.324A2.324,2.324,0,0,1,0,19.145V2.325A2.325,2.325,0,0,1,2.325,0Z" transform="translate(61.175)" fill="none" stroke="#bbe0f7" stroke-miterlimit="10" stroke-width="1.302"/><path d="M2.324,0H19.145A2.325,2.325,0,0,1,21.47,2.325V19.145a2.324,2.324,0,0,1-2.324,2.324H2.325A2.325,2.325,0,0,1,0,19.145V2.324A2.324,2.324,0,0,1,2.324,0Z" transform="translate(91.762)" fill="#bbe0f7"/><path d="M2.325,0h16.82a2.324,2.324,0,0,1,2.324,2.324V19.145a2.324,2.324,0,0,1-2.324,2.324H2.324A2.324,2.324,0,0,1,0,19.145V2.325A2.325,2.325,0,0,1,2.325,0Z" transform="translate(122.35)" fill="#bbe0f7"/><path d="M2.324,0h16.82a2.325,2.325,0,0,1,2.325,2.325V19.145a2.325,2.325,0,0,1-2.325,2.325H2.324A2.324,2.324,0,0,1,0,19.145V2.324A2.324,2.324,0,0,1,2.324,0Z" transform="translate(152.937)" fill="#bbe0f7"/></g><g transform="translate(0 57.613)"><path d="M2.324,0H19.145A2.324,2.324,0,0,1,21.47,2.324V19.145a2.325,2.325,0,0,1-2.325,2.325H2.325A2.325,2.325,0,0,1,0,19.145V2.324A2.324,2.324,0,0,1,2.324,0Z" fill="#bbe0f7"/><path d="M2.324,0H19.145a2.324,2.324,0,0,1,2.324,2.324V19.145a2.324,2.324,0,0,1-2.324,2.324H2.325A2.325,2.325,0,0,1,0,19.145V2.324A2.324,2.324,0,0,1,2.324,0Z" transform="translate(30.587)" fill="#bbe0f7"/><path d="M2.324,0H19.145a2.324,2.324,0,0,1,2.324,2.324V19.145a2.324,2.324,0,0,1-2.324,2.324H2.325A2.325,2.325,0,0,1,0,19.145V2.324A2.324,2.324,0,0,1,2.324,0Z" transform="translate(61.175)" fill="#bbe0f7"/><path d="M2.324,0H19.145A2.324,2.324,0,0,1,21.47,2.324V19.145a2.325,2.325,0,0,1-2.325,2.325H2.324A2.324,2.324,0,0,1,0,19.145V2.324A2.324,2.324,0,0,1,2.324,0Z" transform="translate(91.762)" fill="#bbe0f7"/><path d="M2.324,0H19.145a2.324,2.324,0,0,1,2.324,2.324V19.145a2.324,2.324,0,0,1-2.324,2.324H2.325A2.325,2.325,0,0,1,0,19.145V2.324A2.324,2.324,0,0,1,2.324,0Z" transform="translate(122.35)" fill="#bbe0f7"/><path d="M2.324,0H19.145a2.324,2.324,0,0,1,2.324,2.324V19.145a2.324,2.324,0,0,1-2.324,2.324H2.325A2.325,2.325,0,0,1,0,19.145V2.324A2.324,2.324,0,0,1,2.324,0Z" transform="translate(152.937)" fill="#bbe0f7"/></g><g transform="translate(0 86.42)"><path d="M2.325,0H19.145A2.324,2.324,0,0,1,21.47,2.324V19.145a2.324,2.324,0,0,1-2.324,2.324H2.325A2.325,2.325,0,0,1,0,19.145V2.325A2.325,2.325,0,0,1,2.325,0Z" fill="none" stroke="#bbe0f7" stroke-miterlimit="10" stroke-width="1.302"/><path d="M2.324,0h16.82a2.325,2.325,0,0,1,2.325,2.325V19.145a2.324,2.324,0,0,1-2.324,2.324H2.324A2.324,2.324,0,0,1,0,19.145V2.324A2.324,2.324,0,0,1,2.324,0Z" transform="translate(30.587)" fill="#bbe0f7"/><path d="M2.324,0h16.82a2.325,2.325,0,0,1,2.325,2.325V19.145a2.324,2.324,0,0,1-2.324,2.324H2.324A2.324,2.324,0,0,1,0,19.145V2.324A2.324,2.324,0,0,1,2.324,0Z" transform="translate(61.175)" fill="#bbe0f7"/><rect width="21.47" height="21.469" rx="2.324" transform="translate(91.762)" fill="#bbe0f7"/><path d="M2.324,0h16.82a2.325,2.325,0,0,1,2.325,2.325V19.145a2.324,2.324,0,0,1-2.324,2.324H2.324A2.324,2.324,0,0,1,0,19.145V2.324A2.324,2.324,0,0,1,2.324,0Z" transform="translate(122.35)" fill="#bbe0f7"/><path d="M2.324,0h16.82a2.325,2.325,0,0,1,2.325,2.325V19.145a2.324,2.324,0,0,1-2.324,2.324H2.324A2.324,2.324,0,0,1,0,19.145V2.324A2.324,2.324,0,0,1,2.324,0Z" transform="translate(152.937)" fill="#bbe0f7"/></g></g><g transform="translate(7.439 14.424)"><path d="M243.837,129.653a3.9,3.9,0,1,1-3.9-3.9A3.9,3.9,0,0,1,243.837,129.653Z" transform="translate(-236.029 -125.749)" fill="#c8e5fd"/><circle cx="3.904" cy="3.904" r="3.904" transform="translate(33.247 0)" fill="#c8e5fd"/><circle cx="3.904" cy="3.904" r="3.904" transform="translate(66.494 0)" fill="#c8e5fd"/><path d="M384.773,129.653a3.9,3.9,0,1,1-3.9-3.9A3.9,3.9,0,0,1,384.773,129.653Z" transform="translate(-277.224 -125.749)" fill="#c8e5fd"/><path d="M431.752,129.653a3.9,3.9,0,1,1-3.9-3.9A3.9,3.9,0,0,1,431.752,129.653Z" transform="translate(-290.956 -125.749)" fill="#c8e5fd"/><path d="M478.73,129.653a3.9,3.9,0,1,1-3.9-3.9A3.9,3.9,0,0,1,478.73,129.653Z" transform="translate(-304.687 -125.749)" fill="#c8e5fd"/></g><g transform="translate(11.343)"><line y1="18.329" fill="none" stroke="#222967" stroke-linecap="round" stroke-miterlimit="10" stroke-width="5.414"/></g><g transform="translate(44.59)"><line y1="18.329" fill="none" stroke="#222967" stroke-linecap="round" stroke-miterlimit="10" stroke-width="5.414"/></g><g transform="translate(77.837)"><line y1="18.329" fill="none" stroke="#222967" stroke-linecap="round" stroke-miterlimit="10" stroke-width="5.414"/></g><g transform="translate(144.331)"><line y1="18.329" fill="none" stroke="#222967" stroke-linecap="round" stroke-miterlimit="10" stroke-width="5.414"/></g><g transform="translate(177.577)"><line y1="18.329" fill="none" stroke="#222967" stroke-linecap="round" stroke-miterlimit="10" stroke-width="5.414"/></g><g transform="translate(70.951 97.648)"><path d="M337.683,273.531" transform="translate(-329.254 -252.169)" fill="#fff"/><path d="M340.359,249.189a17.518,17.518,0,0,1-1.9.556,18.35,18.35,0,0,1,.724,4.809h3.453A8.385,8.385,0,0,0,340.359,249.189Zm-2.855-2a17.163,17.163,0,0,1,.715,1.794c.505-.118,1-.253,1.491-.413A7.988,7.988,0,0,0,337.5,247.194Zm-1.062-.379a8.237,8.237,0,0,0-1.844-.286v2.9a17.064,17.064,0,0,0,2.839-.277A17.126,17.126,0,0,0,336.443,246.814Zm1.23,3.1a17.928,17.928,0,0,1-3.074.3v4.337h3.79A17.006,17.006,0,0,0,337.673,249.913Zm-3.47-3.393c-.134,0-.261,0-.4.009h.791C334.464,246.52,334.338,246.52,334.2,246.52Zm-2.24.294a17.482,17.482,0,0,0-.994,2.325,16.9,16.9,0,0,0,2.839.286v-2.9A8.237,8.237,0,0,0,331.963,246.814Zm-3.268,1.743a14.8,14.8,0,0,0,1.491.421c.21-.606.447-1.2.715-1.785A8.282,8.282,0,0,0,328.7,248.557Zm2.038,1.348a17.37,17.37,0,0,0-.716,4.648h3.79v-4.337A18.009,18.009,0,0,1,330.733,249.906Zm-2.678-.733a8.393,8.393,0,0,0-2.282,5.381h3.453a18.8,18.8,0,0,1,.725-4.825A15.953,15.953,0,0,1,328.055,249.172Zm6.543,6.173v4.345a17.847,17.847,0,0,1,3.066.312,17.137,17.137,0,0,0,.724-4.657Zm4.582,0a17.972,17.972,0,0,1-.732,4.817,19.582,19.582,0,0,1,1.9.556,8.353,8.353,0,0,0,2.282-5.373ZM330.2,260.93c-.505.117-1.011.253-1.508.421a8.451,8.451,0,0,0,2.232,1.389C330.658,262.142,330.413,261.544,330.2,260.93Zm8-.009a16.615,16.615,0,0,1-.725,1.81,8.049,8.049,0,0,0,2.232-1.4C339.214,261.174,338.708,261.039,338.2,260.921Zm-3.605-.438v2.905a8.7,8.7,0,0,0,1.82-.286,16.692,16.692,0,0,0,1-2.333A16.786,16.786,0,0,0,334.6,260.483Zm-3.613.3A18.228,18.228,0,0,0,332,263.1a8.361,8.361,0,0,0,1.811.286v-2.905A16.8,16.8,0,0,0,330.986,260.778Zm-1.76-5.432h-3.453a8.378,8.378,0,0,0,2.282,5.39,18.532,18.532,0,0,1,1.911-.564A18.1,18.1,0,0,1,329.226,255.346Zm.792,0a17.471,17.471,0,0,0,.724,4.657,18.734,18.734,0,0,1,3.066-.312v-4.345Z" transform="translate(-325.773 -244.274)" fill="#fff"/><g transform="translate(8.031 19.111)"><path d="M337.121,270.35c.134.008.261.008.4.008s.261,0,.4-.008" transform="translate(-337.121 -270.35)" fill="#fff"/></g><g transform="translate(8.429)"><path d="M337.683,243.346" transform="translate(-337.683 -243.346)" fill="#fff"/></g></g><path d="M242.346,176.641l5.177,4.328,7.459-10.367" transform="translate(-230.437 -124.435)" fill="none" stroke="#c7515c" stroke-linecap="round" stroke-linejoin="round" stroke-width="3.906"/><path d="M416.043,176.641l5.177,4.328,7.459-10.367" transform="translate(-281.208 -124.435)" fill="none" stroke="#c7515c" stroke-linecap="round" stroke-linejoin="round" stroke-width="3.906"/><path d="M285.537,296.934l5.177,4.328,7.459-10.367" transform="translate(-243.061 -159.596)" fill="none" stroke="#c7515c" stroke-linecap="round" stroke-linejoin="round" stroke-width="3.906"/></g></g><g transform="translate(261.341 106.686)"><g transform="translate(3.685 3.685)" opacity="0.25" style="mix-blend-mode:multiply;isolation:isolate"><rect width="13.793" height="10.217" transform="translate(64.354 45.658) rotate(-31.727)" fill="#3b5178"/><path d="M421.8,202.195h0a17.284,17.284,0,0,1,11.732-7.254h0Z" transform="translate(-357.451 -156.537)" fill="#3b5178"/><rect width="10.217" height="13.793" transform="matrix(0.526, -0.851, 0.851, 0.526, 159.12, 47.095)" fill="#3b5178"/><path d="M575.035,202.195h0a17.286,17.286,0,0,0-11.732-7.254h0Z" transform="translate(-398.81 -156.537)" fill="#3b5178"/><rect width="21.584" height="7.056" transform="translate(109.498 30.73)" fill="#3b5178"/><path d="M509.466,162.762v14.306h-29.38V162.762A41.129,41.129,0,0,1,509.466,162.762Z" transform="translate(-374.486 -146.338)" fill="#3b5178"/><line y1="14.304" transform="translate(107.263 16.426)" fill="none" stroke="#3b5178" stroke-miterlimit="10" stroke-width="1.083"/><line y1="14.304" transform="translate(109.608 16.426)" fill="none" stroke="#3b5178" stroke-miterlimit="10" stroke-width="1.083"/><line y1="14.304" transform="translate(111.953 16.426)" fill="none" stroke="#3b5178" stroke-miterlimit="10" stroke-width="1.083"/><line y1="14.304" transform="translate(114.299 16.426)" fill="none" stroke="#3b5178" stroke-miterlimit="10" stroke-width="1.083"/><line y1="14.304" transform="translate(116.644 16.426)" fill="none" stroke="#3b5178" stroke-miterlimit="10" stroke-width="1.083"/><line y1="14.304" transform="translate(118.989 16.426)" fill="none" stroke="#3b5178" stroke-miterlimit="10" stroke-width="1.083"/><line y1="14.304" transform="translate(121.335 16.426)" fill="none" stroke="#3b5178" stroke-miterlimit="10" stroke-width="1.083"/><line y1="14.304" transform="translate(123.68 16.426)" fill="none" stroke="#3b5178" stroke-miterlimit="10" stroke-width="1.083"/><line y1="14.304" transform="translate(126.025 16.426)" fill="none" stroke="#3b5178" stroke-miterlimit="10" stroke-width="1.083"/><line y1="14.304" transform="translate(128.37 16.426)" fill="none" stroke="#3b5178" stroke-miterlimit="10" stroke-width="1.083"/><line y1="14.304" transform="translate(130.716 16.426)" fill="none" stroke="#3b5178" stroke-miterlimit="10" stroke-width="1.083"/><line y1="14.304" transform="translate(133.061 16.426)" fill="none" stroke="#3b5178" stroke-miterlimit="10" stroke-width="1.083"/><path d="M509.466,162.762h-29.38A41.129,41.129,0,0,1,509.466,162.762Z" transform="translate(-374.486 -146.338)" fill="#3b5178"/><circle cx="85.058" cy="85.058" r="85.058" transform="translate(0 120.29) rotate(-45)" fill="#3b5178"/><circle cx="76.629" cy="76.629" r="76.629" transform="translate(11.921 120.29) rotate(-45)" fill="#3b5178" opacity="0.7"/><circle cx="73.947" cy="73.947" r="73.947" transform="translate(46.343 46.343)" fill="#3b5178"/><line x1="7.28" transform="translate(182.359 120.29)" fill="none" stroke="#3b5178" stroke-linecap="round" stroke-miterlimit="10" stroke-width="5.414"/><line y1="7.28" transform="translate(120.29 182.359)" fill="none" stroke="#3b5178" stroke-linecap="round" stroke-miterlimit="10" stroke-width="5.414"/><line x2="7.28" transform="translate(50.941 120.29)" fill="none" stroke="#3b5178" stroke-linecap="round" stroke-miterlimit="10" stroke-width="5.414"/><line y2="7.28" transform="translate(120.29 50.941)" fill="none" stroke="#3b5178" stroke-linecap="round" stroke-miterlimit="10" stroke-width="5.414"/><line x1="6.304" y1="3.64" transform="translate(174.042 151.326)" fill="none" stroke="#3b5178" stroke-linecap="round" stroke-miterlimit="10" stroke-width="3.248"/><line y1="6.304" x2="3.64" transform="translate(85.613 174.042)" fill="none" stroke="#3b5178" stroke-linecap="round" stroke-miterlimit="10" stroke-width="3.248"/><line x2="6.304" y2="3.64" transform="translate(60.233 85.613)" fill="none" stroke="#3b5178" stroke-linecap="round" stroke-miterlimit="10" stroke-width="3.248"/><line x1="3.64" y2="6.304" transform="translate(151.326 60.233)" fill="none" stroke="#3b5178" stroke-linecap="round" stroke-miterlimit="10" stroke-width="3.248"/><line x1="3.639" y1="6.305" transform="translate(151.314 174.049)" fill="none" stroke="#3b5178" stroke-linecap="round" stroke-miterlimit="10" stroke-width="3.248"/><line y1="3.639" x2="6.305" transform="translate(60.225 151.314)" fill="none" stroke="#3b5178" stroke-linecap="round" stroke-miterlimit="10" stroke-width="3.248"/><line x2="3.639" y2="6.305" transform="translate(85.626 60.225)" fill="none" stroke="#3b5178" stroke-linecap="round" stroke-miterlimit="10" stroke-width="3.248"/><line x1="6.305" y2="3.639" transform="translate(174.049 85.626)" fill="none" stroke="#3b5178" stroke-linecap="round" stroke-miterlimit="10" stroke-width="3.248"/><path d="M517.822,316.563a2.3,2.3,0,0,1-1.86-.945l-18.769-25.751,18.47-50.037a2.3,2.3,0,0,1,4.313,1.592l-17.618,47.727,17.319,23.76a2.3,2.3,0,0,1-1.856,3.653Z" transform="translate(-379.486 -169.218)" fill="#3b5178"/><circle cx="5.747" cy="5.747" r="5.747" transform="translate(114.543 114.542)" fill="#3b5178"/></g><g transform="translate(64.354 38.405)"><g transform="translate(0 0)"><rect width="13.793" height="10.217" transform="translate(0 7.253) rotate(-31.727)" fill="#a63f4d"/><path d="M416.6,196.987h0a17.284,17.284,0,0,1,11.732-7.253h0Z" transform="translate(-416.598 -189.734)" fill="#a63f4d"/></g><g transform="translate(94.765 0)"><rect width="10.217" height="13.793" transform="matrix(0.526, -0.851, 0.851, 0.526, 0, 8.69)" fill="#a63f4d"/><path d="M569.827,196.987h0a17.283,17.283,0,0,0-11.732-7.253h0Z" transform="translate(-552.722 -189.734)" fill="#a63f4d"/></g></g><g transform="translate(105.6 13.711)"><rect width="21.584" height="7.056" transform="translate(3.898 17.019)" fill="#a63f4d"/><path d="M504.258,157.554V171.86H474.879V157.554A41.127,41.127,0,0,1,504.258,157.554Z" transform="translate(-474.879 -154.841)" fill="#c7515c"/><g transform="translate(1.663 2.715)"><line y1="14.304" fill="none" stroke="#191d47" stroke-miterlimit="10" stroke-width="1.083"/><g transform="translate(2.345)"><line y1="14.304" fill="none" stroke="#191d47" stroke-miterlimit="10" stroke-width="1.083"/></g><g transform="translate(4.691)"><line y1="14.304" fill="none" stroke="#191d47" stroke-miterlimit="10" stroke-width="1.083"/></g><g transform="translate(7.036)"><line y1="14.304" fill="none" stroke="#191d47" stroke-miterlimit="10" stroke-width="1.083"/></g><g transform="translate(9.381)"><line y1="14.304" fill="none" stroke="#191d47" stroke-miterlimit="10" stroke-width="1.083"/></g><g transform="translate(11.727)"><line y1="14.304" fill="none" stroke="#191d47" stroke-miterlimit="10" stroke-width="1.083"/></g><g transform="translate(14.072)"><line y1="14.304" fill="none" stroke="#191d47" stroke-miterlimit="10" stroke-width="1.083"/></g><g transform="translate(16.417)"><line y1="14.304" fill="none" stroke="#191d47" stroke-miterlimit="10" stroke-width="1.083"/></g><g transform="translate(18.762)"><line y1="14.304" fill="none" stroke="#191d47" stroke-miterlimit="10" stroke-width="1.083"/></g><g transform="translate(21.108)"><line y1="14.304" fill="none" stroke="#191d47" stroke-miterlimit="10" stroke-width="1.083"/></g><g transform="translate(23.453)"><line y1="14.304" fill="none" stroke="#191d47" stroke-miterlimit="10" stroke-width="1.083"/></g><g transform="translate(25.798)"><line y1="14.304" fill="none" stroke="#191d47" stroke-miterlimit="10" stroke-width="1.083"/></g></g><path d="M504.258,157.554H474.879A41.127,41.127,0,0,1,504.258,157.554Z" transform="translate(-474.879 -154.841)" fill="#a63f4d"/></g><circle cx="85.058" cy="85.058" r="85.058" transform="translate(0 120.29) rotate(-45)" fill="#c7515c"/><circle cx="76.629" cy="76.629" r="76.629" transform="translate(11.921 120.29) rotate(-45)" fill="#bbe0f7" opacity="0.7"/><g transform="translate(46.343 46.343)"><circle cx="73.947" cy="73.947" r="73.947" fill="#fff"/></g><g transform="translate(50.941 50.941)"><g transform="translate(131.418 69.349)"><line x1="7.28" fill="none" stroke="#222967" stroke-linecap="round" stroke-miterlimit="10" stroke-width="5.414"/></g><g transform="translate(69.349 131.418)"><line y1="7.28" fill="none" stroke="#222967" stroke-linecap="round" stroke-miterlimit="10" stroke-width="5.414"/></g><g transform="translate(0 69.349)"><line x2="7.28" fill="none" stroke="#222967" stroke-linecap="round" stroke-miterlimit="10" stroke-width="5.414"/></g><g transform="translate(69.349)"><line y2="7.28" fill="none" stroke="#222967" stroke-linecap="round" stroke-miterlimit="10" stroke-width="5.414"/></g></g><g transform="translate(60.225 60.225)" opacity="0.3"><g transform="translate(113.816 91.101)"><line x1="6.304" y1="3.64" fill="none" stroke="#191d47" stroke-linecap="round" stroke-miterlimit="10" stroke-width="3.248"/></g><g transform="translate(25.387 113.816)"><line y1="6.304" x2="3.64" fill="none" stroke="#191d47" stroke-linecap="round" stroke-miterlimit="10" stroke-width="3.248"/></g><g transform="translate(0.008 25.387)"><line x2="6.304" y2="3.64" fill="none" stroke="#191d47" stroke-linecap="round" stroke-miterlimit="10" stroke-width="3.248"/></g><g transform="translate(91.101 0.008)"><line x1="3.64" y2="6.304" fill="none" stroke="#191d47" stroke-linecap="round" stroke-miterlimit="10" stroke-width="3.248"/></g><g transform="translate(91.089 113.823)"><line x1="3.639" y1="6.305" fill="none" stroke="#191d47" stroke-linecap="round" stroke-miterlimit="10" stroke-width="3.248"/></g><g transform="translate(0 91.089)"><line y1="3.639" x2="6.305" fill="none" stroke="#191d47" stroke-linecap="round" stroke-miterlimit="10" stroke-width="3.248"/></g><g transform="translate(25.401)"><line x2="3.639" y2="6.305" fill="none" stroke="#191d47" stroke-linecap="round" stroke-miterlimit="10" stroke-width="3.248"/></g><g transform="translate(113.823 25.401)"><line x1="6.305" y2="3.639" fill="none" stroke="#191d47" stroke-linecap="round" stroke-miterlimit="10" stroke-width="3.248"/></g></g><g transform="translate(117.707 69.109)"><path d="M512.614,311.355a2.3,2.3,0,0,1-1.86-.945L491.986,284.66l18.47-50.037a2.3,2.3,0,1,1,4.314,1.592l-17.617,47.726L514.47,307.7a2.3,2.3,0,0,1-1.856,3.652Z" transform="translate(-491.986 -233.119)" fill="#c7515c"/></g><g transform="translate(114.542 114.542)"><circle cx="5.747" cy="5.747" r="5.747" fill="#222967"/></g></g><g transform="translate(386.577 175.741)"><path d="M592.642,427.607l2.07,3.586,2.643-.512-1.815-4.2" transform="translate(-528.937 -289.586)" fill="#e8abb0"/><path d="M596.434,432.046a3.116,3.116,0,0,1-1.87.5,3.14,3.14,0,0,0-.881-.14c-.209.05-.571.643-.724.814a6.881,6.881,0,0,1-1.4.934c-.369.173-1.771.662-2.025,1.2a.345.345,0,0,0,.32.486c.425,0,1.586-.032,2.4-.04a5.37,5.37,0,0,0,1.5-.222,33.993,33.993,0,0,0,3.526-1.209A2.911,2.911,0,0,0,596.434,432.046Z" transform="translate(-528.019 -291.211)" fill="#2b4ca3"/><path d="M562.621,377.877c-10.148-6.521-8.9,3.219-8.9,3.219l28.627,33.877a3.475,3.475,0,0,0,2.778-1.771S574.08,385.306,562.621,377.877Z" transform="translate(-517.547 -274.721)" fill="#223c75"/><path d="M564.73,337.751a11.883,11.883,0,0,1,.885,5.686c-.271,2.874-.928,5.309-1.169,7.931s-3.283,18.232-3.283,18.232-8.226,2.5-8.819.05c-1.2-4.949-2.9-31.727-2.9-31.727A39.183,39.183,0,0,0,564.73,337.751Z" transform="translate(-516.31 -263.649)" fill="#223c75"/><path d="M561.964,335.065s2.441,6.567-5.708,14.111c-2.119,1.961-4.048,2.706-6.645,5.113-1.931,1.79-13.782,13.523-13.782,13.523s-7.323-5.82-6.4-8.162c1.861-4.741,15-28.481,15-28.481S554.88,332.328,561.964,335.065Z" transform="translate(-510.435 -261.725)" fill="#2b4ca3"/><path d="M515.116,428.125l-1.009,4.058,2.689.13,2.179-3.842" transform="translate(-505.981 -290.065)" fill="#e8abb0"/><path d="M533.752,372.484c-.7-13.638-8.579-2.767-8.579-2.767L514.8,411.3a4.876,4.876,0,0,0,3.251,1.3S534.457,386.123,533.752,372.484Z" transform="translate(-506.183 -271.793)" fill="#2b4ca3"/><path d="M575.6,267.455c-3.376,1.659-9.04.226-9.04.226l1.9-6.047.816-2.58s.58-.5,1.436-1.183c2.634-2.12,7.883-6,6.516-2.216C575.413,260.659,575.6,267.455,575.6,267.455Z" transform="translate(-521.312 -239.188)" fill="#e8abb0"/><path d="M573.251,260.222a9.59,9.59,0,0,1-4.009,2.963l.816-2.58s.58-.5,1.436-1.183l.282-.051Z" transform="translate(-522.097 -240.739)" fill="#cc7f96"/><path d="M564.216,242.246s-2.2,10.984-.459,12.821,9.862-1.545,9.862-1.545,6.35-5.934,5.9-11.3c-.379-4.525-9.882-8.308-13.966-3.632A8.16,8.16,0,0,0,564.216,242.246Z" transform="translate(-520.298 -234.039)" fill="#e8abb0"/><path d="M563.3,233.87s-1.789,5.649,2.444,7.691c2.808,1.355,6.018,1.656,6.013,3.044s.592.384,1.211.127c1.315-.544,1.967,1.275,1.156,2.981-.619,1.3-.543,3.343,1.428,3.836a54.35,54.35,0,0,0,3.342-4.9c.885-1.576,3.172-7.127-.53-8.339a4.762,4.762,0,0,0-2.687-3.07c-3.546-1.627-6.874-1.143-9.417-1.035C565.091,234.253,563.817,231.811,563.3,233.87Z" transform="translate(-520.251 -233.044)" fill="#242966"/><path d="M547.478,281.506c-1.327-.533-3.244-1.408-5.257-2.364-1.577-.752-3.213-1.554-4.666-2.277-2.7-1.329-4.788-2.4-4.788-2.4s1.749-5.381,2.874-5.611c.666-.137,5.689.782,9.645,1.546.844.161,1.644.32,2.332.467,1.526.288,2.552.5,2.552.5Z" transform="translate(-511.435 -243.506)" fill="#e8abb0"/><path d="M528.5,269.03c-2.524-1.271-3.575-2.921-6.311-8.153-.986-1.88-3.18-6.273-4.037-8.088l.933-2.528c.516.317,7.7,7.258,8.638,8.354,1.5,1.751,3.652,4.8,3.652,4.8C532.448,265.308,531.02,270.311,528.5,269.03Z" transform="translate(-507.162 -238.076)" fill="#e8abb0"/><path d="M560.009,272.863c-4.124-1.372-13.415-3.04-13.415-3.04s-2.539,5.709-2.642,9.877c3,1.887,10.524,4.188,10.524,4.188" transform="translate(-514.705 -243.794)" fill="#e8ab37"/><path d="M572.617,298.982c-.11.239-.23.488-.35.727-.6,1.189-1.18,2.386-1.7,3.594-4.164,9.628-2.7,14.76-2.7,14.76-6.836.894-18.271-2.534-18.271-2.534s.028-.977.01-1.742a186.99,186.99,0,0,1,.7-21.716c.083-.71.166-1.4.268-2.074a28.5,28.5,0,0,1,2.064-8.236c3.888-7.869,8.946-8.55,8.946-8.55a34.329,34.329,0,0,0,9.038-.221C578.79,277.671,576.653,290.505,572.617,298.982Z" transform="translate(-516.343 -244.72)" fill="#efc93b"/><path d="M532.273,291.148s-.345-5.645.619-6.272c.57-.372,5.581-1.359,9.538-2.09.846-.161,1.652-.306,2.346-.424,1.519-.289,2.557-.467,2.557-.467l1.205,10.426C543.93,292.3,532.273,291.148,532.273,291.148Z" transform="translate(-511.273 -247.323)" fill="#e8abb0"/><path d="M525.4,282.248a32.374,32.374,0,0,0-4.679-3.352c-1.275-.674-6.151-2.577-9.563-4.108a28.513,28.513,0,0,1-3.516-1.874l-1.053,1.634s4.88,4.82,9.335,8.691,6.039,5.019,8.856,5.283S527.1,283.609,525.4,282.248Z" transform="translate(-503.785 -244.698)" fill="#e8abb0"/><path d="M565.529,296.633c-5.141,2.93-13.138,2.488-14.907,2.35.083-.71.166-1.4.268-2.074Z" transform="translate(-516.654 -251.631)" fill="#e8ab37"/><path d="M566.254,291.112c-6.393,2.633-16.553,1.231-16.553,1.231a37.527,37.527,0,0,1-1.1-10.7c2.653-.885,10.669-2.174,10.669-2.174s8.148-1.026,9.343,4.492C569.846,289.655,566.254,291.112,566.254,291.112Z" transform="translate(-516.054 -246.591)" fill="#efc93b"/><path d="M505.988,274.254a2.374,2.374,0,0,0-1.5-.7,2.225,2.225,0,0,1-1.856-1.053,6.8,6.8,0,0,1,1.326-2.438c.213-.13,1.284.684,1.634.81s.287.816,1.439,1.538" transform="translate(-502.625 -243.86)" fill="#e8abb0"/><path d="M507.038,271.434a2.769,2.769,0,0,0-.345-1.3c-.1-.207-.355-.953-.483-.955s-.3.163-.348.357a4.827,4.827,0,0,0,.02.9" transform="translate(-503.565 -243.605)" fill="#e8abb0"/><path d="M566.558,272.733l1.06-1.385a21.009,21.009,0,0,0,7.979.093v1.066l-3.351.7A11.109,11.109,0,0,1,566.558,272.733Z" transform="translate(-521.312 -244.24)" fill="#e8ab37"/><path d="M568.056,271.229l.267,3.181s5.345-.206,8.323-1.645l-.6-1.824A24.185,24.185,0,0,1,568.056,271.229Z" transform="translate(-521.75 -244.121)" fill="#f3d46c"/><path d="M514.6,433.362a5.106,5.106,0,0,1-2.24.224s-.27-.588-.713-.594-.989.611-1.289.751-6.01,1.885-4.093,2.272c.069.082,6.775.1,8.247.107a.368.368,0,0,0,.362-.294A2.9,2.9,0,0,0,514.6,433.362Z" transform="translate(-503.574 -291.488)" fill="#2b4ca3"/><path d="M564.635,278.651a6.183,6.183,0,0,1,4.8.16c2.914,1.347,4.865,3.9,3.861,8.008" transform="translate(-520.75 -246.255)" fill="none" stroke="#fff" stroke-linecap="round" stroke-miterlimit="10" stroke-width="0.247"/><path d="M575.206,275.366A3.913,3.913,0,0,1,573.837,279" transform="translate(-523.44 -245.414)" fill="none" stroke="#fff" stroke-linecap="round" stroke-miterlimit="10" stroke-width="0.247"/><path d="M513.293,246.646s-.067-2.589.548-3.281,1.785-.768,1.939.154-2.211,2.379-2.211,2.379Z" transform="translate(-505.742 -235.906)" fill="#e8abb0"/></g><g transform="translate(171.56 169.981)"><path d="M257.046,370.309c-.951,7.092-4.8,34.478-4.8,34.478h-2.9s-2.461-22.521-1.635-27.886c.834-5.382,1.4-7.059,1.151-9.429-.025-.267-1.268-5.7-2.286-10.172-.151-.634-.292-1.243-.418-1.819-.534-2.311-.935-4.039-.935-4.039h11.841S257.3,368.423,257.046,370.309Z" transform="translate(-212.369 -261.891)" fill="#e8abb0"/><path d="M256.573,356.138c-3.354,1.444-9.337,2.2-9.612,2.236-.151-.634-.292-1.243-.418-1.819l.017-.125,2.87-1.2S260.011,354.652,256.573,356.138Z" transform="translate(-212.755 -262.966)" fill="#cc7f96"/><path d="M253.9,426.417a2.329,2.329,0,0,0,.217,1.248,12.86,12.86,0,0,0,3.095,4.468l.233.628-1.7.139a23.152,23.152,0,0,1-2.606-1.745c-.163-.28-.791-1.5-.977-1.88s-.977-1.075-.977-1.4a10.2,10.2,0,0,0-.326-1.456,11.214,11.214,0,0,1,1.14-.847c.163-.046.884-.116.884-.116Z" transform="translate(-214.016 -283.525)" fill="#e8abb0"/><path d="M250.5,425.89a5.914,5.914,0,0,0-1.069,3.461,44.756,44.756,0,0,1,.564,4.7h.4l.652-3.486s2.878,3.169,3.529,3.328a28.68,28.68,0,0,0,3.421.159c.139,0,2.188-.461-1.21-1.787,0,0,.023.674-1.326-.023A11.53,11.53,0,0,1,252,429,8.11,8.11,0,0,1,250.5,425.89Z" transform="translate(-213.596 -283.652)" fill="#433f71"/><g transform="translate(16.181 88.65)"><path d="M241.043,350.169s0,1.168-.108,3.071c-.033.542-.067,1.151-.117,1.8a73.577,73.577,0,0,1-2.729,15.32c-2.1,6.842-11.289,33.5-11.289,33.5l-2.87-.4s2.111-22.129,3.672-27.336,4.055-7.243,4.13-9.621c.042-1.352-.568-6.175-1.1-10.072-.176-1.31-.343-2.511-.476-3.446-.166-1.168-.275-1.919-.275-1.919Z" transform="translate(-222.327 -350.169)" fill="#e8abb0"/><path d="M226.745,425.578a2.336,2.336,0,0,0,.043,1.265,12.872,12.872,0,0,0,2.451,4.851l.144.654-1.7-.095a23.085,23.085,0,0,1-2.342-2.087c-.122-.3-.577-1.6-.709-2s-.821-1.2-.776-1.522a10.223,10.223,0,0,0-.122-1.488,11.239,11.239,0,0,1,1.246-.682c.168-.023.892.006.892.006Z" transform="translate(-222.269 -371.886)" fill="#e8abb0"/><path d="M223.286,424.542a5.915,5.915,0,0,0-1.534,3.282,44.736,44.736,0,0,1-.086,4.729l.393.055,1.125-3.363s2.415,3.534,3.039,3.781a28.75,28.75,0,0,0,3.366.628c.139.019,2.23-.156-.953-1.937,0,0-.07.672-1.311-.205a11.541,11.541,0,0,1-2.989-3.681A8.111,8.111,0,0,1,223.286,424.542Z" transform="translate(-221.665 -371.908)" fill="#433f71"/></g><path d="M244.089,355.668a5.115,5.115,0,0,1-.7.476c-3.121,1.828-8.545,1.527-10.188,1.393-.175-1.31-.343-2.511-.476-3.446,3.438-.176,8.611-.309,10.781.251C244.523,354.609,244.882,355.026,244.089,355.668Z" transform="translate(-208.716 -262.621)" fill="#cc7f96"/><path d="M274.575,262.7s.089,3.64-1.064,4.505c-.877.659-8.577.426-12.188.278-1.132-.05-1.863-.085-1.863-.085l.432-3.565.4-3.318Z" transform="translate(-216.531 -235.315)" fill="#e8abb0"/><path d="M278.307,262.149a19.286,19.286,0,0,1,4.979-1.815c2.343-.392,12.8-3.074,12.8-3.074l.815,2.049s-9.7,6.129-19.179,7.209Z" transform="translate(-221.87 -234.362)" fill="#e8abb0"/><path d="M303.674,255.966a3.511,3.511,0,0,0,.815-.984,2.7,2.7,0,0,1,1.386-1.464c.71-.251,1.261-.606,1.459-.527s.133.542-.266.719-.976.623-.946.763a12.03,12.03,0,0,0,1.878-.866,16.421,16.421,0,0,1,2.321-.769c.251.045.074.609-.892.988-.728.285-1.135.657-1.076.838a1.512,1.512,0,0,1,.111,1.815,2.737,2.737,0,0,1-2.045,1.577,15.081,15.081,0,0,0-2.2.125" transform="translate(-229.455 -233.069)" fill="#e8abb0"/><path d="M261.688,260.257s0,4.91-.643,6.906a31.65,31.65,0,0,1-4.4-.057c-.908-.067-1.9-.171-2.942-.341q-.667-.114-1.362-.255V258.4A47.182,47.182,0,0,1,261.688,260.257Z" transform="translate(-214.45 -234.696)" fill="#efc93b"/><path d="M257.114,269.393c-.908-.066-1.9-.171-2.942-.341l-.227-.34.577-2.488S255.894,267.945,257.114,269.393Z" transform="translate(-214.919 -236.982)" fill="#e8ab37"/><path d="M248.084,293s-6.424,4.229-19.177.369c0,0,2.071-7.323,1.372-12.119a26.39,26.39,0,0,0-1.873-5.6c-.587-1.372-1.248-2.81-1.93-4.229-1.173-2.45-2.384-4.8-3.273-6.48a2.748,2.748,0,0,1,1.428-3.831,44.308,44.308,0,0,1,19.1-2.744c.548,1.268,1.523,5.534,2.072,6.339,2.734,4.011,2.393,4.447,1.816,7.445C246.8,276.356,245.993,286.631,248.084,293Z" transform="translate(-205.841 -234.655)" fill="#efc93b"/><path d="M230.814,273.028s-.34,4.011-.927,6.935c-.587-1.372-1.248-2.81-1.93-4.229Z" transform="translate(-207.323 -238.971)" fill="#e8ab37"/><path d="M231.205,306.163s-2.262,1.911-3.042,8.463,3.042,26.833,3.042,26.833,5.851,2.808,21.139,0c0,0,.311-24.726-3.12-36Z" transform="translate(-207.352 -248.451)" fill="#223c75"/><path d="M234.239,255.664s-1.4,2.507-2.359,2.761c0,0,4.446,1.765,7.3,1.524a5.934,5.934,0,0,0,4.306-2.875,3.136,3.136,0,0,1-2.65-2.9" transform="translate(-208.47 -233.461)" fill="#e8abb0"/><path d="M242.129,247.936s-.058.647-.116,1.284c-.058.55-.106,1.091-.116,1.207-.125,1.343-.077,2.414-.27,4.21l-6.412-1.4s1.139-1.217.376-7.377l6.422,2.037Z" transform="translate(-209.444 -231.03)" fill="#e8abb0"/><path d="M243.7,248.777s-.058.647-.116,1.284a16.144,16.144,0,0,1-2.984-.27l2.984-1.053Z" transform="translate(-211.02 -231.871)" fill="#cc7f96"/><g transform="translate(12.931)"><path d="M237.446,225.6s1.95-1.425,3.555-.195,1.807,3.781,1.023,5.515-4.817-3.619-4.817-3.619" transform="translate(-222.958 -224.905)" fill="#353361"/><path d="M244.034,241.078a1.234,1.234,0,0,1-.808,1.224,17.185,17.185,0,0,1-8.151,1.043c-4.233-.613-8.329-12.228.2-16.162C236.932,226.419,243.457,231.589,244.034,241.078Z" transform="translate(-220.934 -225.549)" fill="#e8abb0"/><path d="M222.737,237.71s-1.473.344-1.856,1.224c0,0,1.789-.8,2.569-.151" transform="translate(-218.186 -228.648)" fill="#353361"/><path d="M222.977,235.206s-3.2.791-5.156-1.4c-2.7-3.031,2.453-9.351,6.663-3.478" transform="translate(-217.073 -225.784)" fill="#353361"/><path d="M223.791,236.631a1.228,1.228,0,0,1-.714-.835A6.9,6.9,0,0,1,225.2,229.5s.656-.592,1.114-.24" transform="translate(-218.791 -226.147)" fill="#eabf3e"/><path d="M232.408,243.8s-7-1.974-8.665-8.7,8.486-13.361,12.757-6.955c0,0-3.028.643-3.856,2.89s-.3,5.505-1.188,4.948a1.355,1.355,0,0,0-2.016,1.447c.162,1.05,1.787,2.311,2.62,3.727A3.375,3.375,0,0,1,232.408,243.8Z" transform="translate(-218.969 -225.092)" fill="#353361"/><path d="M239.754,227.528s3.274,3.334-3.611,6.638c.345-1.306-1.521-4.5-1.521-4.5" transform="translate(-222.202 -225.672)" fill="#353361"/></g><g transform="translate(0 47.726)"><rect width="30.403" height="20.999" rx="0.72" transform="matrix(-0.973, 0.233, -0.233, -0.973, 34.457, 20.421)" fill="#433f71"/><rect width="27.286" height="18.845" transform="translate(32.691 19.737) rotate(166.534)" fill="#fff"/><rect width="1.396" height="7.242" transform="translate(29.085 7.849) rotate(-13.587)" fill="#9b9bb6"/></g><path d="M221.54,291.193s-3.6-.559-4.245-1.847c-.493-.98,1.1-8.517,1.891-12.044.251-1.1.415-1.819.415-1.819l3.432,1.058,3.194.985Z" transform="translate(-204.179 -239.689)" fill="#e8abb0"/><path d="M221.424,294.79a19.3,19.3,0,0,1,.9,5.221c-.03,2.376.752,13.146.752,13.146l-2.161.437s-4.31-10.63-3.688-20.155Z" transform="translate(-204.169 -244.938)" fill="#e8abb0"/><path d="M222.465,321.738a14.376,14.376,0,0,0,.565,3.114c.966,2.132,3.681.1,3.985-.473,0,0-.789.1-1.343-1.422a3.029,3.029,0,0,0-.849-1.009,2.233,2.233,0,0,1-.2-.646" transform="translate(-205.718 -253.081)" fill="#e8abb0"/><path d="M222.13,264.539a95.6,95.6,0,0,0-2.446,10.568,19.493,19.493,0,0,0,6.839,1.449,39.783,39.783,0,0,0,2.052-6.921" transform="translate(-204.905 -236.49)" fill="#efc93b"/></g><g transform="translate(259.328 254.72)"><path d="M357.277,384.088s11.288-.612,11.3-2.906c.01-1.783-6.9-.274-6.9-.274a86.033,86.033,0,0,0,11.044-3.985,6.127,6.127,0,0,0,2.084-1.492,2.207,2.207,0,0,0,.335-2.406c-.587-1.007-2-1.088-3.156-.949-4.649.562-7.917,3.048-12.1,5.149a38.336,38.336,0,0,0,8.342-5.788c2.347-2.1,5.08-4.065,6.645-6.87.98-1.757,1.369-4.353-.367-5.8-1.684-1.4-4.1-.747-5.945-.1a24.255,24.255,0,0,0-12.179,9.621,41.774,41.774,0,0,0,1.717-6.335c.163-.868.224-1.937-.493-2.451-.93-.667-2.171.225-2.894,1.111A21.857,21.857,0,0,0,350.8,367.9c.57-5.926,1.134-11.969-.155-17.78a9.38,9.38,0,0,0-1.529-3.745,4.064,4.064,0,0,0-3.507-1.709,5.332,5.332,0,0,0-3.195,2.009,17.671,17.671,0,0,0-.555,22.9,24.3,24.3,0,0,0-4.617-3.78c-.379-.238-.935-.444-1.22-.1a.9.9,0,0,0-.123.665c.26,2.817,2.149,5.18,3.958,7.356a18.284,18.284,0,0,0-15.059-6.229,2.175,2.175,0,0,0-1.8.79,1.88,1.88,0,0,0-.167,1.151c.3,2.826,2.793,4.875,5.245,6.312,2.062,1.21,4.233,2.22,6.4,3.229a17.584,17.584,0,0,0-3.745-.132,1.03,1.03,0,0,0-.777.292c-.328.428.134,1.009.572,1.326a16.648,16.648,0,0,0,10.93,3.071" transform="translate(-322.818 -344.644)" fill="#335a9d"/><path d="M374.44,366.956c.139-.1.275.121.142.222a63.637,63.637,0,0,0-9.85,9.17,76.186,76.186,0,0,0-7.642,11.074.127.127,0,0,1-.224-.119c3.844-8.061,10.388-15.15,17.574-20.348ZM358.2,369.868A42.835,42.835,0,0,0,355.31,387.5a.112.112,0,0,0,.224-.009,54.147,54.147,0,0,1,2.962-17.506c.064-.17-.234-.283-.3-.113Zm-7.148-11.674a81.871,81.871,0,0,0,2.411,29.448c.043.157.267.078.236-.075a129.794,129.794,0,0,1-2.289-14.88,124.138,124.138,0,0,1-.186-14.477c0-.1-.162-.114-.172-.016Zm-8.768,14.493c2.914,4.14,6.142,11.8,9.969,15.136a.159.159,0,0,0,.215-.233c-3.458-3.8-6.848-10.933-9.95-15.053-.106-.141-.338,0-.234.15Zm31.4,6.415c-5.779,2.606-11.738,5.673-16.635,9.747-.152.126,0,.384.171.267,5.392-3.58,10.61-7.1,16.54-9.778.144-.065.07-.3-.076-.236Zm-35.936-.715c4.208,2.514,8.708,7.88,13.3,9.633.145.055.264-.147.117-.219-4.446-2.173-8.99-7.18-13.291-9.641-.145-.083-.263.143-.121.228Z" transform="translate(-327.162 -348.585)" opacity="0.45" fill="url(#a)" style="mix-blend-mode:multiply;isolation:isolate"/><path d="M365.579,426.313H349.6l-4.325-26.884H369.9Z" transform="translate(-329.383 -360.657)" fill="#9ad0ec"/><path d="M371.943,426.313H367.1l4.341-26.884h4.839Z" transform="translate(-335.763 -360.657)" fill="#78bddd"/></g><g transform="translate(283.452 53.919)"><path d="M396.78,103.63H362.4a3.507,3.507,0,0,1,.336-1.2,38.689,38.689,0,0,1,4.847-6.171c3.565-1.091,5.389-1.328,10.751-2.2l6.054-.391s7.685,1.784,10.272,3.633A8.825,8.825,0,0,1,396.78,103.63Z" transform="translate(-358.513 -70.483)" fill="#efc93b"/><path d="M385.385,107.169H362.4a3.829,3.829,0,0,1,.336-1.2,5.23,5.23,0,0,1,2.725-.022c.841.224,1.4.37,1.4.37h14.95C384.734,106.317,385.385,107.169,385.385,107.169Z" transform="translate(-358.513 -74.023)" fill="#da8f35"/><path d="M390.285,83.666a9.462,9.462,0,0,0,.1-2.645,6.019,6.019,0,0,0-1.2-2.346,6.41,6.41,0,0,0-1.275.317c.022.047,0,1.791,0,1.791s.435,2.5.561,2.758a11.322,11.322,0,0,0,.711,1.284,3.559,3.559,0,0,0,.589-.19Z" transform="translate(-365.968 -66.1)" fill="#e8abb0"/><path d="M385.537,94.766a1.918,1.918,0,0,1-1.972-1.473,7.643,7.643,0,0,0-.479-1.217c-.258-.571-.562-1.2-.755-1.714l2.018-1.474,4.3-3.16s.534,4.035,1.566,5.62C390.218,91.348,390.559,94.481,385.537,94.766Z" transform="translate(-364.338 -68.162)" fill="#e8abb0"/><path d="M386.523,89.165a17.028,17.028,0,0,1-3.437,3.916c-.258-.571-.562-1.2-.755-1.714l2.018-1.474Z" transform="translate(-364.338 -69.167)" fill="#cc7f96"/><path d="M383.883,79.846a12.34,12.34,0,0,1,.053,2.386,1.819,1.819,0,0,1-.042.258,1.974,1.974,0,0,1-.057.259c-.682,2.7-9.023,5.794-9.275,5.632-4.66-3-6.276-14.087-5.79-14.824.534-.81,7.141-1.576,7.278-1.588s6.486.446,6.486.446A68.4,68.4,0,0,1,383.883,79.846Z" transform="translate(-360.35 -64.141)" fill="#e8abb0"/><path d="M364.472,67.714s.205,4.844,8.163,2.906c2.184-.531,4.111-1.028,5.194-.444,1.626,5.117,1.679,7.572,2.255,7.371.72-.252-1.232-4.5,1.257-4.044,1.9.352,2.069,4.969,2.069,4.969s.162.377.229-.7c.04-.642.482-11.025-1.093-13.2a2.891,2.891,0,0,0-3.827-.862s.134-5.253-7.4-1.38c-4.347,2.236-6.45.715-6.438.851A9.374,9.374,0,0,0,364.472,67.714Z" transform="translate(-359.093 -60.907)" fill="#242966"/><path d="M377.966,156.916a7.848,7.848,0,0,1-.97.963,2.667,2.667,0,0,1-1.284.518,3.076,3.076,0,0,0-1.377,1.057c-.187.228,0,.331.393.248s.9-.393,1.066-.393.166.2,0,.567a4.1,4.1,0,0,1-.89,1.173c-.27.207-1.016.621-1.1.87s-.021.373.373.248a10.526,10.526,0,0,0,1.326-.7,2.319,2.319,0,0,0,.5-.389,3.3,3.3,0,0,0,1.1.113,1.214,1.214,0,0,0,.516-.226,1.022,1.022,0,0,0,.162-.038c.352-.143.539-1.365.725-1.7a14.185,14.185,0,0,1,1.758-1.538Z" transform="translate(-361.836 -88.97)" fill="#e8abb0"/><path d="M363.635,109.606a1.752,1.752,0,0,1-.83-.606c-.112-.112-.269-.3-.437-.5-.156-.113-.3-.213-.426-.292a1.17,1.17,0,0,0-.65-.213h-.034v-.011c-1.626-.033-2.354-.74-4.351-.74,0,0,4.665-2.243,7.48-.65a9.489,9.489,0,0,0,1.189.123c.819.011.583.426.325.561a3.8,3.8,0,0,1-.549.1l.045.045c.123.134.236.269.337.392.359.438.841,1.01.931,1.1.123.146.045.236.045.236C366.883,109.416,365.083,110.322,363.635,109.606Z" transform="translate(-356.906 -74.093)" fill="#e8abb0"/><path d="M368.99,107.509a3.8,3.8,0,0,1-.549.1,7.813,7.813,0,0,0-.965-.785,9.49,9.49,0,0,0,1.189.123C369.484,106.959,369.248,107.374,368.99,107.509Z" transform="translate(-359.996 -74.329)" opacity="0.47" fill="url(#b)" style="mix-blend-mode:multiply;isolation:isolate"/><path d="M400.813,134.073s-5.1-.758-5.476-1.736c-.224-.579-.157-5.232-.062-8.9.016-.785.039-1.531.064-2.172.03-1.409.067-2.367.067-2.367l9.523.894C404.037,123.9,400.813,134.073,400.813,134.073Z" transform="translate(-368.095 -77.858)" fill="#e8abb0"/><path d="M390.576,137.615a29.507,29.507,0,0,0-3.872,3.538c-.841,1.009-3.459,5-5.468,7.751a26.026,26.026,0,0,1-2.334,2.78l1.258,1.248s5.219-3.441,9.512-6.681,5.615-4.437,6.382-6.9S392.108,136.364,390.576,137.615Z" transform="translate(-363.335 -83.138)" fill="#e8abb0"/><path d="M394.876,106.057l.321,8.72s5.136,1.8,9.763.7c0,0,2.917-6.9.6-13.5" transform="translate(-368.005 -72.911)" fill="#efc93b"/><line y1="18.329" transform="translate(18.1 31.464)" fill="none" stroke="#222967" stroke-linecap="round" stroke-miterlimit="10" stroke-width="5.414"/></g></g></svg>