<svg xmlns="http://www.w3.org/2000/svg" width="92" height="92" viewBox="0 0 92 92"><g transform="translate(-676.492 -5756)"><circle cx="46" cy="46" r="46" transform="translate(676.492 5756)" fill="#c3bbfb"/><g transform="translate(437.373 5741.162)"><g transform="translate(245 44.936)"><g transform="translate(6.739 11.192)"><rect width="63.951" height="8.945" transform="translate(0.806 18.416)" fill="#0b1c18"/><rect width="64.757" height="1.448" transform="translate(0 21.456)" fill="#112b25"/><rect width="64.757" height="1.448" transform="translate(0 18.416)" fill="#183d36"/><path d="M293.421,53.158V73.466c0,2.244-2.549,4.381-2.549,7.054h2.549s1.062-8.634,8.995-8.634,8.994,8.634,8.994,8.634h7.932V68.29a1.842,1.842,0,0,0-.29-1.093c-.1-.122-.469-.184-.53-.359l-4.336-10.508c-.046-.1.176-.509.131-.6-.868-1.85-1.207-2.568-1.207-2.568Z" transform="translate(-246.653 -53.158)" fill="#16a085"/><path d="M296.051,55.034h15.932l1.106,14.128v4.227h-3.142s-1.581-3.1-2.6-3.1h-11.3Z" transform="translate(-246.079 -52.95)" fill="#1abc9c"/><g transform="translate(4.139 20.439)"><path d="M271.223,79.772a8.215,8.215,0,1,1-8.216-8.215A8.216,8.216,0,0,1,271.223,79.772Z" transform="translate(-254.792 -71.557)" fill="#34495e"/><path d="M267.057,79.394a4.428,4.428,0,1,1-4.428-4.428A4.428,4.428,0,0,1,267.057,79.394Z" transform="translate(-254.414 -71.179)" fill="#ccc8bc"/><path d="M264.4,79.152a2.008,2.008,0,1,1-2.008-2.007A2.008,2.008,0,0,1,264.4,79.152Z" transform="translate(-254.172 -70.937)" fill="#e6e1d3"/><path d="M265.651,79a.514.514,0,1,1-.513-.513A.513.513,0,0,1,265.651,79Z" transform="translate(-253.702 -70.788)" fill="#081412"/><circle cx="0.513" cy="0.513" r="0.513" transform="translate(9.979 5.425)" fill="#081412"/><path d="M262.238,75.591a.514.514,0,1,1-.513.514A.514.514,0,0,1,262.238,75.591Z" transform="translate(-254.023 -71.11)" fill="#081412"/><path d="M259.825,76.591a.514.514,0,1,1,0,.727A.514.514,0,0,1,259.825,76.591Z" transform="translate(-254.251 -71.016)" fill="#081412"/><path d="M258.826,79a.514.514,0,1,1,.514.513A.514.514,0,0,1,258.826,79Z" transform="translate(-254.345 -70.788)" fill="#081412"/><path d="M259.825,81.415a.514.514,0,1,1,.728,0A.517.517,0,0,1,259.825,81.415Z" transform="translate(-254.251 -70.561)" fill="#081412"/><path d="M262.238,82.416a.514.514,0,1,1,.513-.514A.514.514,0,0,1,262.238,82.416Z" transform="translate(-254.023 -70.467)" fill="#081412"/><path d="M264.65,81.415a.513.513,0,1,1,0-.727A.512.512,0,0,1,264.65,81.415Z" transform="translate(-253.796 -70.561)" fill="#081412"/><path d="M262.4,79.134a.929.929,0,1,1-.082-1.447A1.036,1.036,0,0,1,262.4,79.134Z" transform="translate(-254.139 -70.893)" fill="#fff9ea"/></g><g transform="translate(47.749 20.439)"><path d="M310.48,79.772a8.215,8.215,0,1,1-8.215-8.215A8.215,8.215,0,0,1,310.48,79.772Z" transform="translate(-294.05 -71.557)" fill="#34495e"/><path d="M306.315,79.394a4.428,4.428,0,1,1-4.428-4.428A4.428,4.428,0,0,1,306.315,79.394Z" transform="translate(-293.672 -71.179)" fill="#ccc8bc"/><path d="M303.653,79.152a2.007,2.007,0,1,1-2.007-2.007A2.007,2.007,0,0,1,303.653,79.152Z" transform="translate(-293.43 -70.937)" fill="#e6e1d3"/><path d="M304.909,79a.514.514,0,1,1-.513-.513A.513.513,0,0,1,304.909,79Z" transform="translate(-292.96 -70.788)" fill="#081412"/><path d="M303.908,76.591a.513.513,0,1,1-.725,0A.513.513,0,0,1,303.908,76.591Z" transform="translate(-293.054 -71.016)" fill="#081412"/><path d="M301.5,75.591a.514.514,0,1,1-.514.514A.514.514,0,0,1,301.5,75.591Z" transform="translate(-293.281 -71.11)" fill="#081412"/><path d="M299.083,76.591a.514.514,0,1,1,0,.727A.514.514,0,0,1,299.083,76.591Z" transform="translate(-293.509 -71.016)" fill="#081412"/><path d="M298.084,79a.514.514,0,1,1,.514.513A.514.514,0,0,1,298.084,79Z" transform="translate(-293.603 -70.788)" fill="#081412"/><path d="M299.083,81.415a.514.514,0,1,1,.728,0A.515.515,0,0,1,299.083,81.415Z" transform="translate(-293.509 -70.561)" fill="#081412"/><path d="M301.5,82.416a.514.514,0,1,1,.513-.514A.515.515,0,0,1,301.5,82.416Z" transform="translate(-293.281 -70.467)" fill="#081412"/><path d="M303.908,81.415a.513.513,0,1,1,0-.727A.512.512,0,0,1,303.908,81.415Z" transform="translate(-293.054 -70.561)" fill="#081412"/><path d="M301.661,79.134a.929.929,0,1,1-.082-1.447A1.038,1.038,0,0,1,301.661,79.134Z" transform="translate(-293.397 -70.893)" fill="#fff9ea"/></g><rect width="12.384" height="9.355" rx="1.782" transform="translate(51.794 3.172)" fill="#40dfff"/><path d="M307.516,56.013h-4.592v9.356h4.592a1.98,1.98,0,0,0,1.98-1.98v-5.4A1.98,1.98,0,0,0,307.516,56.013Z" transform="translate(-245.317 -52.841)" fill="#3498db"/><path d="M311.911,56.014a2.944,2.944,0,0,0-.5,2.124c.187,1.59.928,6.68,1.357,7.231s2.318,1.093,3.477,1.153A52.834,52.834,0,0,0,311.911,56.014Z" transform="translate(-244.379 -52.841)" fill="#40dfff"/><rect width="23.046" height="1.556" transform="translate(21.033 25.09)" fill="#e8fffb"/><path d="M270,75.744V77.3h5.06l1.32-1.556Z" transform="translate(-248.967 -50.654)" fill="#e03100"/><path d="M291.339,75.744h-4.616L285.4,77.3h5.937Z" transform="translate(-247.26 -50.654)" fill="#e03100"/><path d="M1.127,0h1.1a0,0,0,0,1,0,0V5.19a0,0,0,0,1,0,0h-1.1A1.127,1.127,0,0,1,0,4.062V1.127A1.127,1.127,0,0,1,1.127,0Z" transform="translate(70.462 20.438)" fill="#f1c40f"/><path d="M.466,0H3.017a.465.465,0,0,1,.465.465V.571a.465.465,0,0,1-.465.465H.466A.466.466,0,0,1,0,.57v-.1A.466.466,0,0,1,.466,0Z" transform="translate(51.871 14.829)" fill="#c96500"/></g><path d="M256.388,45.694l40.52-2.611V72.814H245V57.839A12.171,12.171,0,0,1,256.388,45.694Z" transform="translate(-245 -43.083)" fill="#f39c12"/><path d="M280.292,46.572V69.806h8.645V46.1Z" transform="translate(-241.087 -42.748)" fill="#e67e22"/><path d="M269.568,47.155V69.741h8.645V46.685Z" transform="translate(-242.276 -42.684)" fill="#e67e22"/><path d="M258.846,47.739V69.676h8.645V47.269Z" transform="translate(-243.465 -42.619)" fill="#e67e22"/><path d="M248.122,56.39V69.612h8.645V47.852l-.588.031A8.521,8.521,0,0,0,248.122,56.39Z" transform="translate(-244.654 -42.554)" fill="#e67e22"/></g><g transform="translate(276.499 30.452)"><path d="M276.241,41.756l-.845,1.561,1.518.694V42.884l-.651-.151.564-.345-.152-.93Z" transform="translate(-273.13 -28.78)" fill="#f39c12"/><path d="M279.21,41.9l.913-.343a8.021,8.021,0,0,0,.715.962V41.8l.568.568-.493.814-1.9-.237Z" transform="translate(-272.728 -28.769)" fill="#2ecc71"/><path d="M275.589,37.274c.363.57,1.475,1.413,1.7,1.259a3.75,3.75,0,0,0,.194-2.683C277.2,35.549,275.226,36.705,275.589,37.274Zm.906-.418a.322.322,0,1,1-.212.4A.322.322,0,0,1,276.5,36.856Z" transform="translate(-273.113 -29.407)" fill="#bdc3c7"/><path d="M274.681,31.717l.514.008a8.921,8.921,0,0,0,1.633,5.263l-.42.3A9.43,9.43,0,0,1,274.681,31.717Z" transform="translate(-273.209 -29.859)" fill="#bdc3c7"/><path d="M275.038,32.317c.257.092,1.923-1.619,2.011-1.747s-1.85-.039-2.058.359a2.387,2.387,0,0,0-1.6-.882C273.142,30.072,274.319,32.055,275.038,32.317Z" transform="translate(-273.356 -30.045)" fill="#bdc3c7"/><path d="M276.821,35.235a.981.981,0,0,1-.05.359,1.36,1.36,0,0,1-.453.668,1.441,1.441,0,0,1-.192.122,1.173,1.173,0,0,1-.2.082,1.11,1.11,0,0,1-.383.038.9.9,0,0,1-.26-.06c-.06-.022-.092-.038-.092-.038s.037-.011.1-.026.142-.036.237-.061a2.707,2.707,0,0,0,.3-.118,1.776,1.776,0,0,0,.3-.193,2.972,2.972,0,0,0,.488-.5Z" transform="translate(-273.153 -29.469)" fill="#bdc3c7"/><path d="M276.87,34.447a1.541,1.541,0,0,1-.2.454,2.039,2.039,0,0,1-.814.753,1.948,1.948,0,0,1-.29.111,1.85,1.85,0,0,1-.3.058,1.659,1.659,0,0,1-.524-.04,1.339,1.339,0,0,1-.34-.131c-.078-.041-.119-.067-.119-.067l.135.006a3.422,3.422,0,0,0,.344.009c.068,0,.143-.014.221-.017s.157-.03.239-.039c.08-.026.163-.041.244-.074a1.661,1.661,0,0,0,.243-.1,3.479,3.479,0,0,0,.813-.581C276.733,34.595,276.87,34.447,276.87,34.447Z" transform="translate(-273.253 -29.557)" fill="#bdc3c7"/><path d="M276.919,33.253s-.006.063-.027.17a1.86,1.86,0,0,1-.16.424,2.2,2.2,0,0,1-.979.974,1.941,1.941,0,0,1-.369.138,2.06,2.06,0,0,1-.375.064,1.828,1.828,0,0,1-.658-.089,1.441,1.441,0,0,1-.409-.207c-.089-.063-.135-.1-.135-.1s.064-.01.17-.018l.186-.012c.07-.009.149-.021.23-.026s.168-.033.257-.043.18-.047.272-.064c.089-.036.184-.053.274-.1a2.118,2.118,0,0,0,.274-.12,6.293,6.293,0,0,0,.979-.63C276.73,33.4,276.919,33.253,276.919,33.253Z" transform="translate(-273.306 -29.689)" fill="#bdc3c7"/><path d="M276.537,32.937a1.561,1.561,0,0,1-.283.409,2.037,2.037,0,0,1-.941.588,1.819,1.819,0,0,1-.305.056,1.7,1.7,0,0,1-.3,0,1.64,1.64,0,0,1-.509-.137,1.3,1.3,0,0,1-.309-.193c-.069-.054-.105-.088-.105-.088l.133.031a3.269,3.269,0,0,0,.335.073c.069.013.144.013.221.026s.16,0,.242.006c.083-.01.169-.01.255-.028a1.5,1.5,0,0,0,.258-.056,3.416,3.416,0,0,0,.908-.419C276.375,33.056,276.537,32.937,276.537,32.937Z" transform="translate(-273.308 -29.724)" fill="#bdc3c7"/><path d="M276.059,32.585a.965.965,0,0,1-.257.255,1.376,1.376,0,0,1-.764.259,1.3,1.3,0,0,1-.228-.02,1.179,1.179,0,0,1-.213-.058,1.116,1.116,0,0,1-.328-.2.866.866,0,0,1-.171-.2.662.662,0,0,1-.05-.086l.091.038c.056.028.135.059.227.1a2.757,2.757,0,0,0,.311.088,1.706,1.706,0,0,0,.357.027,2.885,2.885,0,0,0,.691-.1Z" transform="translate(-273.279 -29.769)" fill="#bdc3c7"/><path d="M275.67,32.077a.585.585,0,0,1-.158.2.851.851,0,0,1-.524.2.964.964,0,0,1-.16-.016.7.7,0,0,1-.149-.044.673.673,0,0,1-.222-.154.508.508,0,0,1-.1-.154.549.549,0,0,1-.028-.066s.028.006.069.018.1.028.16.046.133.028.206.04a1.659,1.659,0,0,0,.224.01,2.968,2.968,0,0,0,.449-.044Z" transform="translate(-273.248 -29.824)" fill="#bdc3c7"/><g transform="translate(3.905 9.166)"><path d="M280.131,40.086a2.436,2.436,0,0,0-2.563-.5,3.567,3.567,0,0,1,.225.288,2.775,2.775,0,0,1,.36,2.073,3.055,3.055,0,0,1-1.212,1.722c-.022.016-.047.027-.071.041a2.434,2.434,0,0,0,2.443.433A2.98,2.98,0,0,1,280.131,40.086Z" transform="translate(-276.871 -38.171)" fill="#f1e3ab"/><path d="M279.9,40.054a1.331,1.331,0,0,1,.142.047c.007,0,.012-.01.02-.014a2.433,2.433,0,0,0-2.548-.5,1.111,1.111,0,0,1,.621.378,1.17,1.17,0,0,1,.6-.018,1.184,1.184,0,0,1,.417.184A1.112,1.112,0,0,1,279.9,40.054Z" transform="translate(-276.8 -38.171)" fill="#c0392b"/><path d="M279.3,43.716a1.15,1.15,0,0,1-.475-.363,1.121,1.121,0,0,1-.707.054,1.174,1.174,0,0,1-.475-.223,1.194,1.194,0,0,1-.755.1l-.021.012a2.434,2.434,0,0,0,2.443.433Z" transform="translate(-276.871 -37.754)" fill="#c0392b"/><path d="M278.718,41.628c-.05.161-.146.275-.213.254s-.081-.169-.031-.331.146-.275.212-.254S278.768,41.466,278.718,41.628Z" transform="translate(-276.697 -37.963)" fill="#853500"/><path d="M278.3,41.531c-.007.138-.059.247-.116.244s-.1-.117-.093-.254.058-.248.117-.245S278.31,41.392,278.3,41.531Z" transform="translate(-276.735 -37.966)" fill="#853500"/><path d="M278.185,43.843c-.011.046-.129.057-.267.027s-.239-.092-.23-.138.13-.057.267-.026S278.195,43.8,278.185,43.843Z" transform="translate(-276.781 -37.698)" fill="#592400"/><path d="M278.627,39.681A5.426,5.426,0,0,1,278.8,38.4c.066-.19.347-.094.235.074a6.447,6.447,0,0,0-.314,1.228C278.713,39.8,278.632,39.79,278.627,39.681Z" transform="translate(-276.676 -38.296)" fill="#592400"/><path d="M278.706,39.618c.3-.421,1.062-.062,1.294-.37C280.013,40.184,278.817,39.993,278.706,39.618Z" transform="translate(-276.668 -38.19)" fill="#27ae60"/><path d="M278.719,39.637a.977.977,0,0,0-1.023-.89C278.008,39.078,277.773,39.739,278.719,39.637Z" transform="translate(-276.78 -38.246)" fill="#27ae60"/></g><path d="M276.525,40.093a.406.406,0,1,1-.407-.405A.407.407,0,0,1,276.525,40.093Z" transform="translate(-273.094 -28.976)" fill="#f1c40f"/><path d="M277.586,40.093a.407.407,0,1,1-.405-.405A.406.406,0,0,1,277.586,40.093Z" transform="translate(-272.977 -28.976)" fill="#f1c40f"/><path d="M276.975,41.112a.407.407,0,1,1-.407-.405A.408.408,0,0,1,276.975,41.112Z" transform="translate(-273.045 -28.863)" fill="#f1c40f"/><path d="M278.22,41.246a.407.407,0,1,1-.408-.408A.407.407,0,0,1,278.22,41.246Z" transform="translate(-272.907 -28.848)" fill="#f1c40f"/><path d="M276.243,42.061a.406.406,0,1,1-.405-.407A.407.407,0,0,1,276.243,42.061Z" transform="translate(-273.126 -28.758)" fill="#f1c40f"/></g><g transform="translate(250.162 26.37)"><path d="M7.669,0H27a0,0,0,0,1,0,0V16.049a0,0,0,0,1,0,0H0a0,0,0,0,1,0,0V7.669A7.669,7.669,0,0,1,7.669,0Z" transform="matrix(0.995, -0.099, 0.099, 0.995, 0, 3.088)" fill="#16a085"/><path d="M259.769,33.34l16.492-1.645c.224-.022.444-.024.665-.032l-.491-4.926-18.393,1.835a8.519,8.519,0,0,0-7.631,9.322l.405,4.065A10.332,10.332,0,0,1,259.769,33.34Z" transform="translate(-249.567 -26.329)" fill="#1abc9c"/><rect width="3.762" height="16.049" transform="translate(20.803 1.013) rotate(-5.699)" fill="#f39c12"/><rect width="3.762" height="4.916" transform="translate(20.803 1.013) rotate(-5.7)" fill="#f1c40f"/><rect width="1" height="16.049" transform="translate(26.868 0.408) rotate(-24.063)" fill="#1abc9c"/><path d="M281.013,40.625h0l-6.2-13.9h0a1.761,1.761,0,0,1,2.326.891L281.9,38.3A1.761,1.761,0,0,1,281.013,40.625Z" transform="translate(-246.857 -26.348)" fill="#16a085"/><path d="M255.646,43.353a2.572,2.572,0,1,1-2.814-2.3A2.572,2.572,0,0,1,255.646,43.353Z" transform="translate(-249.551 -24.744)" fill="#572300"/><path d="M254.551,43.352a1.571,1.571,0,1,1-1.721-1.407A1.571,1.571,0,0,1,254.551,43.352Z" transform="translate(-249.451 -24.644)" fill="#bdc3c7"/></g><g transform="translate(261.722 34.676)"><path d="M269.78,35.026l1.866,18.707a3.81,3.81,0,0,1-3.414,4.17h-.006a3.811,3.811,0,0,1-4.171-3.414L262.19,35.782a1.072,1.072,0,0,0-1.173-.959h0A1.071,1.071,0,0,0,260.059,36l2.974,29.811a5.953,5.953,0,0,0,6.513,5.331h.009a5.951,5.951,0,0,0,5.331-6.513L271.91,34.812a1.071,1.071,0,0,0-1.171-.96h0A1.072,1.072,0,0,0,269.78,35.026Z" transform="translate(-260.053 -33.847)" fill="#d35400"/><path d="M271.422,62.665a3.023,3.023,0,1,1-3.022-3.024A3.021,3.021,0,0,1,271.422,62.665Z" transform="translate(-259.463 -30.988)" fill="#e67e22"/></g></g></g></svg>