<svg xmlns="http://www.w3.org/2000/svg" width="92" height="92" viewBox="0 0 92 92"><g transform="translate(-918.492 -5756)"><circle cx="46" cy="46" r="46" transform="translate(918.492 5756)" fill="#c3bbfb"/><g transform="translate(681.648 5632.517)"><g transform="translate(249.597 138.066)"><g transform="translate(0 41.849)"><path d="M282.276,178.141H253.044A49.07,49.07,0,0,1,249.6,196.76a168.747,168.747,0,0,0,36.127,0A49.092,49.092,0,0,1,282.276,178.141Z" transform="translate(-249.597 -178.141)" fill="#f1e3ab"/><path d="M253.044,178.141A49.07,49.07,0,0,1,249.6,196.76q.684.074,1.37.141a53.9,53.9,0,0,0,3.187-18.76Z" transform="translate(-249.597 -178.141)" fill="#ccc191"/><path d="M255.028,178.141a58.868,58.868,0,0,1-2.955,18.877q.686.063,1.371.12a65.4,65.4,0,0,0,2.693-19Z" transform="translate(-249.487 -178.141)" fill="#ccc191"/><path d="M257.011,178.141a72.319,72.319,0,0,1-2.461,19.1q.686.052,1.371.1a81.768,81.768,0,0,0,2.2-19.195Z" transform="translate(-249.378 -178.141)" fill="#ccc191"/><path d="M258.994,178.141a92.342,92.342,0,0,1-1.967,19.273q.686.042,1.371.078a107.24,107.24,0,0,0,1.705-19.351Z" transform="translate(-249.268 -178.141)" fill="#ccc191"/><path d="M260.977,178.141a124.847,124.847,0,0,1-1.473,19.412q.685.031,1.37.057a152.883,152.883,0,0,0,1.212-19.469Z" transform="translate(-249.158 -178.141)" fill="#ccc191"/><path d="M262.946,178.141a189.651,189.651,0,0,1-.966,19.511c.457.014.914.026,1.372.035q.732-9.831.708-19.547Z" transform="translate(-249.049 -178.141)" fill="#ccc191"/><path d="M264.936,178.141q.006,9.727-.479,19.57.686.011,1.371.015c.152-6.571.209-13.093.207-19.584Z" transform="translate(-248.939 -178.141)" fill="#ccc191"/><path d="M268.039,178.141h-1.111q0,9.74.007,19.589c.456,0,.914,0,1.37-.006Q268.031,187.873,268.039,178.141Z" transform="translate(-248.83 -178.141)" fill="#ccc191"/><path d="M270.05,178.141h-1.113q0,9.727.495,19.569.686-.011,1.371-.027Q270.025,187.853,270.05,178.141Z" transform="translate(-248.741 -178.141)" fill="#ccc191"/><path d="M272.043,178.141h-1.1a186.734,186.734,0,0,0,.982,19.508q.685-.02,1.371-.048A147.119,147.119,0,0,1,272.043,178.141Z" transform="translate(-248.652 -178.141)" fill="#ccc191"/><path d="M274.048,178.141h-1.11a123.7,123.7,0,0,0,1.49,19.409q.686-.033,1.371-.07A104.155,104.155,0,0,1,274.048,178.141Z" transform="translate(-248.564 -178.141)" fill="#ccc191"/><path d="M276.052,178.141h-1.11a91.4,91.4,0,0,0,1.984,19.268q.684-.042,1.37-.09A80.022,80.022,0,0,1,276.052,178.141Z" transform="translate(-248.475 -178.141)" fill="#ccc191"/><path d="M278.056,178.141h-1.11a71.852,71.852,0,0,0,2.477,19.088c.457-.034.914-.072,1.372-.111A64.172,64.172,0,0,1,278.056,178.141Z" transform="translate(-248.386 -178.141)" fill="#ccc191"/><path d="M280.06,178.141h-1.11a58.521,58.521,0,0,0,2.971,18.869c.456-.042.915-.086,1.371-.133A53.009,53.009,0,0,1,280.06,178.141Z" transform="translate(-248.298 -178.141)" fill="#ccc191"/><path d="M255.579,179.872h23.84a2.833,2.833,0,0,1,2.821,1.983c-.079-1.239-.124-2.477-.1-3.714H252.9c.02,1.2-.023,2.4-.1,3.6A2.821,2.821,0,0,1,255.579,179.872Z" transform="translate(-249.455 -178.141)" fill="#ccc191" opacity="0.5" style="mix-blend-mode:multiply;isolation:isolate"/></g><path d="M282.94,179.423H252.155l.751-4.325a8.8,8.8,0,0,1,8.672-7.3h11.94a8.8,8.8,0,0,1,8.671,7.3Z" transform="translate(-249.484 -136.75)" fill="#2980b9"/><path d="M267.486,167.8h-5.908a8.8,8.8,0,0,0-8.672,7.3l-.751,4.325h15.331Z" transform="translate(-249.484 -136.75)" fill="#3498db"/><path d="M267.1,138.066h-.007a4.751,4.751,0,0,0-4.746,4.979l1.247,26.072H270.6l1.248-26.072A4.752,4.752,0,0,0,267.1,138.066Zm0,7.006a1.91,1.91,0,1,1,1.912-1.911A1.91,1.91,0,0,1,267.1,145.072Z" transform="translate(-249.033 -138.066)" fill="#2980b9"/><path d="M267.035,145.066a1.905,1.905,0,0,1,0-3.808v-3.188a4.75,4.75,0,0,0-4.689,4.976l1.247,26.072h3.442Z" transform="translate(-249.033 -138.066)" fill="#3498db"/><path d="M271.4,165.125l.163-2.866h-8.959l.162,2.866Z" transform="translate(-249.021 -136.995)" fill="#f1c40f"/><path d="M271.684,160.556l.168-2.972H262.34l.168,2.972Z" transform="translate(-249.033 -137.202)" fill="#f1c40f"/><path d="M267.149,162.259v2.866H271.2l.163-2.866Z" transform="translate(-248.82 -136.995)" fill="#f39c12"/><path d="M267.149,157.583v2.972h4.322l.168-2.972Z" transform="translate(-248.82 -137.202)" fill="#f39c12"/></g><g transform="translate(283.023 138.066)"><path d="M315.528,197.28H281.606l1.461-17.463a11.166,11.166,0,0,1,11.126-10.234h8.748a11.163,11.163,0,0,1,11.126,10.234Z" transform="translate(-281.606 -136.671)" fill="#2980b9"/><path d="M298.5,169.583h-4.307a11.166,11.166,0,0,0-11.126,10.234l-1.461,17.463H298.5Z" transform="translate(-281.606 -136.671)" fill="#3498db"/><path d="M283.543,197.2l1.293-17.308a9.36,9.36,0,0,1,9.271-8.529h8.748a9.361,9.361,0,0,1,9.272,8.529l1.292,17.308Z" transform="translate(-281.52 -136.592)" fill="#1c577d"/><path d="M283.543,197.011l1.293-14.3c.4-3.952,4.473-7.048,9.271-7.048h8.748c4.8,0,8.872,3.1,9.272,7.048l1.292,14.3Z" transform="translate(-281.52 -136.402)" fill="#216794"/><path d="M298.054,138.066h-.008a4.752,4.752,0,0,0-4.747,4.979l1.248,27.933h7.006l1.248-27.933A4.752,4.752,0,0,0,298.054,138.066Zm0,7.006a1.91,1.91,0,1,1,1.911-1.911A1.911,1.911,0,0,1,298.05,145.072Z" transform="translate(-281.089 -138.066)" fill="#2980b9"/><path d="M297.988,145.066a1.905,1.905,0,0,1,0-3.808v-3.188a4.751,4.751,0,0,0-4.69,4.976l1.248,27.933h3.442Z" transform="translate(-281.089 -138.066)" fill="#3498db"/><path d="M302.293,165.332l.513-7.749h-9.513l.484,7.749Z" transform="translate(-281.089 -137.202)" fill="#f1c40f"/><path d="M298.1,157.583v7.749h3.977l.513-7.749Z" transform="translate(-280.876 -137.202)" fill="#f39c12"/><path d="M289.861,179.919h0a3.023,3.023,0,0,0-3.022,3.023v13.88h6.045v-13.88A3.023,3.023,0,0,0,289.861,179.919Z" transform="translate(-281.374 -136.213)" fill="#277ab0"/><path d="M297.976,179.919h0a3.023,3.023,0,0,0-3.023,3.023v13.88H301v-13.88A3.023,3.023,0,0,0,297.976,179.919Z" transform="translate(-281.015 -136.213)" fill="#277ab0"/><path d="M306.091,179.919h0a3.023,3.023,0,0,0-3.024,3.023v13.88h6.046v-13.88A3.023,3.023,0,0,0,306.091,179.919Z" transform="translate(-280.656 -136.213)" fill="#277ab0"/></g></g></g></svg>