<svg xmlns="http://www.w3.org/2000/svg" width="92" height="92" viewBox="0 0 92 92"><g transform="translate(-1158.492 -5756)"><circle cx="46" cy="46" r="46" transform="translate(1158.492 5756)" fill="#c3bbfb"/><g transform="translate(805.823 5738.654)"><g transform="translate(421.15 70.223)"><path d="M0,0H17.519a2.347,2.347,0,0,1,2.347,2.347v.584a2.347,2.347,0,0,1-2.347,2.347H0a0,0,0,0,1,0,0V0A0,0,0,0,1,0,0Z" transform="translate(0 6.924)" fill="#6e2c00"/><path d="M427.1,69.484H414v4.011H427.1a2,2,0,0,0,2-2v-.006A2,2,0,0,0,427.1,69.484Z" transform="translate(-413.987 -66.412)" fill="#6e2c00"/><path d="M422.368,66.748H414v3.109h8.37A1.552,1.552,0,0,0,423.92,68.3v0A1.552,1.552,0,0,0,422.368,66.748Z" transform="translate(-413.987 -66.748)" fill="#6e2c00"/><path d="M421.661,71.2l-1.4,2.58,2.508,1.147V73.063l-1.075-.25.932-.57-.251-1.538Z" transform="translate(-413.218 -66.262)" fill="#ecf0f1"/><path d="M425.56,74.52l1.326-.5a11.6,11.6,0,0,0,1.04,1.4V74.376l.823.824-.716,1.182-2.76-.344Z" transform="translate(-412.603 -65.855)" fill="#ecf0f1"/><path d="M416.625,68.675l2.408.737.172-1.941h-1.934Z" transform="translate(-413.665 -66.659)" fill="#ecf0f1"/><path d="M424.938,70.3l-.43,1.047,2.007.188Z" transform="translate(-412.697 -66.312)" fill="#ecf0f1"/><path d="M417.915,73.677l.394,1.65-1.075-.427.215-.4-.825-.356L417.467,73Z" transform="translate(-413.665 -65.98)" fill="#ecf0f1"/></g><g transform="translate(355.657 38.448)"><g transform="translate(6.789)"><path d="M364.994,38.448h18.753c11.125,3.034,9.976,26.8,9.976,26.8H361.7V40.47C361.7,39.353,363.177,38.448,364.994,38.448Z" transform="translate(-361.704 -38.448)" fill="#ff8000"/><path d="M380.021,40.249h.661c3.227,1.515,5.309,7.122,6.454,13.58a1.069,1.069,0,0,1-1.057,1.249h-4.987a1.072,1.072,0,0,1-1.071-1.071Z" transform="translate(-359.455 -38.227)" fill="#40dfff"/><rect width="15.728" height="14.828" rx="0.954" transform="translate(3.29 2.022)" fill="#40dfff"/><rect width="3.37" height="3.231" transform="translate(37.691 18.45) rotate(180)" fill="#d66c00"/><path d="M393.3,50.539h1.454a1.645,1.645,0,0,1,1.645,1.644H391.66A1.644,1.644,0,0,1,393.3,50.539Z" transform="translate(-358.026 -36.963)" fill="#34495e"/><g transform="translate(37.603 9.757)"><path d="M397.451,56.459l0-5.108a2.288,2.288,0,0,0-1.169-2.1,2.121,2.121,0,0,0-.775-.253,2.509,2.509,0,0,0-.314-.025V47.138a4.158,4.158,0,0,1,.561.042,3.971,3.971,0,0,1,1.414.463,4.116,4.116,0,0,1,2.124,3.71c0,2.554,0,5.108,0,5.108Z" transform="translate(-395.195 -47.138)" fill="#34495e"/><path d="M397.451,56.325l0-5.108a2.288,2.288,0,0,0-1.169-2.1,2.121,2.121,0,0,0-.775-.253,2.509,2.509,0,0,0-.314-.025v-.614a3.354,3.354,0,0,1,.4.03,2.748,2.748,0,0,1,.987.323,2.909,2.909,0,0,1,1.488,2.633c0,2.554,0,5.108,0,5.108Z" transform="translate(-395.195 -47.004)" fill="#2c3e50"/></g><path d="M372.422,63.4a11.5,11.5,0,0,1,11.854-9.934l28.219,1.3a3.454,3.454,0,0,1,3.314,3.451v6.313a3.451,3.451,0,0,1-3.453,3.453H365.768a4.045,4.045,0,0,1-4.045-4.045V63.4Z" transform="translate(-361.702 -36.605)" fill="#ff8000"/><path d="M361.908,62.316a2.371,2.371,0,0,0,2.334,2.887h49.7a2.265,2.265,0,0,0,1.676-.67,3.443,3.443,0,0,1-3.263,2.368H365.768a4.045,4.045,0,0,1-4.045-4.045v-.539Z" transform="translate(-361.702 -35.517)" fill="#de6f00"/><path d="M364.634,56.208l11.739.314,14,8.1H364.634Z" transform="translate(-361.344 -36.267)" fill="#2c3e50"/><path d="M379.014,56.592l9.9.265,13.338,7.712h-9.447Z" transform="translate(-359.579 -36.22)" fill="#2c3e50"/><path d="M408.365,64.528h-3.471l-13.134-7.6,16.631.445c.392.008.7.192.7.419v6.313C409.088,64.339,408.763,64.528,408.365,64.528Z" transform="translate(-358.014 -36.178)" fill="#2c3e50"/><path d="M364.634,56.208l11.739.314,8.227,4.758H364.634Z" transform="translate(-361.344 -36.267)" fill="#34495e"/><path d="M387.037,61.232q-4.012-2.321-8.023-4.64l9.9.265,7.565,4.375Z" transform="translate(-359.579 -36.22)" fill="#34495e"/><path d="M399.122,61.191q-3.68-2.13-7.362-4.259l16.631.445c.392.008.7.192.7.419v3.4Z" transform="translate(-358.014 -36.178)" fill="#34495e"/></g><g transform="translate(0 31.533)"><path d="M355.657,72.753a6.228,6.228,0,0,1,6.22-6.22h47.7a6.222,6.222,0,0,1,0,12.444h-47.7A6.229,6.229,0,0,1,355.657,72.753Z" transform="translate(-355.657 -66.533)" fill="#0b1c18"/><rect width="48.599" height="1.896" transform="translate(5.178 7.265)" fill="#112b25"/><rect width="48.599" height="1.896" transform="translate(5.178 3.282)" fill="#183d36"/><g transform="translate(48.885 1.183)"><path d="M399.578,74.554a5,5,0,0,1-.382-1.941l.193,0a.356.356,0,0,0,.359-.324,4.478,4.478,0,0,1,.222-1.1.356.356,0,0,0-.2-.438l-.181-.076a5.022,5.022,0,0,1,1.1-1.628l.138.138a.356.356,0,0,0,.483.025,4.585,4.585,0,0,1,.925-.614.355.355,0,0,0,.165-.455l-.075-.181a5,5,0,0,1,1.914-.377h.013l0,.192a.355.355,0,0,0,.323.363,4.408,4.408,0,0,1,1.092.219.357.357,0,0,0,.439-.205l.075-.18a4.988,4.988,0,0,1,1.629,1.1l-.138.137a.356.356,0,0,0-.024.483,4.59,4.59,0,0,1,.615.925.355.355,0,0,0,.455.165l.181-.075a5,5,0,0,1,.378,1.919v.009l-.192,0a.355.355,0,0,0-.36.324,4.5,4.5,0,0,1-.22,1.091.359.359,0,0,0,.205.438l.181.075a5.026,5.026,0,0,1-1.095,1.631l-.138-.138a.356.356,0,0,0-.483-.024,4.5,4.5,0,0,1-.924.615.357.357,0,0,0-.165.455l.075.182a5,5,0,0,1-1.922.379h0v-.192a.356.356,0,0,0-.324-.36,4.429,4.429,0,0,1-1.09-.217.356.356,0,0,0-.439.205l-.074.181a5.01,5.01,0,0,1-1.633-1.094l.137-.138a.356.356,0,0,0,.024-.483,4.545,4.545,0,0,1-.618-.924.354.354,0,0,0-.455-.163Z" transform="translate(-399.196 -67.587)" fill="#1d5c5b"/><path d="M400.152,72.509a3.965,3.965,0,1,0,3.965-3.966A3.964,3.964,0,0,0,400.152,72.509Z" transform="translate(-399.079 -67.47)" fill="#133e3d"/><path d="M401.736,72.314a2.186,2.186,0,1,0,2.186-2.186A2.185,2.185,0,0,0,401.736,72.314Z" transform="translate(-398.884 -67.275)" fill="#1d5c5b"/><path d="M402.313,72.243a1.538,1.538,0,1,0,1.538-1.538A1.538,1.538,0,0,0,402.313,72.243Z" transform="translate(-398.813 -67.204)" fill="#267a79"/></g><g transform="translate(36.96 1.183)"><path d="M388.957,74.554a5,5,0,0,1-.382-1.941l.193,0a.356.356,0,0,0,.359-.324,4.475,4.475,0,0,1,.222-1.1.356.356,0,0,0-.2-.438l-.181-.076a5,5,0,0,1,1.1-1.628l.137.138a.357.357,0,0,0,.484.025,4.554,4.554,0,0,1,.925-.614.354.354,0,0,0,.165-.455l-.075-.181a5.006,5.006,0,0,1,1.913-.377h.015l0,.192a.355.355,0,0,0,.323.363,4.4,4.4,0,0,1,1.092.219.357.357,0,0,0,.439-.205l.075-.18a4.988,4.988,0,0,1,1.629,1.1l-.138.137a.356.356,0,0,0-.024.483,4.584,4.584,0,0,1,.614.925.357.357,0,0,0,.456.165l.181-.075a5.023,5.023,0,0,1,.378,1.919v.009l-.192,0a.355.355,0,0,0-.36.324,4.493,4.493,0,0,1-.22,1.091.359.359,0,0,0,.205.438l.181.075a5.012,5.012,0,0,1-1.1,1.631l-.137-.138a.356.356,0,0,0-.483-.024,4.482,4.482,0,0,1-.925.615.355.355,0,0,0-.163.455l.074.182a5,5,0,0,1-1.923.379h0v-.192a.356.356,0,0,0-.326-.36,4.431,4.431,0,0,1-1.089-.217.356.356,0,0,0-.439.205l-.074.181a5.01,5.01,0,0,1-1.633-1.094l.138-.138a.357.357,0,0,0,.022-.483,4.547,4.547,0,0,1-.618-.924.354.354,0,0,0-.455-.163Z" transform="translate(-388.575 -67.587)" fill="#1d5c5b"/><path d="M389.531,72.509a3.965,3.965,0,1,0,3.963-3.966A3.964,3.964,0,0,0,389.531,72.509Z" transform="translate(-388.458 -67.47)" fill="#133e3d"/><path d="M391.116,72.314a2.185,2.185,0,1,0,2.184-2.186A2.184,2.184,0,0,0,391.116,72.314Z" transform="translate(-388.263 -67.275)" fill="#1d5c5b"/><path d="M391.692,72.243a1.538,1.538,0,1,0,1.537-1.538A1.538,1.538,0,0,0,391.692,72.243Z" transform="translate(-388.192 -67.204)" fill="#267a79"/></g><g transform="translate(25.035 1.183)"><path d="M378.336,74.554a5.025,5.025,0,0,1-.382-1.941l.193,0a.358.358,0,0,0,.36-.324,4.424,4.424,0,0,1,.221-1.1.356.356,0,0,0-.2-.438l-.181-.076a5,5,0,0,1,1.1-1.628l.137.138a.357.357,0,0,0,.484.025,4.553,4.553,0,0,1,.925-.614.354.354,0,0,0,.165-.455l-.075-.181a5.007,5.007,0,0,1,1.913-.377h.015l0,.192a.355.355,0,0,0,.323.363,4.4,4.4,0,0,1,1.092.219.355.355,0,0,0,.438-.205l.076-.18a4.988,4.988,0,0,1,1.629,1.1l-.138.137a.356.356,0,0,0-.024.483,4.537,4.537,0,0,1,.614.925.357.357,0,0,0,.456.165l.181-.075a5.023,5.023,0,0,1,.378,1.919v.009l-.192,0a.357.357,0,0,0-.362.324,4.44,4.44,0,0,1-.219,1.091.356.356,0,0,0,.207.438l.18.075a5.045,5.045,0,0,1-1.095,1.631l-.138-.138a.355.355,0,0,0-.483-.024,4.482,4.482,0,0,1-.925.615.355.355,0,0,0-.163.455l.074.182a5,5,0,0,1-1.923.379h0v-.192a.356.356,0,0,0-.324-.36,4.42,4.42,0,0,1-1.089-.217.356.356,0,0,0-.439.205l-.074.181a5,5,0,0,1-1.633-1.094l.138-.138a.357.357,0,0,0,.022-.483,4.547,4.547,0,0,1-.618-.924.354.354,0,0,0-.455-.163Z" transform="translate(-377.954 -67.587)" fill="#1d5c5b"/><path d="M378.91,72.509a3.965,3.965,0,1,0,3.963-3.966A3.963,3.963,0,0,0,378.91,72.509Z" transform="translate(-377.837 -67.47)" fill="#133e3d"/><path d="M380.495,72.314a2.185,2.185,0,1,0,2.184-2.186A2.184,2.184,0,0,0,380.495,72.314Z" transform="translate(-377.642 -67.275)" fill="#1d5c5b"/><path d="M381.071,72.243a1.538,1.538,0,1,0,1.537-1.538A1.538,1.538,0,0,0,381.071,72.243Z" transform="translate(-377.571 -67.204)" fill="#267a79"/></g><g transform="translate(13.11 1.183)"><path d="M367.715,74.554a5.025,5.025,0,0,1-.382-1.941l.193,0a.358.358,0,0,0,.36-.324,4.476,4.476,0,0,1,.22-1.1.355.355,0,0,0-.2-.438l-.181-.076a5,5,0,0,1,1.1-1.628l.137.138a.357.357,0,0,0,.484.025,4.553,4.553,0,0,1,.925-.614.356.356,0,0,0,.166-.455l-.076-.181a5,5,0,0,1,1.913-.377h.015l0,.192a.355.355,0,0,0,.323.363,4.4,4.4,0,0,1,1.092.219.355.355,0,0,0,.438-.205l.076-.18a5,5,0,0,1,1.63,1.1l-.139.137a.357.357,0,0,0-.025.483,4.5,4.5,0,0,1,.615.925.357.357,0,0,0,.456.165l.181-.075a5.023,5.023,0,0,1,.378,1.919v.009l-.192,0a.357.357,0,0,0-.362.324,4.44,4.44,0,0,1-.219,1.091.356.356,0,0,0,.207.438l.18.075a5.027,5.027,0,0,1-1.095,1.631l-.138-.138a.355.355,0,0,0-.483-.024,4.512,4.512,0,0,1-.925.615.355.355,0,0,0-.163.455l.074.182a5,5,0,0,1-1.923.379h0v-.192a.356.356,0,0,0-.324-.36,4.42,4.42,0,0,1-1.089-.217.355.355,0,0,0-.439.205l-.074.181a5.015,5.015,0,0,1-1.634-1.094l.139-.138a.358.358,0,0,0,.022-.483,4.545,4.545,0,0,1-.618-.924.354.354,0,0,0-.455-.163Z" transform="translate(-367.333 -67.587)" fill="#1d5c5b"/><path d="M368.289,72.509a3.965,3.965,0,1,0,3.963-3.966A3.964,3.964,0,0,0,368.289,72.509Z" transform="translate(-367.216 -67.47)" fill="#133e3d"/><path d="M369.874,72.314a2.185,2.185,0,1,0,2.184-2.186A2.184,2.184,0,0,0,369.874,72.314Z" transform="translate(-367.021 -67.275)" fill="#1d5c5b"/><path d="M370.45,72.243a1.538,1.538,0,1,0,1.537-1.538A1.537,1.537,0,0,0,370.45,72.243Z" transform="translate(-366.95 -67.204)" fill="#267a79"/></g><g transform="translate(1.265 1.265)"><path d="M357.159,74.513a4.953,4.953,0,0,1-.375-1.909h.19a.352.352,0,0,0,.355-.32,4.393,4.393,0,0,1,.217-1.078.35.35,0,0,0-.2-.432l-.177-.074a4.943,4.943,0,0,1,1.081-1.6l.136.137a.35.35,0,0,0,.475.024,4.439,4.439,0,0,1,.911-.6.351.351,0,0,0,.163-.448l-.074-.179a4.926,4.926,0,0,1,1.882-.369h.015l0,.188a.349.349,0,0,0,.318.357,4.355,4.355,0,0,1,1.074.216.351.351,0,0,0,.432-.2l.073-.177a4.934,4.934,0,0,1,1.6,1.079l-.136.136a.351.351,0,0,0-.025.475,4.48,4.48,0,0,1,.606.911.35.35,0,0,0,.447.162l.179-.073a4.922,4.922,0,0,1,.372,1.887v.009l-.189,0a.351.351,0,0,0-.355.319,4.4,4.4,0,0,1-.216,1.073.352.352,0,0,0,.2.432l.177.073a4.93,4.93,0,0,1-1.078,1.606l-.135-.136a.352.352,0,0,0-.476-.024,4.48,4.48,0,0,1-.908.606.35.35,0,0,0-.162.448l.074.177a4.936,4.936,0,0,1-1.893.374h0v-.19a.35.35,0,0,0-.319-.354,4.4,4.4,0,0,1-1.072-.213.349.349,0,0,0-.431.2l-.074.177a4.951,4.951,0,0,1-1.607-1.076l.136-.136a.35.35,0,0,0,.024-.475,4.446,4.446,0,0,1-.607-.909.351.351,0,0,0-.448-.161Z" transform="translate(-356.784 -67.66)" fill="#1d5c5b"/><path d="M357.725,72.5a3.9,3.9,0,1,0,3.9-3.9A3.9,3.9,0,0,0,357.725,72.5Z" transform="translate(-356.668 -67.544)" fill="#133e3d"/><path d="M359.284,72.31a2.15,2.15,0,1,0,2.149-2.15A2.15,2.15,0,0,0,359.284,72.31Z" transform="translate(-356.477 -67.353)" fill="#1d5c5b"/><path d="M359.852,72.241a1.512,1.512,0,1,0,1.511-1.514A1.513,1.513,0,0,0,359.852,72.241Z" transform="translate(-356.407 -67.283)" fill="#267a79"/></g><path d="M355.657,72.753a6.228,6.228,0,0,1,6.22-6.22h47.7a6.222,6.222,0,0,1,0,12.444h-47.7A6.229,6.229,0,0,1,355.657,72.753Zm6.664-5.167a5.169,5.169,0,0,0,0,10.337h47.194a5.169,5.169,0,0,0,0-10.337Z" transform="translate(-355.657 -66.533)" fill="#34495e"/></g><g transform="translate(52.402 22.437)"><path d="M416.053,79.971h-4.277V58.431h2.49Z" transform="translate(-401.169 -58.431)" fill="#2c3e50"/><path d="M416.338,74.02H412.4v4.038h7.151v-.823A3.214,3.214,0,0,1,416.338,74.02Z" transform="translate(-401.092 -56.517)" fill="#f39c12"/><g transform="translate(0 8.756)"><path d="M415.22,69.034,404.44,74.2a1.474,1.474,0,0,1-1.966-.693h0a1.475,1.475,0,0,1,.693-1.967l10.78-5.164a1.475,1.475,0,0,1,1.966.693h0A1.474,1.474,0,0,1,415.22,69.034Z" transform="translate(-402.329 -66.23)" fill="#1b2630"/><path d="M414.1,67.285a.943.943,0,1,1-1.258-.443A.941.941,0,0,1,414.1,67.285Z" transform="translate(-401.103 -66.166)" fill="#f1c40f"/><path d="M404.738,71.77a.944.944,0,1,1-1.259-.442A.946.946,0,0,1,404.738,71.77Z" transform="translate(-402.253 -65.616)" fill="#f1c40f"/></g></g></g></g></g></svg>