<svg xmlns="http://www.w3.org/2000/svg" width="92" height="92" viewBox="0 0 92 92"><g transform="translate(8287 5969)"><circle cx="46" cy="46" r="46" transform="translate(-8287 -5969)" fill="#c3bbfb"/><g transform="translate(-8465.015 -6225.031)"><g transform="translate(199.495 288.59)"><path d="M249.383,290.336q-.381-1.152-.762-2.306c-.012-.037-1.466.27-1.622.3q-1.263.251-2.514.56c-3.634.9-7.344,2.254-10.12,4.86a13.073,13.073,0,0,0-3.132,4.537,20.763,20.763,0,0,0-1.311,5.653c-.4,3.527-.433,7.189-2.451,10.257-2.076,3.157-5.473,5.353-8.729,7.134-6.206,3.4-12.959,5.543-19.682,7.653h0q1.472,3,2.94,5.991.9,1.842,1.808,3.679h23.6q1.552-1.47,3.026-3.027c5.319-5.645,9.9-12.5,10.569-20.428a27.081,27.081,0,0,0-.2-6c-.237-1.691-.616-3.354-.966-5.023a10.58,10.58,0,0,1-.324-4.619,9.028,9.028,0,0,1,3.4-4.458,33.588,33.588,0,0,1,4.665-3.088c.635-.358,1.282-.7,1.927-1.04C249.662,290.892,249.429,290.471,249.383,290.336Z" transform="translate(-199.06 -288.026)" fill="#3b73a4"/></g><g transform="translate(183.688 284.407)"><path d="M220.194,302.834c0,9.735-13.64,35.9-17.523,35.9-5,0-17.738-26.167-17.738-35.9a17.631,17.631,0,1,1,35.262,0Z" transform="translate(-183.653 -283.923)" fill="#91ce6e"/><path d="M202.705,340.051c-3.935,0-9.141-9.409-11.893-15.015-3.286-6.694-7.124-16.516-7.124-22.166a18.91,18.91,0,1,1,37.82,0c0,5.422-3.846,15.01-7.442,22.175a85.62,85.62,0,0,1-5.937,10.22C205.156,339.507,203.669,340.051,202.705,340.051Zm-.108-53.533a16.369,16.369,0,0,0-16.35,16.352c0,4.223,2.757,12.677,6.864,21.037,4.556,9.285,8.309,13.507,9.559,13.585,1.116-.318,4.823-4.965,9.335-14.051,4.216-8.493,6.942-16.568,6.942-20.571A16.37,16.37,0,0,0,202.6,286.517Z" transform="translate(-183.688 -283.958)" fill="#91ce6e"/></g><g transform="translate(189.986 290.659)"><path d="M213.72,302.614a11.331,11.331,0,1,1-11.331-11.33A11.331,11.331,0,0,1,213.72,302.614Z" transform="translate(-189.778 -290.003)" fill="#ffdb00"/><path d="M202.424,315.261a12.612,12.612,0,1,1,12.611-12.612A12.626,12.626,0,0,1,202.424,315.261Zm0-22.663a10.052,10.052,0,1,0,10.052,10.051A10.064,10.064,0,0,0,202.424,292.6Z" transform="translate(-189.813 -290.038)" fill="#ffdb00"/></g><g transform="translate(241.216 268.087)"><path d="M255.451,276.386c0,4.152-5.818,15.312-7.476,15.312-2.133,0-7.564-11.16-7.564-15.312a7.52,7.52,0,1,1,15.04,0Z" transform="translate(-239.611 -268.065)" fill="#ff5a00"/><path d="M248,292.52c-1.723,0-3.835-3.561-5.3-6.548-1.416-2.877-3.065-7.112-3.065-9.564a8.319,8.319,0,1,1,16.638,0c0,2.357-1.653,6.489-3.2,9.571C251.573,288.965,249.476,292.52,248,292.52Zm-.044-22.832a6.727,6.727,0,0,0-6.72,6.72c0,4.166,5.174,13.952,6.723,14.5,1.377-.792,6.716-10.513,6.716-14.5A6.727,6.727,0,0,0,247.953,269.688Z" transform="translate(-239.633 -268.087)" fill="#ff5a00"/></g><g transform="translate(243.902 270.754)"><path d="M252.69,276.292a4.833,4.833,0,1,1-4.833-4.832A4.834,4.834,0,0,1,252.69,276.292Z" transform="translate(-242.223 -270.659)" fill="#ffdb00"/><path d="M247.879,281.948a5.634,5.634,0,1,1,5.631-5.634A5.641,5.641,0,0,1,247.879,281.948Zm0-9.668a4.034,4.034,0,1,0,4.032,4.034A4.038,4.038,0,0,0,247.879,272.28Z" transform="translate(-242.245 -270.681)" fill="#ffdb00"/></g><g transform="translate(197.677 297.173)"><path d="M200.083,304.434l-1.2,3.7h-1.587l4.012-11.76h1.814l4.013,11.76H205.51l-1.258-3.7Zm3.857-1.186-1.151-3.385c-.262-.768-.439-1.467-.612-2.147h-.052c-.157.7-.348,1.413-.575,2.128l-1.153,3.4Z" transform="translate(-197.292 -296.372)" fill="#3b73a4"/></g><g transform="translate(247.962 273.357)"><path d="M246.193,273.325a7.074,7.074,0,0,1,1.286-.113,2.2,2.2,0,0,1,1.48.395,1.117,1.117,0,0,1,.459.956,1.289,1.289,0,0,1-.917,1.189v.015a1.426,1.426,0,0,1,.652,2.445,2.68,2.68,0,0,1-1.864.506,8.614,8.614,0,0,1-1.1-.064Zm.709,2.226h.635c.731,0,1.173-.394,1.173-.915,0-.635-.483-.885-1.19-.885a3.029,3.029,0,0,0-.619.048Zm0,2.589a3.927,3.927,0,0,0,.586.032c.724,0,1.4-.265,1.4-1.045,0-.748-.643-1.054-1.408-1.054H246.9Z" transform="translate(-246.193 -273.212)" fill="#3b73a4"/></g></g></g></svg>