<svg xmlns="http://www.w3.org/2000/svg" width="92" height="92" viewBox="0 0 92 92"><g transform="translate(8045 5969)"><circle cx="46" cy="46" r="46" transform="translate(-8045 -5969)" fill="#c3bbfb"/><g transform="translate(-8306.285 -6169.547)"><path d="M333.752,220.256a66.741,66.741,0,0,1,6.708-4.051q.5-.273,1.024-.538H320.523c-4.677,2.11-8.637,4.878-11.077,8.565-2.709,4.106-2.986,8.572-3.046,13.022-.03,2.007.089,4.179-.862,6.1a4.32,4.32,0,0,1-2.228,2.018c-1.119.5-2.316.921-3.492,1.356a98.232,98.232,0,0,1-15.74,3.955c-5.465,1.017-11.019,1.715-16.556,2.5q1.019,1.754,2.036,3.518,3.352,5.8,6.708,11.589,3.623,6.261,7.246,12.521,1.7,2.931,3.389,5.863c3.211-1.475,6.459-2.906,9.635-4.413,5.047-2.4,9.976-4.943,14.623-7.717a80.246,80.246,0,0,0,13.169-9.459,34.92,34.92,0,0,0,7.5-9.3,18.984,18.984,0,0,0,1.818-13.26,27.133,27.133,0,0,0-2.279-6.04c-.907-1.8-1.974-3.559-2.872-5.361a9.379,9.379,0,0,1-.941-2.528,4.524,4.524,0,0,1,.742-3.147A19.359,19.359,0,0,1,333.752,220.256Z" transform="translate(0 0)" fill="#3b73a4"/><g transform="translate(277.012 217.487)"><g transform="translate(8.803)"><path d="M283.013,267.7l-.633-2.3,1.152-.319c1.246-.342,2.47-.691,3.636-1.034l1.145-.34.681,2.291-1.146.341c-1.182.348-2.422.7-3.683,1.048Zm10.553-3.167-.792-2.258,1.128-.393c1.229-.432,2.417-.872,3.526-1.305l1.113-.437.872,2.224-1.113.438c-1.135.443-2.35.894-3.605,1.336Zm10.289-4.136-1.09-2.125,1.064-.549c1.156-.595,2.238-1.2,3.218-1.817l1.012-.637,1.271,2.028-1.011.633c-1.04.651-2.183,1.3-3.4,1.922Zm9.431-6.3-1.8-1.575.787-.9a12.646,12.646,0,0,0,1.932-2.872l.518-1.077,2.152,1.034-.516,1.079a15.34,15.34,0,0,1-2.286,3.415Zm2.075-10.508-.074-1.194a34.453,34.453,0,0,0-.464-3.646l-.2-1.179,2.358-.4.2,1.18a37.227,37.227,0,0,1,.494,3.9l.071,1.193Zm-1.484-10.878-.034-1.193c0-.2-.009-.41-.009-.616a16.023,16.023,0,0,1,.355-3.456l.255-1.167,2.336.51-.257,1.167a13.75,13.75,0,0,0-.3,2.946c0,.185,0,.366.01.547l.033,1.2Zm4.857-9.58-1.8-1.572.788-.9a23.408,23.408,0,0,1,2.9-2.765l.928-.752L323.051,219l-.93.752a21.4,21.4,0,0,0-2.6,2.481Z" transform="translate(-282.38 -217.145)" fill="#fafafa"/></g><g transform="translate(0 49.438)"><path d="M275.779,260.624l-.549-2.328,1.165-.275q.94-.218,1.854-.441l1.16-.282.563,2.322-1.161.282c-.612.148-1.236.3-1.867.448Z" transform="translate(-275.23 -257.299)" fill="#fafafa"/></g></g></g></g></svg>