<svg xmlns="http://www.w3.org/2000/svg" width="92" height="92" viewBox="0 0 92 92"><g transform="translate(7805 5969)"><circle cx="46" cy="46" r="46" transform="translate(-7805 -5969)" fill="#c3bbfb"/><g transform="translate(-7927.75 -6204.498)"><path d="M194.84,304.869a6.829,6.829,0,0,0-4.909-6.072l-9.284-2.693a3.413,3.413,0,0,1-2.463-3.279v-8.483H159.316v8.483a3.414,3.414,0,0,1-2.464,3.279l-9.283,2.693a6.829,6.829,0,0,0-4.909,6.072L141.612,317.5h54.276Z" fill="#f2ca98"/><path d="M194.84,304.869a6.829,6.829,0,0,0-4.909-6.072l-9.284-2.693a3.411,3.411,0,0,1-2.294-2.229l-9.6,8.534-9.6-8.534a3.411,3.411,0,0,1-2.295,2.229l-9.283,2.693a6.829,6.829,0,0,0-4.909,6.072L141.612,317.5h54.276Z" fill="#f39c12"/><path d="M145.632,305.818a11.286,11.286,0,0,1,2.561-7.2l-.624.181a6.829,6.829,0,0,0-4.909,6.072L141.612,317.5h4.02Z" fill="#f1c40f"/><path d="M188.427,304.858V317.5h7.461l-1.048-12.631a6.829,6.829,0,0,0-4.909-6.072l-4.118-1.194A11.884,11.884,0,0,1,188.427,304.858Z" fill="#e67e22"/><rect width="3.712" height="15.091" transform="translate(166.894 302.409)" fill="#d35400"/><rect width="1.264" height="0.838" transform="translate(167.486 302.409)" fill="#ecf0f1"/><rect width="1.264" height="0.839" transform="translate(168.75 303.247)" fill="#ecf0f1"/><rect width="1.264" height="0.838" transform="translate(168.75 302.409)" fill="#bdc3c7"/><rect width="1.264" height="0.839" transform="translate(167.486 303.247)" fill="#bdc3c7"/><rect width="1.264" height="0.838" transform="translate(167.486 304.086)" fill="#ecf0f1"/><rect width="1.264" height="0.839" transform="translate(168.75 304.924)" fill="#ecf0f1"/><rect width="1.264" height="0.838" transform="translate(168.75 304.086)" fill="#bdc3c7"/><rect width="1.264" height="0.839" transform="translate(167.486 304.924)" fill="#bdc3c7"/><rect width="1.264" height="0.838" transform="translate(167.486 305.763)" fill="#ecf0f1"/><rect width="1.264" height="0.839" transform="translate(168.75 306.601)" fill="#ecf0f1"/><rect width="1.264" height="0.838" transform="translate(168.75 305.763)" fill="#bdc3c7"/><rect width="1.264" height="0.839" transform="translate(167.486 306.601)" fill="#bdc3c7"/><rect width="1.264" height="0.838" transform="translate(167.486 307.44)" fill="#ecf0f1"/><rect width="1.264" height="0.839" transform="translate(168.75 308.277)" fill="#ecf0f1"/><rect width="1.264" height="0.838" transform="translate(168.75 307.44)" fill="#bdc3c7"/><rect width="1.264" height="0.839" transform="translate(167.486 308.277)" fill="#bdc3c7"/><rect width="1.264" height="0.838" transform="translate(167.486 309.116)" fill="#ecf0f1"/><rect width="1.264" height="0.839" transform="translate(168.75 309.954)" fill="#ecf0f1"/><rect width="1.264" height="0.838" transform="translate(168.75 309.116)" fill="#bdc3c7"/><rect width="1.264" height="0.839" transform="translate(167.486 309.954)" fill="#bdc3c7"/><rect width="1.264" height="0.838" transform="translate(167.486 310.793)" fill="#ecf0f1"/><rect width="1.264" height="0.839" transform="translate(168.75 311.631)" fill="#ecf0f1"/><rect width="1.264" height="0.838" transform="translate(168.75 310.793)" fill="#bdc3c7"/><rect width="1.264" height="0.839" transform="translate(167.486 311.631)" fill="#bdc3c7"/><rect width="1.264" height="0.838" transform="translate(167.486 312.47)" fill="#ecf0f1"/><rect width="1.264" height="0.839" transform="translate(168.75 313.308)" fill="#ecf0f1"/><rect width="1.264" height="0.838" transform="translate(168.75 312.47)" fill="#bdc3c7"/><rect width="1.264" height="0.839" transform="translate(167.486 313.308)" fill="#bdc3c7"/><rect width="1.264" height="0.838" transform="translate(167.486 314.147)" fill="#ecf0f1"/><rect width="1.264" height="0.839" transform="translate(168.75 314.984)" fill="#ecf0f1"/><rect width="1.264" height="0.838" transform="translate(168.75 314.147)" fill="#bdc3c7"/><rect width="1.264" height="0.839" transform="translate(167.486 314.984)" fill="#bdc3c7"/><rect width="1.264" height="0.838" transform="translate(167.486 315.823)" fill="#ecf0f1"/><rect width="1.264" height="0.839" transform="translate(168.75 316.661)" fill="#ecf0f1"/><rect width="1.264" height="0.838" transform="translate(168.75 315.823)" fill="#bdc3c7"/><rect width="1.264" height="0.839" transform="translate(167.486 316.661)" fill="#bdc3c7"/><path d="M159.147,293.875l-3.505,2.58,9.333,12.661,3.775-6.707Z" fill="#e67e22" opacity="0.5" style="mix-blend-mode:multiply;isolation:isolate"/><path d="M159.147,293.875l-3.505,2.58,7.632,11.893,5.476-5.939Z" fill="#f1c40f"/><path d="M178.353,293.875l3.505,2.58L176.234,308.7l-7.484-6.288Z" fill="#e67e22" opacity="0.5" style="mix-blend-mode:multiply;isolation:isolate"/><path d="M178.353,293.875l3.505,2.58-7.632,11.893-5.476-5.939Z" fill="#f1c40f"/><path d="M155.98,317.5l-.338-21.048-3.955,1.684V317.5Z" fill="#e67e22"/><rect width="11.914" height="3.773" transform="translate(154.98 310.876)" fill="#e67e22"/><path d="M186.8,317.5V297.891l-4.293-1.015V317.5Z" fill="#e67e22"/><rect width="12.906" height="3.773" transform="translate(170.606 310.876)" fill="#e67e22"/><path d="M155.484,317.5h-4.293V297.637l4.293-1.264Z" fill="#e3e7e8"/><rect width="12.41" height="3.773" transform="translate(154.484 310.374)" fill="#e3e7e8"/><path d="M182.016,317.5h4.293V297.637l-4.293-1.264Z" fill="#e3e7e8"/><rect width="12.41" height="3.773" transform="translate(183.016 314.147) rotate(180)" fill="#e3e7e8"/><path d="M168.75,290.431h0a16.811,16.811,0,0,1-16.81-16.811v-7.891a16.81,16.81,0,0,1,16.81-16.809h0a16.81,16.81,0,0,1,16.81,16.809v7.891A16.811,16.811,0,0,1,168.75,290.431Z" fill="#fed8a9"/><path d="M188.6,274.218a3.857,3.857,0,1,1-3.852-4.049A3.954,3.954,0,0,1,188.6,274.218Z" fill="#fed8a9"/><path d="M148.9,274.218a3.856,3.856,0,1,0,3.852-4.049A3.954,3.954,0,0,0,148.9,274.218Z" fill="#fed8a9"/><path d="M153.963,285.485l-3.249-17.636,3.97-1.83.4,17.382Z" fill="#752f00"/><path d="M183.537,285.485l3.249-17.636-3.97-1.83-.4,17.382Z" fill="#752f00"/><path d="M178.41,280.358H159.09a5.127,5.127,0,0,0-5.127,5.127s1.471,8.053,14.787,8.053c13.667,0,14.787-8.053,14.787-8.053A5.127,5.127,0,0,0,178.41,280.358Zm-4.937,7.022h-9.446a2.249,2.249,0,1,1,0-4.5h9.446a2.249,2.249,0,1,1,0,4.5Z" fill="#752f00"/><path d="M187.149,267.855c0,1.722-2.384,3.268-6.17,4.329-3.251.911-7.534-.1-12.229-.1-5.034,0-9.6.931-12.918-.1-3.384-1.049-5.481-2.51-5.481-4.125,0-3.2,8.237-5.792,18.4-5.792S187.149,264.656,187.149,267.855Z" fill="#d35400"/><path d="M187.149,267.855c0,1.722-2.384,2.2-6.17,3.258-3.251.911-7.534-.868-12.229-.868-5.034,0-9.6,1.7-12.918.665-3.384-1.051-5.481-1.44-5.481-3.055,0-3.2,8.237-5.792,18.4-5.792S187.149,264.656,187.149,267.855Z" fill="#e67e22"/><path d="M174.474,245.586q-5.723-.185-11.448,0c-7.017.121-12.682,6.479-12.675,13.6v8.66a71.682,71.682,0,0,1,36.8,0v-8.66C187.156,252.065,181.491,245.706,174.474,245.586Z" fill="#f1c40f"/><path d="M174.474,245.586c-.214-.007-.427,0-.641-.011a9.068,9.068,0,0,1,4.544,7.644V262.2a8.378,8.378,0,0,1-.9,3.788,73.1,73.1,0,0,1,9.67,1.859v-8.66C187.156,252.065,181.491,245.706,174.474,245.586Z" fill="#f39c12"/></g></g></svg>